ISO-10303-21;
HEADER;
/* Generated by software containing ST-Developer
 * from STEP Tools, Inc. (www.steptools.com) 
 */

FILE_DESCRIPTION(
/* description */ (''),
/* implementation_level */ '2;1');

FILE_NAME(
/* name */ '70_Print_Engine.stp',
/* time_stamp */ '2026-09-13T20:18:28-05:00',
/* author */ (''),
/* organization */ (''),
/* preprocessor_version */ 'ST-DEVELOPER v20.1',
/* originating_system */ 'Autodesk Translation Framework v15.8.0.0',
/* authorisation */ '');

FILE_SCHEMA (('AUTOMOTIVE_DESIGN { 1 0 10303 214 3 1 1 }'));
ENDSEC;

DATA;
#10=MECHANICAL_DESIGN_GEOMETRIC_PRESENTATION_REPRESENTATION('',(#13),#897);
#11=SHAPE_REPRESENTATION_RELATIONSHIP('SRR','None',#904,#12);
#12=ADVANCED_BREP_SHAPE_REPRESENTATION('',(#14),#896);
#13=STYLED_ITEM('',(#913),#14);
#14=MANIFOLD_SOLID_BREP('PR-61-Engine-Cradle',#553);
#15=FACE_BOUND('',#105,.T.);
#16=FACE_BOUND('',#106,.T.);
#17=FACE_BOUND('',#107,.T.);
#18=FACE_BOUND('',#108,.T.);
#19=FACE_BOUND('',#109,.T.);
#20=FACE_BOUND('',#111,.T.);
#21=FACE_BOUND('',#112,.T.);
#22=FACE_BOUND('',#113,.T.);
#23=PLANE('',#573);
#24=PLANE('',#574);
#25=PLANE('',#575);
#26=PLANE('',#576);
#27=PLANE('',#577);
#28=PLANE('',#581);
#29=PLANE('',#582);
#30=PLANE('',#583);
#31=PLANE('',#584);
#32=PLANE('',#585);
#33=PLANE('',#586);
#34=PLANE('',#587);
#35=PLANE('',#588);
#36=PLANE('',#589);
#37=PLANE('',#590);
#38=PLANE('',#591);
#39=PLANE('',#592);
#40=PLANE('',#593);
#41=PLANE('',#594);
#42=PLANE('',#595);
#43=PLANE('',#596);
#44=PLANE('',#597);
#45=PLANE('',#598);
#46=PLANE('',#599);
#47=PLANE('',#600);
#48=PLANE('',#601);
#49=PLANE('',#602);
#50=FACE_OUTER_BOUND('',#80,.T.);
#51=FACE_OUTER_BOUND('',#81,.T.);
#52=FACE_OUTER_BOUND('',#82,.T.);
#53=FACE_OUTER_BOUND('',#83,.T.);
#54=FACE_OUTER_BOUND('',#84,.T.);
#55=FACE_OUTER_BOUND('',#85,.T.);
#56=FACE_OUTER_BOUND('',#86,.T.);
#57=FACE_OUTER_BOUND('',#87,.T.);
#58=FACE_OUTER_BOUND('',#88,.T.);
#59=FACE_OUTER_BOUND('',#89,.T.);
#60=FACE_OUTER_BOUND('',#90,.T.);
#61=FACE_OUTER_BOUND('',#91,.T.);
#62=FACE_OUTER_BOUND('',#92,.T.);
#63=FACE_OUTER_BOUND('',#93,.T.);
#64=FACE_OUTER_BOUND('',#94,.T.);
#65=FACE_OUTER_BOUND('',#95,.T.);
#66=FACE_OUTER_BOUND('',#96,.T.);
#67=FACE_OUTER_BOUND('',#97,.T.);
#68=FACE_OUTER_BOUND('',#98,.T.);
#69=FACE_OUTER_BOUND('',#99,.T.);
#70=FACE_OUTER_BOUND('',#100,.T.);
#71=FACE_OUTER_BOUND('',#101,.T.);
#72=FACE_OUTER_BOUND('',#102,.T.);
#73=FACE_OUTER_BOUND('',#103,.T.);
#74=FACE_OUTER_BOUND('',#104,.T.);
#75=FACE_OUTER_BOUND('',#110,.T.);
#76=FACE_OUTER_BOUND('',#114,.T.);
#77=FACE_OUTER_BOUND('',#115,.T.);
#78=FACE_OUTER_BOUND('',#116,.T.);
#79=FACE_OUTER_BOUND('',#117,.T.);
#80=EDGE_LOOP('',(#376,#377,#378,#379));
#81=EDGE_LOOP('',(#380,#381,#382,#383));
#82=EDGE_LOOP('',(#384,#385,#386,#387));
#83=EDGE_LOOP('',(#388,#389,#390,#391));
#84=EDGE_LOOP('',(#392,#393,#394,#395));
#85=EDGE_LOOP('',(#396,#397,#398,#399));
#86=EDGE_LOOP('',(#400,#401,#402,#403));
#87=EDGE_LOOP('',(#404,#405,#406,#407));
#88=EDGE_LOOP('',(#408,#409,#410,#411,#412,#413));
#89=EDGE_LOOP('',(#414,#415,#416,#417));
#90=EDGE_LOOP('',(#418,#419,#420,#421));
#91=EDGE_LOOP('',(#422,#423,#424,#425));
#92=EDGE_LOOP('',(#426,#427,#428,#429,#430,#431));
#93=EDGE_LOOP('',(#432,#433,#434,#435));
#94=EDGE_LOOP('',(#436,#437,#438,#439));
#95=EDGE_LOOP('',(#440,#441,#442,#443));
#96=EDGE_LOOP('',(#444,#445,#446,#447));
#97=EDGE_LOOP('',(#448,#449,#450,#451));
#98=EDGE_LOOP('',(#452,#453,#454,#455));
#99=EDGE_LOOP('',(#456,#457,#458,#459));
#100=EDGE_LOOP('',(#460,#461,#462,#463));
#101=EDGE_LOOP('',(#464,#465,#466,#467));
#102=EDGE_LOOP('',(#468,#469,#470,#471));
#103=EDGE_LOOP('',(#472,#473,#474,#475));
#104=EDGE_LOOP('',(#476,#477,#478,#479));
#105=EDGE_LOOP('',(#480));
#106=EDGE_LOOP('',(#481));
#107=EDGE_LOOP('',(#482,#483,#484,#485));
#108=EDGE_LOOP('',(#486,#487,#488,#489));
#109=EDGE_LOOP('',(#490,#491,#492,#493));
#110=EDGE_LOOP('',(#494,#495,#496,#497));
#111=EDGE_LOOP('',(#498));
#112=EDGE_LOOP('',(#499));
#113=EDGE_LOOP('',(#500,#501,#502,#503));
#114=EDGE_LOOP('',(#504,#505,#506,#507));
#115=EDGE_LOOP('',(#508,#509,#510,#511));
#116=EDGE_LOOP('',(#512,#513,#514,#515));
#117=EDGE_LOOP('',(#516,#517,#518,#519));
#118=LINE('',#748,#184);
#119=LINE('',#754,#185);
#120=LINE('',#759,#186);
#121=LINE('',#761,#187);
#122=LINE('',#763,#188);
#123=LINE('',#764,#189);
#124=LINE('',#767,#190);
#125=LINE('',#769,#191);
#126=LINE('',#770,#192);
#127=LINE('',#773,#193);
#128=LINE('',#774,#194);
#129=LINE('',#777,#195);
#130=LINE('',#778,#196);
#131=LINE('',#780,#197);
#132=LINE('',#784,#198);
#133=LINE('',#788,#199);
#134=LINE('',#792,#200);
#135=LINE('',#794,#201);
#136=LINE('',#796,#202);
#137=LINE('',#798,#203);
#138=LINE('',#799,#204);
#139=LINE('',#802,#205);
#140=LINE('',#803,#206);
#141=LINE('',#806,#207);
#142=LINE('',#807,#208);
#143=LINE('',#810,#209);
#144=LINE('',#811,#210);
#145=LINE('',#814,#211);
#146=LINE('',#815,#212);
#147=LINE('',#817,#213);
#148=LINE('',#821,#214);
#149=LINE('',#823,#215);
#150=LINE('',#825,#216);
#151=LINE('',#826,#217);
#152=LINE('',#829,#218);
#153=LINE('',#831,#219);
#154=LINE('',#832,#220);
#155=LINE('',#835,#221);
#156=LINE('',#836,#222);
#157=LINE('',#839,#223);
#158=LINE('',#840,#224);
#159=LINE('',#842,#225);
#160=LINE('',#846,#226);
#161=LINE('',#848,#227);
#162=LINE('',#850,#228);
#163=LINE('',#851,#229);
#164=LINE('',#854,#230);
#165=LINE('',#856,#231);
#166=LINE('',#857,#232);
#167=LINE('',#860,#233);
#168=LINE('',#861,#234);
#169=LINE('',#864,#235);
#170=LINE('',#865,#236);
#171=LINE('',#867,#237);
#172=LINE('',#871,#238);
#173=LINE('',#873,#239);
#174=LINE('',#875,#240);
#175=LINE('',#876,#241);
#176=LINE('',#880,#242);
#177=LINE('',#882,#243);
#178=LINE('',#884,#244);
#179=LINE('',#885,#245);
#180=LINE('',#887,#246);
#181=LINE('',#888,#247);
#182=LINE('',#890,#248);
#183=LINE('',#892,#249);
#184=VECTOR('',#609,0.22);
#185=VECTOR('',#616,0.22);
#186=VECTOR('',#621,1.);
#187=VECTOR('',#622,1.);
#188=VECTOR('',#623,1.);
#189=VECTOR('',#624,1.);
#190=VECTOR('',#627,1.);
#191=VECTOR('',#628,1.);
#192=VECTOR('',#629,1.);
#193=VECTOR('',#632,1.);
#194=VECTOR('',#633,1.);
#195=VECTOR('',#636,1.);
#196=VECTOR('',#637,1.);
#197=VECTOR('',#640,1.);
#198=VECTOR('',#643,1.);
#199=VECTOR('',#646,1.);
#200=VECTOR('',#651,1.);
#201=VECTOR('',#652,1.);
#202=VECTOR('',#653,1.);
#203=VECTOR('',#654,1.);
#204=VECTOR('',#655,1.);
#205=VECTOR('',#658,1.);
#206=VECTOR('',#659,1.);
#207=VECTOR('',#662,1.);
#208=VECTOR('',#663,1.);
#209=VECTOR('',#666,1.);
#210=VECTOR('',#667,1.);
#211=VECTOR('',#670,1.);
#212=VECTOR('',#671,1.);
#213=VECTOR('',#674,1.);
#214=VECTOR('',#677,1.);
#215=VECTOR('',#678,1.);
#216=VECTOR('',#679,1.);
#217=VECTOR('',#680,1.);
#218=VECTOR('',#683,1.);
#219=VECTOR('',#684,1.);
#220=VECTOR('',#685,1.);
#221=VECTOR('',#688,1.);
#222=VECTOR('',#689,1.);
#223=VECTOR('',#692,1.);
#224=VECTOR('',#693,1.);
#225=VECTOR('',#696,1.);
#226=VECTOR('',#699,1.);
#227=VECTOR('',#700,1.);
#228=VECTOR('',#701,1.);
#229=VECTOR('',#702,1.);
#230=VECTOR('',#705,1.);
#231=VECTOR('',#706,1.);
#232=VECTOR('',#707,1.);
#233=VECTOR('',#710,1.);
#234=VECTOR('',#711,1.);
#235=VECTOR('',#714,1.);
#236=VECTOR('',#715,1.);
#237=VECTOR('',#718,1.);
#238=VECTOR('',#721,1.);
#239=VECTOR('',#722,1.);
#240=VECTOR('',#723,1.);
#241=VECTOR('',#724,1.);
#242=VECTOR('',#727,1.);
#243=VECTOR('',#728,1.);
#244=VECTOR('',#729,1.);
#245=VECTOR('',#730,1.);
#246=VECTOR('',#733,1.);
#247=VECTOR('',#734,1.);
#248=VECTOR('',#737,1.);
#249=VECTOR('',#740,1.);
#250=CIRCLE('',#568,0.22);
#251=CIRCLE('',#569,0.22);
#252=CIRCLE('',#571,0.22);
#253=CIRCLE('',#572,0.22);
#254=CIRCLE('',#579,0.62);
#255=CIRCLE('',#580,0.62);
#256=VERTEX_POINT('',#745);
#257=VERTEX_POINT('',#747);
#258=VERTEX_POINT('',#751);
#259=VERTEX_POINT('',#753);
#260=VERTEX_POINT('',#757);
#261=VERTEX_POINT('',#758);
#262=VERTEX_POINT('',#760);
#263=VERTEX_POINT('',#762);
#264=VERTEX_POINT('',#766);
#265=VERTEX_POINT('',#768);
#266=VERTEX_POINT('',#772);
#267=VERTEX_POINT('',#776);
#268=VERTEX_POINT('',#782);
#269=VERTEX_POINT('',#783);
#270=VERTEX_POINT('',#785);
#271=VERTEX_POINT('',#787);
#272=VERTEX_POINT('',#791);
#273=VERTEX_POINT('',#793);
#274=VERTEX_POINT('',#795);
#275=VERTEX_POINT('',#797);
#276=VERTEX_POINT('',#801);
#277=VERTEX_POINT('',#805);
#278=VERTEX_POINT('',#809);
#279=VERTEX_POINT('',#813);
#280=VERTEX_POINT('',#819);
#281=VERTEX_POINT('',#820);
#282=VERTEX_POINT('',#822);
#283=VERTEX_POINT('',#824);
#284=VERTEX_POINT('',#828);
#285=VERTEX_POINT('',#830);
#286=VERTEX_POINT('',#834);
#287=VERTEX_POINT('',#838);
#288=VERTEX_POINT('',#844);
#289=VERTEX_POINT('',#845);
#290=VERTEX_POINT('',#847);
#291=VERTEX_POINT('',#849);
#292=VERTEX_POINT('',#853);
#293=VERTEX_POINT('',#855);
#294=VERTEX_POINT('',#859);
#295=VERTEX_POINT('',#863);
#296=VERTEX_POINT('',#869);
#297=VERTEX_POINT('',#870);
#298=VERTEX_POINT('',#872);
#299=VERTEX_POINT('',#874);
#300=VERTEX_POINT('',#878);
#301=VERTEX_POINT('',#879);
#302=VERTEX_POINT('',#881);
#303=VERTEX_POINT('',#883);
#304=EDGE_CURVE('',#256,#256,#250,.T.);
#305=EDGE_CURVE('',#256,#257,#118,.T.);
#306=EDGE_CURVE('',#257,#257,#251,.T.);
#307=EDGE_CURVE('',#258,#258,#252,.T.);
#308=EDGE_CURVE('',#258,#259,#119,.T.);
#309=EDGE_CURVE('',#259,#259,#253,.T.);
#310=EDGE_CURVE('',#260,#261,#120,.T.);
#311=EDGE_CURVE('',#262,#260,#121,.T.);
#312=EDGE_CURVE('',#262,#263,#122,.T.);
#313=EDGE_CURVE('',#263,#261,#123,.T.);
#314=EDGE_CURVE('',#261,#264,#124,.T.);
#315=EDGE_CURVE('',#263,#265,#125,.T.);
#316=EDGE_CURVE('',#265,#264,#126,.T.);
#317=EDGE_CURVE('',#266,#262,#127,.T.);
#318=EDGE_CURVE('',#265,#266,#128,.T.);
#319=EDGE_CURVE('',#264,#267,#129,.T.);
#320=EDGE_CURVE('',#266,#267,#130,.T.);
#321=EDGE_CURVE('',#267,#260,#131,.T.);
#322=EDGE_CURVE('',#268,#269,#132,.T.);
#323=EDGE_CURVE('',#270,#268,#254,.T.);
#324=EDGE_CURVE('',#271,#270,#133,.T.);
#325=EDGE_CURVE('',#269,#271,#255,.T.);
#326=EDGE_CURVE('',#272,#268,#134,.T.);
#327=EDGE_CURVE('',#272,#273,#135,.T.);
#328=EDGE_CURVE('',#274,#273,#136,.T.);
#329=EDGE_CURVE('',#275,#274,#137,.T.);
#330=EDGE_CURVE('',#270,#275,#138,.T.);
#331=EDGE_CURVE('',#269,#276,#139,.T.);
#332=EDGE_CURVE('',#276,#272,#140,.T.);
#333=EDGE_CURVE('',#275,#277,#141,.T.);
#334=EDGE_CURVE('',#277,#271,#142,.T.);
#335=EDGE_CURVE('',#276,#278,#143,.T.);
#336=EDGE_CURVE('',#273,#278,#144,.T.);
#337=EDGE_CURVE('',#277,#279,#145,.T.);
#338=EDGE_CURVE('',#278,#279,#146,.T.);
#339=EDGE_CURVE('',#279,#274,#147,.T.);
#340=EDGE_CURVE('',#280,#281,#148,.T.);
#341=EDGE_CURVE('',#281,#282,#149,.T.);
#342=EDGE_CURVE('',#282,#283,#150,.T.);
#343=EDGE_CURVE('',#283,#280,#151,.T.);
#344=EDGE_CURVE('',#283,#284,#152,.T.);
#345=EDGE_CURVE('',#285,#284,#153,.T.);
#346=EDGE_CURVE('',#280,#285,#154,.T.);
#347=EDGE_CURVE('',#282,#286,#155,.T.);
#348=EDGE_CURVE('',#284,#286,#156,.T.);
#349=EDGE_CURVE('',#281,#287,#157,.T.);
#350=EDGE_CURVE('',#286,#287,#158,.T.);
#351=EDGE_CURVE('',#287,#285,#159,.T.);
#352=EDGE_CURVE('',#288,#289,#160,.T.);
#353=EDGE_CURVE('',#289,#290,#161,.T.);
#354=EDGE_CURVE('',#290,#291,#162,.T.);
#355=EDGE_CURVE('',#291,#288,#163,.T.);
#356=EDGE_CURVE('',#291,#292,#164,.T.);
#357=EDGE_CURVE('',#293,#292,#165,.T.);
#358=EDGE_CURVE('',#288,#293,#166,.T.);
#359=EDGE_CURVE('',#290,#294,#167,.T.);
#360=EDGE_CURVE('',#292,#294,#168,.T.);
#361=EDGE_CURVE('',#289,#295,#169,.T.);
#362=EDGE_CURVE('',#294,#295,#170,.T.);
#363=EDGE_CURVE('',#295,#293,#171,.T.);
#364=EDGE_CURVE('',#296,#297,#172,.T.);
#365=EDGE_CURVE('',#297,#298,#173,.T.);
#366=EDGE_CURVE('',#298,#299,#174,.T.);
#367=EDGE_CURVE('',#299,#296,#175,.T.);
#368=EDGE_CURVE('',#300,#301,#176,.T.);
#369=EDGE_CURVE('',#301,#302,#177,.T.);
#370=EDGE_CURVE('',#302,#303,#178,.T.);
#371=EDGE_CURVE('',#303,#300,#179,.T.);
#372=EDGE_CURVE('',#299,#302,#180,.T.);
#373=EDGE_CURVE('',#296,#301,#181,.T.);
#374=EDGE_CURVE('',#298,#303,#182,.T.);
#375=EDGE_CURVE('',#297,#300,#183,.T.);
#376=ORIENTED_EDGE('',*,*,#304,.F.);
#377=ORIENTED_EDGE('',*,*,#305,.T.);
#378=ORIENTED_EDGE('',*,*,#306,.F.);
#379=ORIENTED_EDGE('',*,*,#305,.F.);
#380=ORIENTED_EDGE('',*,*,#307,.F.);
#381=ORIENTED_EDGE('',*,*,#308,.T.);
#382=ORIENTED_EDGE('',*,*,#309,.F.);
#383=ORIENTED_EDGE('',*,*,#308,.F.);
#384=ORIENTED_EDGE('',*,*,#310,.F.);
#385=ORIENTED_EDGE('',*,*,#311,.F.);
#386=ORIENTED_EDGE('',*,*,#312,.T.);
#387=ORIENTED_EDGE('',*,*,#313,.T.);
#388=ORIENTED_EDGE('',*,*,#314,.F.);
#389=ORIENTED_EDGE('',*,*,#313,.F.);
#390=ORIENTED_EDGE('',*,*,#315,.T.);
#391=ORIENTED_EDGE('',*,*,#316,.T.);
#392=ORIENTED_EDGE('',*,*,#317,.F.);
#393=ORIENTED_EDGE('',*,*,#318,.F.);
#394=ORIENTED_EDGE('',*,*,#315,.F.);
#395=ORIENTED_EDGE('',*,*,#312,.F.);
#396=ORIENTED_EDGE('',*,*,#319,.F.);
#397=ORIENTED_EDGE('',*,*,#316,.F.);
#398=ORIENTED_EDGE('',*,*,#318,.T.);
#399=ORIENTED_EDGE('',*,*,#320,.T.);
#400=ORIENTED_EDGE('',*,*,#321,.F.);
#401=ORIENTED_EDGE('',*,*,#320,.F.);
#402=ORIENTED_EDGE('',*,*,#317,.T.);
#403=ORIENTED_EDGE('',*,*,#311,.T.);
#404=ORIENTED_EDGE('',*,*,#322,.F.);
#405=ORIENTED_EDGE('',*,*,#323,.F.);
#406=ORIENTED_EDGE('',*,*,#324,.F.);
#407=ORIENTED_EDGE('',*,*,#325,.F.);
#408=ORIENTED_EDGE('',*,*,#323,.T.);
#409=ORIENTED_EDGE('',*,*,#326,.F.);
#410=ORIENTED_EDGE('',*,*,#327,.T.);
#411=ORIENTED_EDGE('',*,*,#328,.F.);
#412=ORIENTED_EDGE('',*,*,#329,.F.);
#413=ORIENTED_EDGE('',*,*,#330,.F.);
#414=ORIENTED_EDGE('',*,*,#322,.T.);
#415=ORIENTED_EDGE('',*,*,#331,.T.);
#416=ORIENTED_EDGE('',*,*,#332,.T.);
#417=ORIENTED_EDGE('',*,*,#326,.T.);
#418=ORIENTED_EDGE('',*,*,#324,.T.);
#419=ORIENTED_EDGE('',*,*,#330,.T.);
#420=ORIENTED_EDGE('',*,*,#333,.T.);
#421=ORIENTED_EDGE('',*,*,#334,.T.);
#422=ORIENTED_EDGE('',*,*,#335,.T.);
#423=ORIENTED_EDGE('',*,*,#336,.F.);
#424=ORIENTED_EDGE('',*,*,#327,.F.);
#425=ORIENTED_EDGE('',*,*,#332,.F.);
#426=ORIENTED_EDGE('',*,*,#325,.T.);
#427=ORIENTED_EDGE('',*,*,#334,.F.);
#428=ORIENTED_EDGE('',*,*,#337,.T.);
#429=ORIENTED_EDGE('',*,*,#338,.F.);
#430=ORIENTED_EDGE('',*,*,#335,.F.);
#431=ORIENTED_EDGE('',*,*,#331,.F.);
#432=ORIENTED_EDGE('',*,*,#329,.T.);
#433=ORIENTED_EDGE('',*,*,#339,.F.);
#434=ORIENTED_EDGE('',*,*,#337,.F.);
#435=ORIENTED_EDGE('',*,*,#333,.F.);
#436=ORIENTED_EDGE('',*,*,#340,.T.);
#437=ORIENTED_EDGE('',*,*,#341,.T.);
#438=ORIENTED_EDGE('',*,*,#342,.T.);
#439=ORIENTED_EDGE('',*,*,#343,.T.);
#440=ORIENTED_EDGE('',*,*,#344,.T.);
#441=ORIENTED_EDGE('',*,*,#345,.F.);
#442=ORIENTED_EDGE('',*,*,#346,.F.);
#443=ORIENTED_EDGE('',*,*,#343,.F.);
#444=ORIENTED_EDGE('',*,*,#347,.T.);
#445=ORIENTED_EDGE('',*,*,#348,.F.);
#446=ORIENTED_EDGE('',*,*,#344,.F.);
#447=ORIENTED_EDGE('',*,*,#342,.F.);
#448=ORIENTED_EDGE('',*,*,#349,.T.);
#449=ORIENTED_EDGE('',*,*,#350,.F.);
#450=ORIENTED_EDGE('',*,*,#347,.F.);
#451=ORIENTED_EDGE('',*,*,#341,.F.);
#452=ORIENTED_EDGE('',*,*,#346,.T.);
#453=ORIENTED_EDGE('',*,*,#351,.F.);
#454=ORIENTED_EDGE('',*,*,#349,.F.);
#455=ORIENTED_EDGE('',*,*,#340,.F.);
#456=ORIENTED_EDGE('',*,*,#352,.T.);
#457=ORIENTED_EDGE('',*,*,#353,.T.);
#458=ORIENTED_EDGE('',*,*,#354,.T.);
#459=ORIENTED_EDGE('',*,*,#355,.T.);
#460=ORIENTED_EDGE('',*,*,#356,.T.);
#461=ORIENTED_EDGE('',*,*,#357,.F.);
#462=ORIENTED_EDGE('',*,*,#358,.F.);
#463=ORIENTED_EDGE('',*,*,#355,.F.);
#464=ORIENTED_EDGE('',*,*,#359,.T.);
#465=ORIENTED_EDGE('',*,*,#360,.F.);
#466=ORIENTED_EDGE('',*,*,#356,.F.);
#467=ORIENTED_EDGE('',*,*,#354,.F.);
#468=ORIENTED_EDGE('',*,*,#361,.T.);
#469=ORIENTED_EDGE('',*,*,#362,.F.);
#470=ORIENTED_EDGE('',*,*,#359,.F.);
#471=ORIENTED_EDGE('',*,*,#353,.F.);
#472=ORIENTED_EDGE('',*,*,#358,.T.);
#473=ORIENTED_EDGE('',*,*,#363,.F.);
#474=ORIENTED_EDGE('',*,*,#361,.F.);
#475=ORIENTED_EDGE('',*,*,#352,.F.);
#476=ORIENTED_EDGE('',*,*,#364,.T.);
#477=ORIENTED_EDGE('',*,*,#365,.T.);
#478=ORIENTED_EDGE('',*,*,#366,.T.);
#479=ORIENTED_EDGE('',*,*,#367,.T.);
#480=ORIENTED_EDGE('',*,*,#306,.T.);
#481=ORIENTED_EDGE('',*,*,#309,.T.);
#482=ORIENTED_EDGE('',*,*,#328,.T.);
#483=ORIENTED_EDGE('',*,*,#336,.T.);
#484=ORIENTED_EDGE('',*,*,#338,.T.);
#485=ORIENTED_EDGE('',*,*,#339,.T.);
#486=ORIENTED_EDGE('',*,*,#345,.T.);
#487=ORIENTED_EDGE('',*,*,#348,.T.);
#488=ORIENTED_EDGE('',*,*,#350,.T.);
#489=ORIENTED_EDGE('',*,*,#351,.T.);
#490=ORIENTED_EDGE('',*,*,#357,.T.);
#491=ORIENTED_EDGE('',*,*,#360,.T.);
#492=ORIENTED_EDGE('',*,*,#362,.T.);
#493=ORIENTED_EDGE('',*,*,#363,.T.);
#494=ORIENTED_EDGE('',*,*,#368,.T.);
#495=ORIENTED_EDGE('',*,*,#369,.T.);
#496=ORIENTED_EDGE('',*,*,#370,.T.);
#497=ORIENTED_EDGE('',*,*,#371,.T.);
#498=ORIENTED_EDGE('',*,*,#304,.T.);
#499=ORIENTED_EDGE('',*,*,#307,.T.);
#500=ORIENTED_EDGE('',*,*,#319,.T.);
#501=ORIENTED_EDGE('',*,*,#321,.T.);
#502=ORIENTED_EDGE('',*,*,#310,.T.);
#503=ORIENTED_EDGE('',*,*,#314,.T.);
#504=ORIENTED_EDGE('',*,*,#372,.T.);
#505=ORIENTED_EDGE('',*,*,#369,.F.);
#506=ORIENTED_EDGE('',*,*,#373,.F.);
#507=ORIENTED_EDGE('',*,*,#367,.F.);
#508=ORIENTED_EDGE('',*,*,#374,.T.);
#509=ORIENTED_EDGE('',*,*,#370,.F.);
#510=ORIENTED_EDGE('',*,*,#372,.F.);
#511=ORIENTED_EDGE('',*,*,#366,.F.);
#512=ORIENTED_EDGE('',*,*,#375,.T.);
#513=ORIENTED_EDGE('',*,*,#371,.F.);
#514=ORIENTED_EDGE('',*,*,#374,.F.);
#515=ORIENTED_EDGE('',*,*,#365,.F.);
#516=ORIENTED_EDGE('',*,*,#373,.T.);
#517=ORIENTED_EDGE('',*,*,#368,.F.);
#518=ORIENTED_EDGE('',*,*,#375,.F.);
#519=ORIENTED_EDGE('',*,*,#364,.F.);
#520=CYLINDRICAL_SURFACE('',#567,0.22);
#521=CYLINDRICAL_SURFACE('',#570,0.22);
#522=CYLINDRICAL_SURFACE('',#578,0.62);
#523=ADVANCED_FACE('',(#50),#520,.F.);
#524=ADVANCED_FACE('',(#51),#521,.F.);
#525=ADVANCED_FACE('',(#52),#23,.T.);
#526=ADVANCED_FACE('',(#53),#24,.T.);
#527=ADVANCED_FACE('',(#54),#25,.F.);
#528=ADVANCED_FACE('',(#55),#26,.T.);
#529=ADVANCED_FACE('',(#56),#27,.T.);
#530=ADVANCED_FACE('',(#57),#522,.F.);
#531=ADVANCED_FACE('',(#58),#28,.F.);
#532=ADVANCED_FACE('',(#59),#29,.T.);
#533=ADVANCED_FACE('',(#60),#30,.T.);
#534=ADVANCED_FACE('',(#61),#31,.F.);
#535=ADVANCED_FACE('',(#62),#32,.F.);
#536=ADVANCED_FACE('',(#63),#33,.F.);
#537=ADVANCED_FACE('',(#64),#34,.T.);
#538=ADVANCED_FACE('',(#65),#35,.F.);
#539=ADVANCED_FACE('',(#66),#36,.F.);
#540=ADVANCED_FACE('',(#67),#37,.F.);
#541=ADVANCED_FACE('',(#68),#38,.F.);
#542=ADVANCED_FACE('',(#69),#39,.T.);
#543=ADVANCED_FACE('',(#70),#40,.F.);
#544=ADVANCED_FACE('',(#71),#41,.F.);
#545=ADVANCED_FACE('',(#72),#42,.F.);
#546=ADVANCED_FACE('',(#73),#43,.F.);
#547=ADVANCED_FACE('',(#74,#15,#16,#17,#18,#19),#44,.T.);
#548=ADVANCED_FACE('',(#75,#20,#21,#22),#45,.F.);
#549=ADVANCED_FACE('',(#76),#46,.F.);
#550=ADVANCED_FACE('',(#77),#47,.F.);
#551=ADVANCED_FACE('',(#78),#48,.F.);
#552=ADVANCED_FACE('',(#79),#49,.F.);
#553=CLOSED_SHELL('',(#523,#524,#525,#526,#527,#528,#529,#530,#531,#532,
#533,#534,#535,#536,#537,#538,#539,#540,#541,#542,#543,#544,#545,#546,#547,
#548,#549,#550,#551,#552));
#554=DERIVED_UNIT_ELEMENT(#556,1.);
#555=DERIVED_UNIT_ELEMENT(#899,-3.);
#556=(
MASS_UNIT()
NAMED_UNIT(*)
SI_UNIT(.KILO.,.GRAM.)
);
#557=DERIVED_UNIT((#554,#555));
#558=MEASURE_REPRESENTATION_ITEM('density measure',
POSITIVE_RATIO_MEASURE(7850.),#557);
#559=PROPERTY_DEFINITION_REPRESENTATION(#564,#561);
#560=PROPERTY_DEFINITION_REPRESENTATION(#565,#562);
#561=REPRESENTATION('material name',(#563),#896);
#562=REPRESENTATION('density',(#558),#896);
#563=DESCRIPTIVE_REPRESENTATION_ITEM('Steel','Steel');
#564=PROPERTY_DEFINITION('material property','material name',#906);
#565=PROPERTY_DEFINITION('material property','density of part',#906);
#566=AXIS2_PLACEMENT_3D('',#743,#603,#604);
#567=AXIS2_PLACEMENT_3D('',#744,#605,#606);
#568=AXIS2_PLACEMENT_3D('',#746,#607,#608);
#569=AXIS2_PLACEMENT_3D('',#749,#610,#611);
#570=AXIS2_PLACEMENT_3D('',#750,#612,#613);
#571=AXIS2_PLACEMENT_3D('',#752,#614,#615);
#572=AXIS2_PLACEMENT_3D('',#755,#617,#618);
#573=AXIS2_PLACEMENT_3D('',#756,#619,#620);
#574=AXIS2_PLACEMENT_3D('',#765,#625,#626);
#575=AXIS2_PLACEMENT_3D('',#771,#630,#631);
#576=AXIS2_PLACEMENT_3D('',#775,#634,#635);
#577=AXIS2_PLACEMENT_3D('',#779,#638,#639);
#578=AXIS2_PLACEMENT_3D('',#781,#641,#642);
#579=AXIS2_PLACEMENT_3D('',#786,#644,#645);
#580=AXIS2_PLACEMENT_3D('',#789,#647,#648);
#581=AXIS2_PLACEMENT_3D('',#790,#649,#650);
#582=AXIS2_PLACEMENT_3D('',#800,#656,#657);
#583=AXIS2_PLACEMENT_3D('',#804,#660,#661);
#584=AXIS2_PLACEMENT_3D('',#808,#664,#665);
#585=AXIS2_PLACEMENT_3D('',#812,#668,#669);
#586=AXIS2_PLACEMENT_3D('',#816,#672,#673);
#587=AXIS2_PLACEMENT_3D('',#818,#675,#676);
#588=AXIS2_PLACEMENT_3D('',#827,#681,#682);
#589=AXIS2_PLACEMENT_3D('',#833,#686,#687);
#590=AXIS2_PLACEMENT_3D('',#837,#690,#691);
#591=AXIS2_PLACEMENT_3D('',#841,#694,#695);
#592=AXIS2_PLACEMENT_3D('',#843,#697,#698);
#593=AXIS2_PLACEMENT_3D('',#852,#703,#704);
#594=AXIS2_PLACEMENT_3D('',#858,#708,#709);
#595=AXIS2_PLACEMENT_3D('',#862,#712,#713);
#596=AXIS2_PLACEMENT_3D('',#866,#716,#717);
#597=AXIS2_PLACEMENT_3D('',#868,#719,#720);
#598=AXIS2_PLACEMENT_3D('',#877,#725,#726);
#599=AXIS2_PLACEMENT_3D('',#886,#731,#732);
#600=AXIS2_PLACEMENT_3D('',#889,#735,#736);
#601=AXIS2_PLACEMENT_3D('',#891,#738,#739);
#602=AXIS2_PLACEMENT_3D('',#893,#741,#742);
#603=DIRECTION('axis',(0.,0.,1.));
#604=DIRECTION('refdir',(1.,0.,0.));
#605=DIRECTION('center_axis',(0.,0.,1.));
#606=DIRECTION('ref_axis',(1.,0.,0.));
#607=DIRECTION('center_axis',(0.,0.,1.));
#608=DIRECTION('ref_axis',(1.,0.,0.));
#609=DIRECTION('',(0.,0.,1.));
#610=DIRECTION('center_axis',(0.,0.,-1.));
#611=DIRECTION('ref_axis',(1.,0.,0.));
#612=DIRECTION('center_axis',(0.,0.,1.));
#613=DIRECTION('ref_axis',(1.,0.,0.));
#614=DIRECTION('center_axis',(0.,0.,1.));
#615=DIRECTION('ref_axis',(1.,0.,0.));
#616=DIRECTION('',(0.,0.,1.));
#617=DIRECTION('center_axis',(0.,0.,-1.));
#618=DIRECTION('ref_axis',(1.,0.,0.));
#619=DIRECTION('center_axis',(0.,-1.,0.));
#620=DIRECTION('ref_axis',(0.,0.,-1.));
#621=DIRECTION('',(-1.,0.,0.));
#622=DIRECTION('',(0.,0.,-1.));
#623=DIRECTION('',(-1.,0.,0.));
#624=DIRECTION('',(0.,0.,-1.));
#625=DIRECTION('center_axis',(1.,0.,0.));
#626=DIRECTION('ref_axis',(0.,0.,-1.));
#627=DIRECTION('',(0.,-1.,0.));
#628=DIRECTION('',(0.,-1.,0.));
#629=DIRECTION('',(0.,0.,-1.));
#630=DIRECTION('center_axis',(0.,0.,1.));
#631=DIRECTION('ref_axis',(1.,0.,0.));
#632=DIRECTION('',(0.,1.,0.));
#633=DIRECTION('',(1.,0.,0.));
#634=DIRECTION('center_axis',(0.,1.,0.));
#635=DIRECTION('ref_axis',(0.,0.,1.));
#636=DIRECTION('',(1.,0.,0.));
#637=DIRECTION('',(0.,0.,-1.));
#638=DIRECTION('center_axis',(-1.,0.,0.));
#639=DIRECTION('ref_axis',(0.,0.,1.));
#640=DIRECTION('',(0.,1.,0.));
#641=DIRECTION('center_axis',(1.,0.,0.));
#642=DIRECTION('ref_axis',(0.,0.,-1.));
#643=DIRECTION('',(-1.,0.,0.));
#644=DIRECTION('center_axis',(-1.,0.,0.));
#645=DIRECTION('ref_axis',(0.,0.,-1.));
#646=DIRECTION('',(1.,0.,0.));
#647=DIRECTION('center_axis',(1.,0.,0.));
#648=DIRECTION('ref_axis',(0.,0.,-1.));
#649=DIRECTION('center_axis',(-1.,0.,0.));
#650=DIRECTION('ref_axis',(0.,0.,1.));
#651=DIRECTION('',(0.,1.,0.));
#652=DIRECTION('',(0.,0.,-1.));
#653=DIRECTION('',(0.,-1.,0.));
#654=DIRECTION('',(0.,0.,-1.));
#655=DIRECTION('',(0.,1.,0.));
#656=DIRECTION('center_axis',(0.,0.,1.));
#657=DIRECTION('ref_axis',(1.,0.,0.));
#658=DIRECTION('',(0.,-1.,0.));
#659=DIRECTION('',(1.,0.,0.));
#660=DIRECTION('center_axis',(0.,0.,1.));
#661=DIRECTION('ref_axis',(1.,0.,0.));
#662=DIRECTION('',(-1.,0.,0.));
#663=DIRECTION('',(0.,-1.,0.));
#664=DIRECTION('center_axis',(0.,1.,0.));
#665=DIRECTION('ref_axis',(0.,0.,1.));
#666=DIRECTION('',(0.,0.,-1.));
#667=DIRECTION('',(-1.,0.,0.));
#668=DIRECTION('center_axis',(1.,0.,0.));
#669=DIRECTION('ref_axis',(0.,0.,-1.));
#670=DIRECTION('',(0.,0.,-1.));
#671=DIRECTION('',(0.,1.,0.));
#672=DIRECTION('center_axis',(0.,-1.,0.));
#673=DIRECTION('ref_axis',(0.,0.,-1.));
#674=DIRECTION('',(1.,0.,0.));
#675=DIRECTION('center_axis',(0.,0.,1.));
#676=DIRECTION('ref_axis',(1.,0.,0.));
#677=DIRECTION('',(0.,1.,0.));
#678=DIRECTION('',(-1.,0.,0.));
#679=DIRECTION('',(0.,-1.,0.));
#680=DIRECTION('',(1.,0.,0.));
#681=DIRECTION('center_axis',(0.,1.,0.));
#682=DIRECTION('ref_axis',(0.,0.,1.));
#683=DIRECTION('',(0.,0.,-1.));
#684=DIRECTION('',(-1.,0.,0.));
#685=DIRECTION('',(0.,0.,-1.));
#686=DIRECTION('center_axis',(1.,0.,0.));
#687=DIRECTION('ref_axis',(0.,0.,-1.));
#688=DIRECTION('',(0.,0.,-1.));
#689=DIRECTION('',(0.,1.,0.));
#690=DIRECTION('center_axis',(0.,-1.,0.));
#691=DIRECTION('ref_axis',(0.,0.,-1.));
#692=DIRECTION('',(0.,0.,-1.));
#693=DIRECTION('',(1.,0.,0.));
#694=DIRECTION('center_axis',(-1.,0.,0.));
#695=DIRECTION('ref_axis',(0.,0.,1.));
#696=DIRECTION('',(0.,-1.,0.));
#697=DIRECTION('center_axis',(0.,0.,1.));
#698=DIRECTION('ref_axis',(1.,0.,0.));
#699=DIRECTION('',(0.,1.,0.));
#700=DIRECTION('',(-1.,0.,0.));
#701=DIRECTION('',(0.,-1.,0.));
#702=DIRECTION('',(1.,0.,0.));
#703=DIRECTION('center_axis',(0.,1.,0.));
#704=DIRECTION('ref_axis',(0.,0.,1.));
#705=DIRECTION('',(0.,0.,-1.));
#706=DIRECTION('',(-1.,0.,0.));
#707=DIRECTION('',(0.,0.,-1.));
#708=DIRECTION('center_axis',(1.,0.,0.));
#709=DIRECTION('ref_axis',(0.,0.,-1.));
#710=DIRECTION('',(0.,0.,-1.));
#711=DIRECTION('',(0.,1.,0.));
#712=DIRECTION('center_axis',(0.,-1.,0.));
#713=DIRECTION('ref_axis',(0.,0.,-1.));
#714=DIRECTION('',(0.,0.,-1.));
#715=DIRECTION('',(1.,0.,0.));
#716=DIRECTION('center_axis',(-1.,0.,0.));
#717=DIRECTION('ref_axis',(0.,0.,1.));
#718=DIRECTION('',(0.,-1.,0.));
#719=DIRECTION('center_axis',(0.,0.,1.));
#720=DIRECTION('ref_axis',(1.,0.,0.));
#721=DIRECTION('',(0.,1.,0.));
#722=DIRECTION('',(-1.,0.,0.));
#723=DIRECTION('',(0.,-1.,0.));
#724=DIRECTION('',(1.,0.,0.));
#725=DIRECTION('center_axis',(0.,0.,1.));
#726=DIRECTION('ref_axis',(1.,0.,0.));
#727=DIRECTION('',(0.,-1.,0.));
#728=DIRECTION('',(-1.,0.,0.));
#729=DIRECTION('',(0.,1.,0.));
#730=DIRECTION('',(1.,0.,0.));
#731=DIRECTION('center_axis',(0.,1.,0.));
#732=DIRECTION('ref_axis',(0.,0.,1.));
#733=DIRECTION('',(0.,0.,-1.));
#734=DIRECTION('',(0.,0.,-1.));
#735=DIRECTION('center_axis',(1.,0.,0.));
#736=DIRECTION('ref_axis',(0.,0.,-1.));
#737=DIRECTION('',(0.,0.,-1.));
#738=DIRECTION('center_axis',(0.,-1.,0.));
#739=DIRECTION('ref_axis',(0.,0.,-1.));
#740=DIRECTION('',(0.,0.,-1.));
#741=DIRECTION('center_axis',(-1.,0.,0.));
#742=DIRECTION('ref_axis',(0.,0.,1.));
#743=CARTESIAN_POINT('',(0.,0.,0.));
#744=CARTESIAN_POINT('Origin',(-8.5,0.,-2.95));
#745=CARTESIAN_POINT('',(-8.72,-2.69422295812418E-17,-4.285));
#746=CARTESIAN_POINT('Origin',(-8.5,0.,-4.285));
#747=CARTESIAN_POINT('',(-8.72,2.69422295812418E-17,-1.6));
#748=CARTESIAN_POINT('',(-8.72,-2.69422295812418E-17,-2.95));
#749=CARTESIAN_POINT('Origin',(-8.5,0.,-1.6));
#750=CARTESIAN_POINT('Origin',(-24.5,0.,-2.95));
#751=CARTESIAN_POINT('',(-24.72,-2.69422295812418E-17,-4.285));
#752=CARTESIAN_POINT('Origin',(-24.5,0.,-4.285));
#753=CARTESIAN_POINT('',(-24.72,2.69422295812418E-17,-1.6));
#754=CARTESIAN_POINT('',(-24.72,-2.69422295812418E-17,-2.95));
#755=CARTESIAN_POINT('Origin',(-24.5,0.,-1.6));
#756=CARTESIAN_POINT('Origin',(-21.3,0.5,-3.2));
#757=CARTESIAN_POINT('',(-19.8,0.5,-4.285));
#758=CARTESIAN_POINT('',(-22.8,0.5,-4.285));
#759=CARTESIAN_POINT('',(-18.9,0.5,-4.285));
#760=CARTESIAN_POINT('',(-19.8,0.5,-2.));
#761=CARTESIAN_POINT('',(-19.8,0.5,-3.2));
#762=CARTESIAN_POINT('',(-22.8,0.5,-2.));
#763=CARTESIAN_POINT('',(-21.3,0.5,-2.));
#764=CARTESIAN_POINT('',(-22.8,0.5,-3.2));
#765=CARTESIAN_POINT('Origin',(-22.8,0.,-3.2));
#766=CARTESIAN_POINT('',(-22.8,-0.5,-4.285));
#767=CARTESIAN_POINT('',(-22.8,0.,-4.285));
#768=CARTESIAN_POINT('',(-22.8,-0.5,-2.));
#769=CARTESIAN_POINT('',(-22.8,0.,-2.));
#770=CARTESIAN_POINT('',(-22.8,-0.5,-3.2));
#771=CARTESIAN_POINT('Origin',(-21.3,0.,-2.));
#772=CARTESIAN_POINT('',(-19.8,-0.5,-2.));
#773=CARTESIAN_POINT('',(-19.8,0.,-2.));
#774=CARTESIAN_POINT('',(-21.3,-0.5,-2.));
#775=CARTESIAN_POINT('Origin',(-21.3,-0.5,-3.2));
#776=CARTESIAN_POINT('',(-19.8,-0.5,-4.285));
#777=CARTESIAN_POINT('',(-18.9,-0.5,-4.285));
#778=CARTESIAN_POINT('',(-19.8,-0.5,-3.2));
#779=CARTESIAN_POINT('Origin',(-19.8,0.,-3.2));
#780=CARTESIAN_POINT('',(-19.8,0.,-4.285));
#781=CARTESIAN_POINT('Origin',(-10.25,0.,0.));
#782=CARTESIAN_POINT('',(-8.94,-0.62,0.));
#783=CARTESIAN_POINT('',(-11.99,-0.62,0.));
#784=CARTESIAN_POINT('',(-10.25,-0.62,0.));
#785=CARTESIAN_POINT('',(-8.94,0.62,0.));
#786=CARTESIAN_POINT('Origin',(-8.94,0.,0.));
#787=CARTESIAN_POINT('',(-11.99,0.62,0.));
#788=CARTESIAN_POINT('',(-10.25,0.62,0.));
#789=CARTESIAN_POINT('Origin',(-11.99,0.,0.));
#790=CARTESIAN_POINT('Origin',(-8.94,0.,-0.8));
#791=CARTESIAN_POINT('',(-8.94,-1.2,0.));
#792=CARTESIAN_POINT('',(-8.94,0.,0.));
#793=CARTESIAN_POINT('',(-8.94,-1.2,-1.6));
#794=CARTESIAN_POINT('',(-8.94,-1.2,-0.8));
#795=CARTESIAN_POINT('',(-8.94,1.2,-1.6));
#796=CARTESIAN_POINT('',(-8.94,0.,-1.6));
#797=CARTESIAN_POINT('',(-8.94,1.2,0.));
#798=CARTESIAN_POINT('',(-8.94,1.2,-0.8));
#799=CARTESIAN_POINT('',(-8.94,0.,0.));
#800=CARTESIAN_POINT('Origin',(-10.465,0.,0.));
#801=CARTESIAN_POINT('',(-11.99,-1.2,0.));
#802=CARTESIAN_POINT('',(-11.99,0.,0.));
#803=CARTESIAN_POINT('',(-10.465,-1.2,0.));
#804=CARTESIAN_POINT('Origin',(-10.465,0.,0.));
#805=CARTESIAN_POINT('',(-11.99,1.2,0.));
#806=CARTESIAN_POINT('',(-10.465,1.2,0.));
#807=CARTESIAN_POINT('',(-11.99,0.,0.));
#808=CARTESIAN_POINT('Origin',(-10.465,-1.2,-0.8));
#809=CARTESIAN_POINT('',(-11.99,-1.2,-1.6));
#810=CARTESIAN_POINT('',(-11.99,-1.2,-0.8));
#811=CARTESIAN_POINT('',(-13.4825,-1.2,-1.6));
#812=CARTESIAN_POINT('Origin',(-11.99,0.,-0.8));
#813=CARTESIAN_POINT('',(-11.99,1.2,-1.6));
#814=CARTESIAN_POINT('',(-11.99,1.2,-0.8));
#815=CARTESIAN_POINT('',(-11.99,0.,-1.6));
#816=CARTESIAN_POINT('Origin',(-10.465,1.2,-0.8));
#817=CARTESIAN_POINT('',(-13.4825,1.2,-1.6));
#818=CARTESIAN_POINT('Origin',(-18.,-1.52,-0.2));
#819=CARTESIAN_POINT('',(-11.5,-1.72,-0.2));
#820=CARTESIAN_POINT('',(-11.5,-1.32,-0.2));
#821=CARTESIAN_POINT('',(-11.5,-1.52,-0.2));
#822=CARTESIAN_POINT('',(-24.5,-1.32,-0.2));
#823=CARTESIAN_POINT('',(-18.,-1.32,-0.2));
#824=CARTESIAN_POINT('',(-24.5,-1.72,-0.2));
#825=CARTESIAN_POINT('',(-24.5,-1.52,-0.2));
#826=CARTESIAN_POINT('',(-18.,-1.72,-0.2));
#827=CARTESIAN_POINT('Origin',(-18.,-1.72,-0.9));
#828=CARTESIAN_POINT('',(-24.5,-1.72,-1.6));
#829=CARTESIAN_POINT('',(-24.5,-1.72,-0.9));
#830=CARTESIAN_POINT('',(-11.5,-1.72,-1.6));
#831=CARTESIAN_POINT('',(-17.25,-1.72,-1.6));
#832=CARTESIAN_POINT('',(-11.5,-1.72,-0.9));
#833=CARTESIAN_POINT('Origin',(-24.5,-1.52,-0.9));
#834=CARTESIAN_POINT('',(-24.5,-1.32,-1.6));
#835=CARTESIAN_POINT('',(-24.5,-1.32,-0.9));
#836=CARTESIAN_POINT('',(-24.5,-0.76,-1.6));
#837=CARTESIAN_POINT('Origin',(-18.,-1.32,-0.9));
#838=CARTESIAN_POINT('',(-11.5,-1.32,-1.6));
#839=CARTESIAN_POINT('',(-11.5,-1.32,-0.9));
#840=CARTESIAN_POINT('',(-17.25,-1.32,-1.6));
#841=CARTESIAN_POINT('Origin',(-11.5,-1.52,-0.9));
#842=CARTESIAN_POINT('',(-11.5,-0.76,-1.6));
#843=CARTESIAN_POINT('Origin',(-18.,1.52,-0.2));
#844=CARTESIAN_POINT('',(-11.5,1.32,-0.2));
#845=CARTESIAN_POINT('',(-11.5,1.72,-0.2));
#846=CARTESIAN_POINT('',(-11.5,1.52,-0.2));
#847=CARTESIAN_POINT('',(-24.5,1.72,-0.2));
#848=CARTESIAN_POINT('',(-18.,1.72,-0.2));
#849=CARTESIAN_POINT('',(-24.5,1.32,-0.2));
#850=CARTESIAN_POINT('',(-24.5,1.52,-0.2));
#851=CARTESIAN_POINT('',(-18.,1.32,-0.2));
#852=CARTESIAN_POINT('Origin',(-18.,1.32,-0.9));
#853=CARTESIAN_POINT('',(-24.5,1.32,-1.6));
#854=CARTESIAN_POINT('',(-24.5,1.32,-0.9));
#855=CARTESIAN_POINT('',(-11.5,1.32,-1.6));
#856=CARTESIAN_POINT('',(-17.25,1.32,-1.6));
#857=CARTESIAN_POINT('',(-11.5,1.32,-0.9));
#858=CARTESIAN_POINT('Origin',(-24.5,1.52,-0.9));
#859=CARTESIAN_POINT('',(-24.5,1.72,-1.6));
#860=CARTESIAN_POINT('',(-24.5,1.72,-0.9));
#861=CARTESIAN_POINT('',(-24.5,0.76,-1.6));
#862=CARTESIAN_POINT('Origin',(-18.,1.72,-0.9));
#863=CARTESIAN_POINT('',(-11.5,1.72,-1.6));
#864=CARTESIAN_POINT('',(-11.5,1.72,-0.9));
#865=CARTESIAN_POINT('',(-17.25,1.72,-1.6));
#866=CARTESIAN_POINT('Origin',(-11.5,1.52,-0.9));
#867=CARTESIAN_POINT('',(-11.5,0.76,-1.6));
#868=CARTESIAN_POINT('Origin',(-16.5,0.,-1.6));
#869=CARTESIAN_POINT('',(-8.,-1.8,-1.6));
#870=CARTESIAN_POINT('',(-8.,1.8,-1.6));
#871=CARTESIAN_POINT('',(-8.,0.,-1.6));
#872=CARTESIAN_POINT('',(-25.,1.8,-1.6));
#873=CARTESIAN_POINT('',(-16.5,1.8,-1.6));
#874=CARTESIAN_POINT('',(-25.,-1.8,-1.6));
#875=CARTESIAN_POINT('',(-25.,0.,-1.6));
#876=CARTESIAN_POINT('',(-16.5,-1.8,-1.6));
#877=CARTESIAN_POINT('Origin',(-16.5,0.,-4.285));
#878=CARTESIAN_POINT('',(-8.,1.8,-4.285));
#879=CARTESIAN_POINT('',(-8.,-1.8,-4.285));
#880=CARTESIAN_POINT('',(-8.,0.,-4.285));
#881=CARTESIAN_POINT('',(-25.,-1.8,-4.285));
#882=CARTESIAN_POINT('',(-16.5,-1.8,-4.285));
#883=CARTESIAN_POINT('',(-25.,1.8,-4.285));
#884=CARTESIAN_POINT('',(-25.,0.,-4.285));
#885=CARTESIAN_POINT('',(-16.5,1.8,-4.285));
#886=CARTESIAN_POINT('Origin',(-16.5,-1.8,-2.9425));
#887=CARTESIAN_POINT('',(-25.,-1.8,-2.9425));
#888=CARTESIAN_POINT('',(-8.,-1.8,-2.9425));
#889=CARTESIAN_POINT('Origin',(-25.,0.,-2.9425));
#890=CARTESIAN_POINT('',(-25.,1.8,-2.9425));
#891=CARTESIAN_POINT('Origin',(-16.5,1.8,-2.9425));
#892=CARTESIAN_POINT('',(-8.,1.8,-2.9425));
#893=CARTESIAN_POINT('Origin',(-8.,0.,-2.9425));
#894=UNCERTAINTY_MEASURE_WITH_UNIT(LENGTH_MEASURE(0.001),#898,
'DISTANCE_ACCURACY_VALUE',
'Maximum model space distance between geometric entities at asserted c
onnectivities');
#895=UNCERTAINTY_MEASURE_WITH_UNIT(LENGTH_MEASURE(0.001),#898,
'DISTANCE_ACCURACY_VALUE',
'Maximum model space distance between geometric entities at asserted c
onnectivities');
#896=(
GEOMETRIC_REPRESENTATION_CONTEXT(3)
GLOBAL_UNCERTAINTY_ASSIGNED_CONTEXT((#894))
GLOBAL_UNIT_ASSIGNED_CONTEXT((#898,#900,#901))
REPRESENTATION_CONTEXT('','3D')
);
#897=(
GEOMETRIC_REPRESENTATION_CONTEXT(3)
GLOBAL_UNCERTAINTY_ASSIGNED_CONTEXT((#895))
GLOBAL_UNIT_ASSIGNED_CONTEXT((#898,#900,#901))
REPRESENTATION_CONTEXT('','3D')
);
#898=(
LENGTH_UNIT()
NAMED_UNIT(*)
SI_UNIT(.CENTI.,.METRE.)
);
#899=(
LENGTH_UNIT()
NAMED_UNIT(*)
SI_UNIT($,.METRE.)
);
#900=(
NAMED_UNIT(*)
PLANE_ANGLE_UNIT()
SI_UNIT($,.RADIAN.)
);
#901=(
NAMED_UNIT(*)
SI_UNIT($,.STERADIAN.)
SOLID_ANGLE_UNIT()
);
#902=SHAPE_DEFINITION_REPRESENTATION(#903,#904);
#903=PRODUCT_DEFINITION_SHAPE('',$,#906);
#904=SHAPE_REPRESENTATION('',(#566),#896);
#905=PRODUCT_DEFINITION_CONTEXT('part definition',#910,'design');
#906=PRODUCT_DEFINITION('70_Print_Engine','70_Print_Engine',#907,#905);
#907=PRODUCT_DEFINITION_FORMATION('',$,#912);
#908=PRODUCT_RELATED_PRODUCT_CATEGORY('70_Print_Engine',
'70_Print_Engine',(#912));
#909=APPLICATION_PROTOCOL_DEFINITION('international standard',
'automotive_design',2009,#910);
#910=APPLICATION_CONTEXT(
'Core Data for Automotive Mechanical Design Process');
#911=PRODUCT_CONTEXT('part definition',#910,'mechanical');
#912=PRODUCT('70_Print_Engine','70_Print_Engine',$,(#911));
#913=PRESENTATION_STYLE_ASSIGNMENT((#914));
#914=SURFACE_STYLE_USAGE(.BOTH.,#915);
#915=SURFACE_SIDE_STYLE('',(#916));
#916=SURFACE_STYLE_FILL_AREA(#917);
#917=FILL_AREA_STYLE('Steel - Satin',(#918));
#918=FILL_AREA_STYLE_COLOUR('Steel - Satin',#919);
#919=COLOUR_RGB('Steel - Satin',0.627450980392157,0.627450980392157,0.627450980392157);
ENDSEC;
END-ISO-10303-21;
