ISO-10303-21;
HEADER;
/* Generated by software containing ST-Developer
 * from STEP Tools, Inc. (www.steptools.com) 
 */

FILE_DESCRIPTION(
/* description */ (''),
/* implementation_level */ '2;1');

FILE_NAME(
/* name */ 'Side_R2_native.stp',
/* time_stamp */ '2026-09-13T15:34:36-05:00',
/* author */ (''),
/* organization */ (''),
/* preprocessor_version */ 'ST-DEVELOPER v20.1',
/* originating_system */ 'Autodesk Translation Framework v15.8.0.0',
/* authorisation */ '');

FILE_SCHEMA (('AUTOMOTIVE_DESIGN { 1 0 10303 214 3 1 1 }'));
ENDSEC;

DATA;
#10=MECHANICAL_DESIGN_GEOMETRIC_PRESENTATION_REPRESENTATION('',(#13),#2458);
#11=SHAPE_REPRESENTATION_RELATIONSHIP('SRR','None',#2465,#12);
#12=ADVANCED_BREP_SHAPE_REPRESENTATION('',(#14),#2457);
#13=STYLED_ITEM('',(#2474),#14);
#14=MANIFOLD_SOLID_BREP('Side_R2_native',#1478);
#15=CONICAL_SURFACE('',#1577,0.3075,0.773904416682416);
#16=CONICAL_SURFACE('',#1581,0.685,0.995724037062506);
#17=FACE_BOUND('',#211,.T.);
#18=FACE_BOUND('',#212,.T.);
#19=FACE_BOUND('',#213,.T.);
#20=FACE_BOUND('',#214,.T.);
#21=FACE_BOUND('',#215,.T.);
#22=FACE_BOUND('',#216,.T.);
#23=FACE_BOUND('',#217,.T.);
#24=FACE_BOUND('',#218,.T.);
#25=FACE_BOUND('',#219,.T.);
#26=FACE_BOUND('',#220,.T.);
#27=FACE_BOUND('',#221,.T.);
#28=FACE_BOUND('',#222,.T.);
#29=FACE_BOUND('',#223,.T.);
#30=FACE_BOUND('',#224,.T.);
#31=FACE_BOUND('',#225,.T.);
#32=FACE_BOUND('',#232,.T.);
#33=FACE_BOUND('',#235,.T.);
#34=FACE_BOUND('',#238,.T.);
#35=FACE_BOUND('',#241,.T.);
#36=FACE_BOUND('',#244,.T.);
#37=FACE_BOUND('',#247,.T.);
#38=FACE_BOUND('',#294,.T.);
#39=FACE_BOUND('',#295,.T.);
#40=FACE_BOUND('',#296,.T.);
#41=FACE_BOUND('',#297,.T.);
#42=FACE_BOUND('',#298,.T.);
#43=FACE_BOUND('',#299,.T.);
#44=FACE_BOUND('',#300,.T.);
#45=PLANE('',#1495);
#46=PLANE('',#1499);
#47=PLANE('',#1503);
#48=PLANE('',#1507);
#49=PLANE('',#1511);
#50=PLANE('',#1515);
#51=PLANE('',#1519);
#52=PLANE('',#1523);
#53=PLANE('',#1527);
#54=PLANE('',#1538);
#55=PLANE('',#1556);
#56=PLANE('',#1560);
#57=PLANE('',#1564);
#58=PLANE('',#1568);
#59=PLANE('',#1572);
#60=PLANE('',#1576);
#61=PLANE('',#1580);
#62=PLANE('',#1582);
#63=PLANE('',#1583);
#64=PLANE('',#1584);
#65=PLANE('',#1585);
#66=PLANE('',#1586);
#67=PLANE('',#1587);
#68=PLANE('',#1588);
#69=PLANE('',#1589);
#70=PLANE('',#1590);
#71=PLANE('',#1591);
#72=PLANE('',#1592);
#73=PLANE('',#1593);
#74=PLANE('',#1594);
#75=PLANE('',#1595);
#76=PLANE('',#1596);
#77=PLANE('',#1597);
#78=PLANE('',#1598);
#79=PLANE('',#1599);
#80=PLANE('',#1600);
#81=PLANE('',#1601);
#82=PLANE('',#1602);
#83=PLANE('',#1603);
#84=PLANE('',#1604);
#85=PLANE('',#1605);
#86=PLANE('',#1606);
#87=PLANE('',#1607);
#88=PLANE('',#1608);
#89=PLANE('',#1609);
#90=PLANE('',#1610);
#91=PLANE('',#1611);
#92=PLANE('',#1612);
#93=PLANE('',#1613);
#94=PLANE('',#1614);
#95=PLANE('',#1615);
#96=PLANE('',#1616);
#97=PLANE('',#1617);
#98=PLANE('',#1618);
#99=PLANE('',#1619);
#100=PLANE('',#1620);
#101=PLANE('',#1621);
#102=PLANE('',#1622);
#103=PLANE('',#1623);
#104=PLANE('',#1624);
#105=FACE_OUTER_BOUND('',#189,.T.);
#106=FACE_OUTER_BOUND('',#190,.T.);
#107=FACE_OUTER_BOUND('',#191,.T.);
#108=FACE_OUTER_BOUND('',#192,.T.);
#109=FACE_OUTER_BOUND('',#193,.T.);
#110=FACE_OUTER_BOUND('',#194,.T.);
#111=FACE_OUTER_BOUND('',#195,.T.);
#112=FACE_OUTER_BOUND('',#196,.T.);
#113=FACE_OUTER_BOUND('',#197,.T.);
#114=FACE_OUTER_BOUND('',#198,.T.);
#115=FACE_OUTER_BOUND('',#199,.T.);
#116=FACE_OUTER_BOUND('',#200,.T.);
#117=FACE_OUTER_BOUND('',#201,.T.);
#118=FACE_OUTER_BOUND('',#202,.T.);
#119=FACE_OUTER_BOUND('',#203,.T.);
#120=FACE_OUTER_BOUND('',#204,.T.);
#121=FACE_OUTER_BOUND('',#205,.T.);
#122=FACE_OUTER_BOUND('',#206,.T.);
#123=FACE_OUTER_BOUND('',#207,.T.);
#124=FACE_OUTER_BOUND('',#208,.T.);
#125=FACE_OUTER_BOUND('',#209,.T.);
#126=FACE_OUTER_BOUND('',#210,.T.);
#127=FACE_OUTER_BOUND('',#226,.T.);
#128=FACE_OUTER_BOUND('',#227,.T.);
#129=FACE_OUTER_BOUND('',#228,.T.);
#130=FACE_OUTER_BOUND('',#229,.T.);
#131=FACE_OUTER_BOUND('',#230,.T.);
#132=FACE_OUTER_BOUND('',#231,.T.);
#133=FACE_OUTER_BOUND('',#233,.T.);
#134=FACE_OUTER_BOUND('',#234,.T.);
#135=FACE_OUTER_BOUND('',#236,.T.);
#136=FACE_OUTER_BOUND('',#237,.T.);
#137=FACE_OUTER_BOUND('',#239,.T.);
#138=FACE_OUTER_BOUND('',#240,.T.);
#139=FACE_OUTER_BOUND('',#242,.T.);
#140=FACE_OUTER_BOUND('',#243,.T.);
#141=FACE_OUTER_BOUND('',#245,.T.);
#142=FACE_OUTER_BOUND('',#246,.T.);
#143=FACE_OUTER_BOUND('',#248,.T.);
#144=FACE_OUTER_BOUND('',#249,.T.);
#145=FACE_OUTER_BOUND('',#250,.T.);
#146=FACE_OUTER_BOUND('',#251,.T.);
#147=FACE_OUTER_BOUND('',#252,.T.);
#148=FACE_OUTER_BOUND('',#253,.T.);
#149=FACE_OUTER_BOUND('',#254,.T.);
#150=FACE_OUTER_BOUND('',#255,.T.);
#151=FACE_OUTER_BOUND('',#256,.T.);
#152=FACE_OUTER_BOUND('',#257,.T.);
#153=FACE_OUTER_BOUND('',#258,.T.);
#154=FACE_OUTER_BOUND('',#259,.T.);
#155=FACE_OUTER_BOUND('',#260,.T.);
#156=FACE_OUTER_BOUND('',#261,.T.);
#157=FACE_OUTER_BOUND('',#262,.T.);
#158=FACE_OUTER_BOUND('',#263,.T.);
#159=FACE_OUTER_BOUND('',#264,.T.);
#160=FACE_OUTER_BOUND('',#265,.T.);
#161=FACE_OUTER_BOUND('',#266,.T.);
#162=FACE_OUTER_BOUND('',#267,.T.);
#163=FACE_OUTER_BOUND('',#268,.T.);
#164=FACE_OUTER_BOUND('',#269,.T.);
#165=FACE_OUTER_BOUND('',#270,.T.);
#166=FACE_OUTER_BOUND('',#271,.T.);
#167=FACE_OUTER_BOUND('',#272,.T.);
#168=FACE_OUTER_BOUND('',#273,.T.);
#169=FACE_OUTER_BOUND('',#274,.T.);
#170=FACE_OUTER_BOUND('',#275,.T.);
#171=FACE_OUTER_BOUND('',#276,.T.);
#172=FACE_OUTER_BOUND('',#277,.T.);
#173=FACE_OUTER_BOUND('',#278,.T.);
#174=FACE_OUTER_BOUND('',#279,.T.);
#175=FACE_OUTER_BOUND('',#280,.T.);
#176=FACE_OUTER_BOUND('',#281,.T.);
#177=FACE_OUTER_BOUND('',#282,.T.);
#178=FACE_OUTER_BOUND('',#283,.T.);
#179=FACE_OUTER_BOUND('',#284,.T.);
#180=FACE_OUTER_BOUND('',#285,.T.);
#181=FACE_OUTER_BOUND('',#286,.T.);
#182=FACE_OUTER_BOUND('',#287,.T.);
#183=FACE_OUTER_BOUND('',#288,.T.);
#184=FACE_OUTER_BOUND('',#289,.T.);
#185=FACE_OUTER_BOUND('',#290,.T.);
#186=FACE_OUTER_BOUND('',#291,.T.);
#187=FACE_OUTER_BOUND('',#292,.T.);
#188=FACE_OUTER_BOUND('',#293,.T.);
#189=EDGE_LOOP('',(#976,#977,#978,#979));
#190=EDGE_LOOP('',(#980));
#191=EDGE_LOOP('',(#981,#982,#983,#984));
#192=EDGE_LOOP('',(#985));
#193=EDGE_LOOP('',(#986,#987,#988,#989));
#194=EDGE_LOOP('',(#990));
#195=EDGE_LOOP('',(#991,#992,#993,#994));
#196=EDGE_LOOP('',(#995));
#197=EDGE_LOOP('',(#996,#997,#998,#999));
#198=EDGE_LOOP('',(#1000));
#199=EDGE_LOOP('',(#1001,#1002,#1003,#1004));
#200=EDGE_LOOP('',(#1005));
#201=EDGE_LOOP('',(#1006,#1007,#1008,#1009));
#202=EDGE_LOOP('',(#1010));
#203=EDGE_LOOP('',(#1011,#1012,#1013,#1014));
#204=EDGE_LOOP('',(#1015));
#205=EDGE_LOOP('',(#1016,#1017,#1018,#1019));
#206=EDGE_LOOP('',(#1020));
#207=EDGE_LOOP('',(#1021,#1022,#1023,#1024));
#208=EDGE_LOOP('',(#1025,#1026,#1027,#1028));
#209=EDGE_LOOP('',(#1029,#1030,#1031,#1032,#1033));
#210=EDGE_LOOP('',(#1034,#1035,#1036,#1037,#1038,#1039,#1040,#1041,#1042,
#1043,#1044,#1045,#1046,#1047,#1048,#1049,#1050,#1051,#1052,#1053,#1054,
#1055,#1056,#1057,#1058,#1059,#1060,#1061,#1062,#1063,#1064,#1065,#1066,
#1067));
#211=EDGE_LOOP('',(#1068));
#212=EDGE_LOOP('',(#1069));
#213=EDGE_LOOP('',(#1070));
#214=EDGE_LOOP('',(#1071));
#215=EDGE_LOOP('',(#1072));
#216=EDGE_LOOP('',(#1073));
#217=EDGE_LOOP('',(#1074));
#218=EDGE_LOOP('',(#1075));
#219=EDGE_LOOP('',(#1076));
#220=EDGE_LOOP('',(#1077));
#221=EDGE_LOOP('',(#1078));
#222=EDGE_LOOP('',(#1079));
#223=EDGE_LOOP('',(#1080));
#224=EDGE_LOOP('',(#1081));
#225=EDGE_LOOP('',(#1082));
#226=EDGE_LOOP('',(#1083,#1084,#1085,#1086));
#227=EDGE_LOOP('',(#1087,#1088,#1089,#1090,#1091));
#228=EDGE_LOOP('',(#1092,#1093,#1094,#1095));
#229=EDGE_LOOP('',(#1096,#1097,#1098,#1099));
#230=EDGE_LOOP('',(#1100,#1101,#1102,#1103));
#231=EDGE_LOOP('',(#1104));
#232=EDGE_LOOP('',(#1105));
#233=EDGE_LOOP('',(#1106,#1107,#1108,#1109));
#234=EDGE_LOOP('',(#1110));
#235=EDGE_LOOP('',(#1111));
#236=EDGE_LOOP('',(#1112,#1113,#1114,#1115));
#237=EDGE_LOOP('',(#1116));
#238=EDGE_LOOP('',(#1117));
#239=EDGE_LOOP('',(#1118,#1119,#1120,#1121));
#240=EDGE_LOOP('',(#1122));
#241=EDGE_LOOP('',(#1123));
#242=EDGE_LOOP('',(#1124,#1125,#1126,#1127));
#243=EDGE_LOOP('',(#1128));
#244=EDGE_LOOP('',(#1129));
#245=EDGE_LOOP('',(#1130,#1131,#1132,#1133));
#246=EDGE_LOOP('',(#1134));
#247=EDGE_LOOP('',(#1135));
#248=EDGE_LOOP('',(#1136,#1137,#1138,#1139));
#249=EDGE_LOOP('',(#1140));
#250=EDGE_LOOP('',(#1141,#1142,#1143,#1144));
#251=EDGE_LOOP('',(#1145,#1146,#1147,#1148));
#252=EDGE_LOOP('',(#1149,#1150,#1151,#1152));
#253=EDGE_LOOP('',(#1153,#1154,#1155,#1156));
#254=EDGE_LOOP('',(#1157,#1158,#1159,#1160,#1161,#1162));
#255=EDGE_LOOP('',(#1163,#1164,#1165,#1166));
#256=EDGE_LOOP('',(#1167,#1168,#1169,#1170));
#257=EDGE_LOOP('',(#1171,#1172,#1173,#1174,#1175,#1176,#1177,#1178));
#258=EDGE_LOOP('',(#1179,#1180,#1181,#1182,#1183,#1184));
#259=EDGE_LOOP('',(#1185,#1186,#1187,#1188,#1189,#1190));
#260=EDGE_LOOP('',(#1191,#1192,#1193,#1194));
#261=EDGE_LOOP('',(#1195,#1196,#1197,#1198));
#262=EDGE_LOOP('',(#1199,#1200,#1201,#1202));
#263=EDGE_LOOP('',(#1203,#1204,#1205,#1206,#1207,#1208,#1209));
#264=EDGE_LOOP('',(#1210,#1211,#1212,#1213,#1214));
#265=EDGE_LOOP('',(#1215,#1216,#1217,#1218,#1219,#1220));
#266=EDGE_LOOP('',(#1221,#1222,#1223,#1224));
#267=EDGE_LOOP('',(#1225,#1226,#1227,#1228));
#268=EDGE_LOOP('',(#1229,#1230,#1231,#1232,#1233,#1234,#1235,#1236));
#269=EDGE_LOOP('',(#1237,#1238,#1239,#1240));
#270=EDGE_LOOP('',(#1241,#1242,#1243,#1244));
#271=EDGE_LOOP('',(#1245,#1246,#1247,#1248));
#272=EDGE_LOOP('',(#1249,#1250,#1251,#1252));
#273=EDGE_LOOP('',(#1253,#1254,#1255,#1256));
#274=EDGE_LOOP('',(#1257,#1258,#1259,#1260));
#275=EDGE_LOOP('',(#1261,#1262,#1263,#1264));
#276=EDGE_LOOP('',(#1265,#1266,#1267,#1268));
#277=EDGE_LOOP('',(#1269,#1270,#1271,#1272));
#278=EDGE_LOOP('',(#1273,#1274,#1275,#1276));
#279=EDGE_LOOP('',(#1277,#1278,#1279,#1280));
#280=EDGE_LOOP('',(#1281,#1282,#1283,#1284));
#281=EDGE_LOOP('',(#1285,#1286,#1287,#1288));
#282=EDGE_LOOP('',(#1289,#1290,#1291,#1292));
#283=EDGE_LOOP('',(#1293,#1294,#1295,#1296));
#284=EDGE_LOOP('',(#1297,#1298,#1299,#1300));
#285=EDGE_LOOP('',(#1301,#1302,#1303,#1304));
#286=EDGE_LOOP('',(#1305,#1306,#1307,#1308));
#287=EDGE_LOOP('',(#1309,#1310,#1311,#1312));
#288=EDGE_LOOP('',(#1313,#1314,#1315,#1316));
#289=EDGE_LOOP('',(#1317,#1318,#1319,#1320,#1321,#1322));
#290=EDGE_LOOP('',(#1323,#1324,#1325,#1326,#1327,#1328));
#291=EDGE_LOOP('',(#1329,#1330,#1331,#1332));
#292=EDGE_LOOP('',(#1333,#1334,#1335,#1336,#1337,#1338,#1339,#1340));
#293=EDGE_LOOP('',(#1341,#1342,#1343,#1344,#1345,#1346,#1347,#1348,#1349,
#1350,#1351,#1352,#1353,#1354,#1355,#1356,#1357,#1358,#1359,#1360,#1361,
#1362,#1363,#1364));
#294=EDGE_LOOP('',(#1365));
#295=EDGE_LOOP('',(#1366));
#296=EDGE_LOOP('',(#1367));
#297=EDGE_LOOP('',(#1368));
#298=EDGE_LOOP('',(#1369));
#299=EDGE_LOOP('',(#1370));
#300=EDGE_LOOP('',(#1371));
#301=LINE('',#2047,#450);
#302=LINE('',#2054,#451);
#303=LINE('',#2061,#452);
#304=LINE('',#2068,#453);
#305=LINE('',#2075,#454);
#306=LINE('',#2082,#455);
#307=LINE('',#2089,#456);
#308=LINE('',#2096,#457);
#309=LINE('',#2103,#458);
#310=LINE('',#2110,#459);
#311=LINE('',#2116,#460);
#312=LINE('',#2122,#461);
#313=LINE('',#2129,#462);
#314=LINE('',#2131,#463);
#315=LINE('',#2133,#464);
#316=LINE('',#2135,#465);
#317=LINE('',#2137,#466);
#318=LINE('',#2139,#467);
#319=LINE('',#2141,#468);
#320=LINE('',#2145,#469);
#321=LINE('',#2147,#470);
#322=LINE('',#2149,#471);
#323=LINE('',#2151,#472);
#324=LINE('',#2153,#473);
#325=LINE('',#2155,#474);
#326=LINE('',#2157,#475);
#327=LINE('',#2159,#476);
#328=LINE('',#2161,#477);
#329=LINE('',#2163,#478);
#330=LINE('',#2165,#479);
#331=LINE('',#2167,#480);
#332=LINE('',#2169,#481);
#333=LINE('',#2171,#482);
#334=LINE('',#2173,#483);
#335=LINE('',#2175,#484);
#336=LINE('',#2177,#485);
#337=LINE('',#2179,#486);
#338=LINE('',#2181,#487);
#339=LINE('',#2183,#488);
#340=LINE('',#2185,#489);
#341=LINE('',#2187,#490);
#342=LINE('',#2188,#491);
#343=LINE('',#2200,#492);
#344=LINE('',#2204,#493);
#345=LINE('',#2208,#494);
#346=LINE('',#2212,#495);
#347=LINE('',#2217,#496);
#348=LINE('',#2224,#497);
#349=LINE('',#2231,#498);
#350=LINE('',#2238,#499);
#351=LINE('',#2245,#500);
#352=LINE('',#2252,#501);
#353=LINE('',#2259,#502);
#354=LINE('',#2263,#503);
#355=LINE('',#2267,#504);
#356=LINE('',#2269,#505);
#357=LINE('',#2271,#506);
#358=LINE('',#2272,#507);
#359=LINE('',#2276,#508);
#360=LINE('',#2277,#509);
#361=LINE('',#2278,#510);
#362=LINE('',#2281,#511);
#363=LINE('',#2282,#512);
#364=LINE('',#2286,#513);
#365=LINE('',#2288,#514);
#366=LINE('',#2290,#515);
#367=LINE('',#2292,#516);
#368=LINE('',#2294,#517);
#369=LINE('',#2295,#518);
#370=LINE('',#2299,#519);
#371=LINE('',#2300,#520);
#372=LINE('',#2301,#521);
#373=LINE('',#2305,#522);
#374=LINE('',#2306,#523);
#375=LINE('',#2307,#524);
#376=LINE('',#2310,#525);
#377=LINE('',#2312,#526);
#378=LINE('',#2314,#527);
#379=LINE('',#2316,#528);
#380=LINE('',#2318,#529);
#381=LINE('',#2320,#530);
#382=LINE('',#2321,#531);
#383=LINE('',#2325,#532);
#384=LINE('',#2327,#533);
#385=LINE('',#2328,#534);
#386=LINE('',#2329,#535);
#387=LINE('',#2332,#536);
#388=LINE('',#2333,#537);
#389=LINE('',#2334,#538);
#390=LINE('',#2336,#539);
#391=LINE('',#2338,#540);
#392=LINE('',#2341,#541);
#393=LINE('',#2343,#542);
#394=LINE('',#2344,#543);
#395=LINE('',#2346,#544);
#396=LINE('',#2347,#545);
#397=LINE('',#2349,#546);
#398=LINE('',#2351,#547);
#399=LINE('',#2353,#548);
#400=LINE('',#2355,#549);
#401=LINE('',#2357,#550);
#402=LINE('',#2361,#551);
#403=LINE('',#2362,#552);
#404=LINE('',#2363,#553);
#405=LINE('',#2366,#554);
#406=LINE('',#2367,#555);
#407=LINE('',#2370,#556);
#408=LINE('',#2371,#557);
#409=LINE('',#2374,#558);
#410=LINE('',#2375,#559);
#411=LINE('',#2378,#560);
#412=LINE('',#2379,#561);
#413=LINE('',#2382,#562);
#414=LINE('',#2383,#563);
#415=LINE('',#2386,#564);
#416=LINE('',#2387,#565);
#417=LINE('',#2390,#566);
#418=LINE('',#2391,#567);
#419=LINE('',#2394,#568);
#420=LINE('',#2395,#569);
#421=LINE('',#2398,#570);
#422=LINE('',#2399,#571);
#423=LINE('',#2402,#572);
#424=LINE('',#2403,#573);
#425=LINE('',#2406,#574);
#426=LINE('',#2407,#575);
#427=LINE('',#2410,#576);
#428=LINE('',#2411,#577);
#429=LINE('',#2414,#578);
#430=LINE('',#2415,#579);
#431=LINE('',#2418,#580);
#432=LINE('',#2419,#581);
#433=LINE('',#2422,#582);
#434=LINE('',#2423,#583);
#435=LINE('',#2426,#584);
#436=LINE('',#2427,#585);
#437=LINE('',#2430,#586);
#438=LINE('',#2431,#587);
#439=LINE('',#2434,#588);
#440=LINE('',#2435,#589);
#441=LINE('',#2438,#590);
#442=LINE('',#2439,#591);
#443=LINE('',#2442,#592);
#444=LINE('',#2443,#593);
#445=LINE('',#2446,#594);
#446=LINE('',#2447,#595);
#447=LINE('',#2450,#596);
#448=LINE('',#2451,#597);
#449=LINE('',#2453,#598);
#450=VECTOR('',#1631,0.075);
#451=VECTOR('',#1640,0.075);
#452=VECTOR('',#1649,0.075);
#453=VECTOR('',#1658,0.075);
#454=VECTOR('',#1667,0.075);
#455=VECTOR('',#1676,0.075);
#456=VECTOR('',#1685,0.075);
#457=VECTOR('',#1694,0.075);
#458=VECTOR('',#1703,0.075);
#459=VECTOR('',#1712,0.376);
#460=VECTOR('',#1719,0.17);
#461=VECTOR('',#1726,0.17);
#462=VECTOR('',#1733,1.);
#463=VECTOR('',#1734,1.);
#464=VECTOR('',#1735,1.);
#465=VECTOR('',#1736,1.);
#466=VECTOR('',#1737,1.);
#467=VECTOR('',#1738,1.);
#468=VECTOR('',#1739,1.);
#469=VECTOR('',#1744,1.);
#470=VECTOR('',#1745,1.);
#471=VECTOR('',#1746,1.);
#472=VECTOR('',#1747,1.);
#473=VECTOR('',#1748,1.);
#474=VECTOR('',#1749,1.);
#475=VECTOR('',#1750,1.);
#476=VECTOR('',#1751,1.);
#477=VECTOR('',#1752,1.);
#478=VECTOR('',#1753,1.);
#479=VECTOR('',#1754,1.);
#480=VECTOR('',#1755,1.);
#481=VECTOR('',#1756,1.);
#482=VECTOR('',#1757,1.);
#483=VECTOR('',#1758,1.);
#484=VECTOR('',#1759,1.);
#485=VECTOR('',#1760,1.);
#486=VECTOR('',#1761,1.);
#487=VECTOR('',#1762,1.);
#488=VECTOR('',#1763,1.);
#489=VECTOR('',#1764,1.);
#490=VECTOR('',#1765,1.);
#491=VECTOR('',#1766,1.);
#492=VECTOR('',#1779,0.17);
#493=VECTOR('',#1784,0.17);
#494=VECTOR('',#1789,0.17);
#495=VECTOR('',#1794,0.17);
#496=VECTOR('',#1799,0.4);
#497=VECTOR('',#1808,0.4);
#498=VECTOR('',#1817,0.4);
#499=VECTOR('',#1826,0.4);
#500=VECTOR('',#1835,0.4);
#501=VECTOR('',#1844,0.4);
#502=VECTOR('',#1853,0.3075);
#503=VECTOR('',#1860,0.685);
#504=VECTOR('',#1863,1.);
#505=VECTOR('',#1864,1.);
#506=VECTOR('',#1865,1.);
#507=VECTOR('',#1866,1.);
#508=VECTOR('',#1869,1.);
#509=VECTOR('',#1870,1.);
#510=VECTOR('',#1871,1.);
#511=VECTOR('',#1874,1.);
#512=VECTOR('',#1875,1.);
#513=VECTOR('',#1878,1.);
#514=VECTOR('',#1879,1.);
#515=VECTOR('',#1880,1.);
#516=VECTOR('',#1881,1.);
#517=VECTOR('',#1882,1.);
#518=VECTOR('',#1883,1.);
#519=VECTOR('',#1886,1.);
#520=VECTOR('',#1887,1.);
#521=VECTOR('',#1888,1.);
#522=VECTOR('',#1891,1.);
#523=VECTOR('',#1892,1.);
#524=VECTOR('',#1893,1.);
#525=VECTOR('',#1896,1.);
#526=VECTOR('',#1897,1.);
#527=VECTOR('',#1898,1.);
#528=VECTOR('',#1899,1.);
#529=VECTOR('',#1900,1.);
#530=VECTOR('',#1901,1.);
#531=VECTOR('',#1902,1.);
#532=VECTOR('',#1905,1.);
#533=VECTOR('',#1906,1.);
#534=VECTOR('',#1907,1.);
#535=VECTOR('',#1908,1.);
#536=VECTOR('',#1911,1.);
#537=VECTOR('',#1912,1.);
#538=VECTOR('',#1913,1.);
#539=VECTOR('',#1916,1.);
#540=VECTOR('',#1919,1.);
#541=VECTOR('',#1922,1.);
#542=VECTOR('',#1923,1.);
#543=VECTOR('',#1924,1.);
#544=VECTOR('',#1927,1.);
#545=VECTOR('',#1928,1.);
#546=VECTOR('',#1931,1.);
#547=VECTOR('',#1934,1.);
#548=VECTOR('',#1937,1.);
#549=VECTOR('',#1940,1.);
#550=VECTOR('',#1943,1.);
#551=VECTOR('',#1946,1.);
#552=VECTOR('',#1947,1.);
#553=VECTOR('',#1948,1.);
#554=VECTOR('',#1951,1.);
#555=VECTOR('',#1952,1.);
#556=VECTOR('',#1955,1.);
#557=VECTOR('',#1956,1.);
#558=VECTOR('',#1959,1.);
#559=VECTOR('',#1960,1.);
#560=VECTOR('',#1963,1.);
#561=VECTOR('',#1964,1.);
#562=VECTOR('',#1967,1.);
#563=VECTOR('',#1968,1.);
#564=VECTOR('',#1971,1.);
#565=VECTOR('',#1972,1.);
#566=VECTOR('',#1975,1.);
#567=VECTOR('',#1976,1.);
#568=VECTOR('',#1979,1.);
#569=VECTOR('',#1980,1.);
#570=VECTOR('',#1983,1.);
#571=VECTOR('',#1984,1.);
#572=VECTOR('',#1987,1.);
#573=VECTOR('',#1988,1.);
#574=VECTOR('',#1991,1.);
#575=VECTOR('',#1992,1.);
#576=VECTOR('',#1995,1.);
#577=VECTOR('',#1996,1.);
#578=VECTOR('',#1999,1.);
#579=VECTOR('',#2000,1.);
#580=VECTOR('',#2003,1.);
#581=VECTOR('',#2004,1.);
#582=VECTOR('',#2007,1.);
#583=VECTOR('',#2008,1.);
#584=VECTOR('',#2011,1.);
#585=VECTOR('',#2012,1.);
#586=VECTOR('',#2015,1.);
#587=VECTOR('',#2016,1.);
#588=VECTOR('',#2019,1.);
#589=VECTOR('',#2020,1.);
#590=VECTOR('',#2023,1.);
#591=VECTOR('',#2024,1.);
#592=VECTOR('',#2027,1.);
#593=VECTOR('',#2028,1.);
#594=VECTOR('',#2031,1.);
#595=VECTOR('',#2032,1.);
#596=VECTOR('',#2035,1.);
#597=VECTOR('',#2036,1.);
#598=VECTOR('',#2039,1.);
#599=CIRCLE('',#1493,0.075);
#600=CIRCLE('',#1494,0.075);
#601=CIRCLE('',#1497,0.075);
#602=CIRCLE('',#1498,0.075);
#603=CIRCLE('',#1501,0.075);
#604=CIRCLE('',#1502,0.075);
#605=CIRCLE('',#1505,0.075);
#606=CIRCLE('',#1506,0.075);
#607=CIRCLE('',#1509,0.075);
#608=CIRCLE('',#1510,0.075);
#609=CIRCLE('',#1513,0.075);
#610=CIRCLE('',#1514,0.075);
#611=CIRCLE('',#1517,0.075);
#612=CIRCLE('',#1518,0.075);
#613=CIRCLE('',#1521,0.075);
#614=CIRCLE('',#1522,0.075);
#615=CIRCLE('',#1525,0.075);
#616=CIRCLE('',#1526,0.075);
#617=CIRCLE('',#1529,0.376);
#618=CIRCLE('',#1530,0.376);
#619=CIRCLE('',#1532,0.17);
#620=CIRCLE('',#1533,0.17);
#621=CIRCLE('',#1535,0.17);
#622=CIRCLE('',#1536,0.17);
#623=CIRCLE('',#1537,0.17);
#624=CIRCLE('',#1539,0.17);
#625=CIRCLE('',#1540,0.17);
#626=CIRCLE('',#1541,0.17);
#627=CIRCLE('',#1542,0.17);
#628=CIRCLE('',#1543,0.877857142857143);
#629=CIRCLE('',#1544,0.17);
#630=CIRCLE('',#1546,0.17);
#631=CIRCLE('',#1548,0.17);
#632=CIRCLE('',#1550,0.17);
#633=CIRCLE('',#1552,0.17);
#634=CIRCLE('',#1554,0.4);
#635=CIRCLE('',#1555,0.4);
#636=CIRCLE('',#1558,0.4);
#637=CIRCLE('',#1559,0.4);
#638=CIRCLE('',#1562,0.4);
#639=CIRCLE('',#1563,0.4);
#640=CIRCLE('',#1566,0.4);
#641=CIRCLE('',#1567,0.4);
#642=CIRCLE('',#1570,0.4);
#643=CIRCLE('',#1571,0.4);
#644=CIRCLE('',#1574,0.4);
#645=CIRCLE('',#1575,0.4);
#646=CIRCLE('',#1578,0.2);
#647=CIRCLE('',#1579,0.415);
#648=VERTEX_POINT('',#2044);
#649=VERTEX_POINT('',#2046);
#650=VERTEX_POINT('',#2051);
#651=VERTEX_POINT('',#2053);
#652=VERTEX_POINT('',#2058);
#653=VERTEX_POINT('',#2060);
#654=VERTEX_POINT('',#2065);
#655=VERTEX_POINT('',#2067);
#656=VERTEX_POINT('',#2072);
#657=VERTEX_POINT('',#2074);
#658=VERTEX_POINT('',#2079);
#659=VERTEX_POINT('',#2081);
#660=VERTEX_POINT('',#2086);
#661=VERTEX_POINT('',#2088);
#662=VERTEX_POINT('',#2093);
#663=VERTEX_POINT('',#2095);
#664=VERTEX_POINT('',#2100);
#665=VERTEX_POINT('',#2102);
#666=VERTEX_POINT('',#2107);
#667=VERTEX_POINT('',#2109);
#668=VERTEX_POINT('',#2113);
#669=VERTEX_POINT('',#2115);
#670=VERTEX_POINT('',#2119);
#671=VERTEX_POINT('',#2121);
#672=VERTEX_POINT('',#2123);
#673=VERTEX_POINT('',#2127);
#674=VERTEX_POINT('',#2128);
#675=VERTEX_POINT('',#2130);
#676=VERTEX_POINT('',#2132);
#677=VERTEX_POINT('',#2134);
#678=VERTEX_POINT('',#2136);
#679=VERTEX_POINT('',#2138);
#680=VERTEX_POINT('',#2140);
#681=VERTEX_POINT('',#2142);
#682=VERTEX_POINT('',#2146);
#683=VERTEX_POINT('',#2148);
#684=VERTEX_POINT('',#2150);
#685=VERTEX_POINT('',#2152);
#686=VERTEX_POINT('',#2154);
#687=VERTEX_POINT('',#2156);
#688=VERTEX_POINT('',#2158);
#689=VERTEX_POINT('',#2160);
#690=VERTEX_POINT('',#2162);
#691=VERTEX_POINT('',#2164);
#692=VERTEX_POINT('',#2166);
#693=VERTEX_POINT('',#2168);
#694=VERTEX_POINT('',#2170);
#695=VERTEX_POINT('',#2172);
#696=VERTEX_POINT('',#2174);
#697=VERTEX_POINT('',#2176);
#698=VERTEX_POINT('',#2178);
#699=VERTEX_POINT('',#2180);
#700=VERTEX_POINT('',#2182);
#701=VERTEX_POINT('',#2184);
#702=VERTEX_POINT('',#2186);
#703=VERTEX_POINT('',#2189);
#704=VERTEX_POINT('',#2191);
#705=VERTEX_POINT('',#2193);
#706=VERTEX_POINT('',#2195);
#707=VERTEX_POINT('',#2198);
#708=VERTEX_POINT('',#2202);
#709=VERTEX_POINT('',#2206);
#710=VERTEX_POINT('',#2210);
#711=VERTEX_POINT('',#2214);
#712=VERTEX_POINT('',#2216);
#713=VERTEX_POINT('',#2221);
#714=VERTEX_POINT('',#2223);
#715=VERTEX_POINT('',#2228);
#716=VERTEX_POINT('',#2230);
#717=VERTEX_POINT('',#2235);
#718=VERTEX_POINT('',#2237);
#719=VERTEX_POINT('',#2242);
#720=VERTEX_POINT('',#2244);
#721=VERTEX_POINT('',#2249);
#722=VERTEX_POINT('',#2251);
#723=VERTEX_POINT('',#2256);
#724=VERTEX_POINT('',#2258);
#725=VERTEX_POINT('',#2265);
#726=VERTEX_POINT('',#2266);
#727=VERTEX_POINT('',#2268);
#728=VERTEX_POINT('',#2270);
#729=VERTEX_POINT('',#2274);
#730=VERTEX_POINT('',#2275);
#731=VERTEX_POINT('',#2280);
#732=VERTEX_POINT('',#2284);
#733=VERTEX_POINT('',#2285);
#734=VERTEX_POINT('',#2287);
#735=VERTEX_POINT('',#2289);
#736=VERTEX_POINT('',#2291);
#737=VERTEX_POINT('',#2293);
#738=VERTEX_POINT('',#2297);
#739=VERTEX_POINT('',#2298);
#740=VERTEX_POINT('',#2303);
#741=VERTEX_POINT('',#2304);
#742=VERTEX_POINT('',#2309);
#743=VERTEX_POINT('',#2311);
#744=VERTEX_POINT('',#2313);
#745=VERTEX_POINT('',#2315);
#746=VERTEX_POINT('',#2317);
#747=VERTEX_POINT('',#2319);
#748=VERTEX_POINT('',#2323);
#749=VERTEX_POINT('',#2324);
#750=VERTEX_POINT('',#2326);
#751=VERTEX_POINT('',#2331);
#752=VERTEX_POINT('',#2340);
#753=VERTEX_POINT('',#2342);
#754=VERTEX_POINT('',#2359);
#755=VERTEX_POINT('',#2360);
#756=VERTEX_POINT('',#2365);
#757=VERTEX_POINT('',#2369);
#758=VERTEX_POINT('',#2373);
#759=VERTEX_POINT('',#2377);
#760=VERTEX_POINT('',#2381);
#761=VERTEX_POINT('',#2385);
#762=VERTEX_POINT('',#2389);
#763=VERTEX_POINT('',#2393);
#764=VERTEX_POINT('',#2397);
#765=VERTEX_POINT('',#2401);
#766=VERTEX_POINT('',#2405);
#767=VERTEX_POINT('',#2409);
#768=VERTEX_POINT('',#2413);
#769=VERTEX_POINT('',#2417);
#770=VERTEX_POINT('',#2421);
#771=VERTEX_POINT('',#2425);
#772=VERTEX_POINT('',#2429);
#773=VERTEX_POINT('',#2433);
#774=VERTEX_POINT('',#2437);
#775=VERTEX_POINT('',#2441);
#776=VERTEX_POINT('',#2445);
#777=VERTEX_POINT('',#2449);
#778=EDGE_CURVE('',#648,#648,#599,.T.);
#779=EDGE_CURVE('',#648,#649,#301,.T.);
#780=EDGE_CURVE('',#649,#649,#600,.T.);
#781=EDGE_CURVE('',#650,#650,#601,.T.);
#782=EDGE_CURVE('',#650,#651,#302,.T.);
#783=EDGE_CURVE('',#651,#651,#602,.T.);
#784=EDGE_CURVE('',#652,#652,#603,.T.);
#785=EDGE_CURVE('',#652,#653,#303,.T.);
#786=EDGE_CURVE('',#653,#653,#604,.T.);
#787=EDGE_CURVE('',#654,#654,#605,.T.);
#788=EDGE_CURVE('',#654,#655,#304,.T.);
#789=EDGE_CURVE('',#655,#655,#606,.T.);
#790=EDGE_CURVE('',#656,#656,#607,.T.);
#791=EDGE_CURVE('',#656,#657,#305,.T.);
#792=EDGE_CURVE('',#657,#657,#608,.T.);
#793=EDGE_CURVE('',#658,#658,#609,.T.);
#794=EDGE_CURVE('',#658,#659,#306,.T.);
#795=EDGE_CURVE('',#659,#659,#610,.T.);
#796=EDGE_CURVE('',#660,#660,#611,.T.);
#797=EDGE_CURVE('',#660,#661,#307,.T.);
#798=EDGE_CURVE('',#661,#661,#612,.T.);
#799=EDGE_CURVE('',#662,#662,#613,.T.);
#800=EDGE_CURVE('',#662,#663,#308,.T.);
#801=EDGE_CURVE('',#663,#663,#614,.T.);
#802=EDGE_CURVE('',#664,#664,#615,.T.);
#803=EDGE_CURVE('',#664,#665,#309,.T.);
#804=EDGE_CURVE('',#665,#665,#616,.T.);
#805=EDGE_CURVE('',#666,#666,#617,.T.);
#806=EDGE_CURVE('',#666,#667,#310,.T.);
#807=EDGE_CURVE('',#667,#667,#618,.T.);
#808=EDGE_CURVE('',#668,#668,#619,.T.);
#809=EDGE_CURVE('',#668,#669,#311,.T.);
#810=EDGE_CURVE('',#669,#669,#620,.T.);
#811=EDGE_CURVE('',#670,#670,#621,.T.);
#812=EDGE_CURVE('',#670,#671,#312,.T.);
#813=EDGE_CURVE('',#672,#671,#622,.T.);
#814=EDGE_CURVE('',#671,#672,#623,.T.);
#815=EDGE_CURVE('',#673,#674,#313,.T.);
#816=EDGE_CURVE('',#674,#675,#314,.T.);
#817=EDGE_CURVE('',#675,#676,#315,.T.);
#818=EDGE_CURVE('',#676,#677,#316,.T.);
#819=EDGE_CURVE('',#677,#678,#317,.T.);
#820=EDGE_CURVE('',#678,#679,#318,.T.);
#821=EDGE_CURVE('',#679,#680,#319,.T.);
#822=EDGE_CURVE('',#680,#681,#624,.T.);
#823=EDGE_CURVE('',#681,#680,#625,.T.);
#824=EDGE_CURVE('',#680,#672,#320,.T.);
#825=EDGE_CURVE('',#672,#682,#321,.T.);
#826=EDGE_CURVE('',#682,#683,#322,.T.);
#827=EDGE_CURVE('',#683,#684,#323,.T.);
#828=EDGE_CURVE('',#684,#685,#324,.T.);
#829=EDGE_CURVE('',#685,#686,#325,.T.);
#830=EDGE_CURVE('',#686,#687,#326,.T.);
#831=EDGE_CURVE('',#687,#688,#327,.T.);
#832=EDGE_CURVE('',#688,#689,#328,.T.);
#833=EDGE_CURVE('',#689,#690,#329,.T.);
#834=EDGE_CURVE('',#690,#691,#330,.T.);
#835=EDGE_CURVE('',#691,#692,#331,.T.);
#836=EDGE_CURVE('',#692,#693,#332,.T.);
#837=EDGE_CURVE('',#693,#694,#333,.T.);
#838=EDGE_CURVE('',#694,#695,#334,.T.);
#839=EDGE_CURVE('',#695,#696,#335,.T.);
#840=EDGE_CURVE('',#696,#697,#336,.T.);
#841=EDGE_CURVE('',#697,#698,#337,.T.);
#842=EDGE_CURVE('',#698,#699,#338,.T.);
#843=EDGE_CURVE('',#699,#700,#339,.T.);
#844=EDGE_CURVE('',#700,#701,#340,.T.);
#845=EDGE_CURVE('',#701,#702,#341,.T.);
#846=EDGE_CURVE('',#702,#673,#342,.T.);
#847=EDGE_CURVE('',#703,#703,#626,.T.);
#848=EDGE_CURVE('',#704,#704,#627,.T.);
#849=EDGE_CURVE('',#705,#705,#628,.T.);
#850=EDGE_CURVE('',#706,#706,#629,.T.);
#851=EDGE_CURVE('',#707,#707,#630,.T.);
#852=EDGE_CURVE('',#707,#706,#343,.T.);
#853=EDGE_CURVE('',#708,#708,#631,.T.);
#854=EDGE_CURVE('',#708,#681,#344,.T.);
#855=EDGE_CURVE('',#709,#709,#632,.T.);
#856=EDGE_CURVE('',#709,#703,#345,.T.);
#857=EDGE_CURVE('',#710,#710,#633,.T.);
#858=EDGE_CURVE('',#710,#704,#346,.T.);
#859=EDGE_CURVE('',#711,#711,#634,.T.);
#860=EDGE_CURVE('',#711,#712,#347,.T.);
#861=EDGE_CURVE('',#712,#712,#635,.T.);
#862=EDGE_CURVE('',#713,#713,#636,.T.);
#863=EDGE_CURVE('',#713,#714,#348,.T.);
#864=EDGE_CURVE('',#714,#714,#637,.T.);
#865=EDGE_CURVE('',#715,#715,#638,.T.);
#866=EDGE_CURVE('',#715,#716,#349,.T.);
#867=EDGE_CURVE('',#716,#716,#639,.T.);
#868=EDGE_CURVE('',#717,#717,#640,.T.);
#869=EDGE_CURVE('',#717,#718,#350,.T.);
#870=EDGE_CURVE('',#718,#718,#641,.T.);
#871=EDGE_CURVE('',#719,#719,#642,.T.);
#872=EDGE_CURVE('',#719,#720,#351,.T.);
#873=EDGE_CURVE('',#720,#720,#643,.T.);
#874=EDGE_CURVE('',#721,#721,#644,.T.);
#875=EDGE_CURVE('',#721,#722,#352,.T.);
#876=EDGE_CURVE('',#722,#722,#645,.T.);
#877=EDGE_CURVE('',#723,#723,#646,.T.);
#878=EDGE_CURVE('',#723,#724,#353,.T.);
#879=EDGE_CURVE('',#724,#724,#647,.T.);
#880=EDGE_CURVE('',#724,#705,#354,.T.);
#881=EDGE_CURVE('',#725,#726,#355,.T.);
#882=EDGE_CURVE('',#727,#725,#356,.T.);
#883=EDGE_CURVE('',#728,#727,#357,.T.);
#884=EDGE_CURVE('',#726,#728,#358,.T.);
#885=EDGE_CURVE('',#729,#730,#359,.T.);
#886=EDGE_CURVE('',#730,#728,#360,.T.);
#887=EDGE_CURVE('',#729,#727,#361,.T.);
#888=EDGE_CURVE('',#731,#729,#362,.T.);
#889=EDGE_CURVE('',#731,#725,#363,.T.);
#890=EDGE_CURVE('',#732,#733,#364,.T.);
#891=EDGE_CURVE('',#733,#734,#365,.T.);
#892=EDGE_CURVE('',#734,#735,#366,.T.);
#893=EDGE_CURVE('',#735,#736,#367,.T.);
#894=EDGE_CURVE('',#736,#737,#368,.T.);
#895=EDGE_CURVE('',#737,#732,#369,.T.);
#896=EDGE_CURVE('',#738,#739,#370,.T.);
#897=EDGE_CURVE('',#739,#733,#371,.T.);
#898=EDGE_CURVE('',#738,#732,#372,.T.);
#899=EDGE_CURVE('',#740,#741,#373,.T.);
#900=EDGE_CURVE('',#740,#729,#374,.T.);
#901=EDGE_CURVE('',#741,#731,#375,.T.);
#902=EDGE_CURVE('',#741,#742,#376,.T.);
#903=EDGE_CURVE('',#742,#743,#377,.T.);
#904=EDGE_CURVE('',#743,#744,#378,.T.);
#905=EDGE_CURVE('',#744,#745,#379,.T.);
#906=EDGE_CURVE('',#745,#746,#380,.T.);
#907=EDGE_CURVE('',#746,#747,#381,.T.);
#908=EDGE_CURVE('',#747,#740,#382,.T.);
#909=EDGE_CURVE('',#748,#749,#383,.T.);
#910=EDGE_CURVE('',#748,#750,#384,.T.);
#911=EDGE_CURVE('',#750,#738,#385,.T.);
#912=EDGE_CURVE('',#749,#737,#386,.T.);
#913=EDGE_CURVE('',#751,#744,#387,.T.);
#914=EDGE_CURVE('',#743,#734,#388,.T.);
#915=EDGE_CURVE('',#751,#739,#389,.T.);
#916=EDGE_CURVE('',#750,#751,#390,.T.);
#917=EDGE_CURVE('',#748,#744,#391,.T.);
#918=EDGE_CURVE('',#749,#752,#392,.T.);
#919=EDGE_CURVE('',#752,#753,#393,.T.);
#920=EDGE_CURVE('',#753,#748,#394,.T.);
#921=EDGE_CURVE('',#674,#742,#395,.T.);
#922=EDGE_CURVE('',#675,#726,#396,.T.);
#923=EDGE_CURVE('',#676,#730,#397,.T.);
#924=EDGE_CURVE('',#677,#747,#398,.T.);
#925=EDGE_CURVE('',#678,#746,#399,.T.);
#926=EDGE_CURVE('',#679,#745,#400,.T.);
#927=EDGE_CURVE('',#682,#753,#401,.T.);
#928=EDGE_CURVE('',#754,#755,#402,.T.);
#929=EDGE_CURVE('',#754,#673,#403,.T.);
#930=EDGE_CURVE('',#755,#702,#404,.T.);
#931=EDGE_CURVE('',#755,#756,#405,.T.);
#932=EDGE_CURVE('',#756,#701,#406,.T.);
#933=EDGE_CURVE('',#756,#757,#407,.T.);
#934=EDGE_CURVE('',#757,#700,#408,.T.);
#935=EDGE_CURVE('',#757,#758,#409,.T.);
#936=EDGE_CURVE('',#758,#699,#410,.T.);
#937=EDGE_CURVE('',#758,#759,#411,.T.);
#938=EDGE_CURVE('',#759,#698,#412,.T.);
#939=EDGE_CURVE('',#759,#760,#413,.T.);
#940=EDGE_CURVE('',#760,#697,#414,.T.);
#941=EDGE_CURVE('',#760,#761,#415,.T.);
#942=EDGE_CURVE('',#761,#696,#416,.T.);
#943=EDGE_CURVE('',#761,#762,#417,.T.);
#944=EDGE_CURVE('',#762,#695,#418,.T.);
#945=EDGE_CURVE('',#762,#763,#419,.T.);
#946=EDGE_CURVE('',#763,#694,#420,.T.);
#947=EDGE_CURVE('',#763,#764,#421,.T.);
#948=EDGE_CURVE('',#764,#693,#422,.T.);
#949=EDGE_CURVE('',#764,#765,#423,.T.);
#950=EDGE_CURVE('',#765,#692,#424,.T.);
#951=EDGE_CURVE('',#765,#766,#425,.T.);
#952=EDGE_CURVE('',#766,#691,#426,.T.);
#953=EDGE_CURVE('',#766,#767,#427,.T.);
#954=EDGE_CURVE('',#767,#690,#428,.T.);
#955=EDGE_CURVE('',#767,#768,#429,.T.);
#956=EDGE_CURVE('',#768,#689,#430,.T.);
#957=EDGE_CURVE('',#768,#769,#431,.T.);
#958=EDGE_CURVE('',#769,#688,#432,.T.);
#959=EDGE_CURVE('',#769,#770,#433,.T.);
#960=EDGE_CURVE('',#770,#687,#434,.T.);
#961=EDGE_CURVE('',#770,#771,#435,.T.);
#962=EDGE_CURVE('',#771,#686,#436,.T.);
#963=EDGE_CURVE('',#771,#772,#437,.T.);
#964=EDGE_CURVE('',#772,#685,#438,.T.);
#965=EDGE_CURVE('',#772,#773,#439,.T.);
#966=EDGE_CURVE('',#773,#684,#440,.T.);
#967=EDGE_CURVE('',#773,#774,#441,.T.);
#968=EDGE_CURVE('',#774,#683,#442,.T.);
#969=EDGE_CURVE('',#774,#775,#443,.T.);
#970=EDGE_CURVE('',#775,#752,#444,.T.);
#971=EDGE_CURVE('',#775,#776,#445,.T.);
#972=EDGE_CURVE('',#776,#736,#446,.T.);
#973=EDGE_CURVE('',#776,#777,#447,.T.);
#974=EDGE_CURVE('',#777,#735,#448,.T.);
#975=EDGE_CURVE('',#777,#754,#449,.T.);
#976=ORIENTED_EDGE('',*,*,#778,.F.);
#977=ORIENTED_EDGE('',*,*,#779,.T.);
#978=ORIENTED_EDGE('',*,*,#780,.T.);
#979=ORIENTED_EDGE('',*,*,#779,.F.);
#980=ORIENTED_EDGE('',*,*,#780,.F.);
#981=ORIENTED_EDGE('',*,*,#781,.F.);
#982=ORIENTED_EDGE('',*,*,#782,.T.);
#983=ORIENTED_EDGE('',*,*,#783,.T.);
#984=ORIENTED_EDGE('',*,*,#782,.F.);
#985=ORIENTED_EDGE('',*,*,#783,.F.);
#986=ORIENTED_EDGE('',*,*,#784,.F.);
#987=ORIENTED_EDGE('',*,*,#785,.T.);
#988=ORIENTED_EDGE('',*,*,#786,.T.);
#989=ORIENTED_EDGE('',*,*,#785,.F.);
#990=ORIENTED_EDGE('',*,*,#786,.F.);
#991=ORIENTED_EDGE('',*,*,#787,.F.);
#992=ORIENTED_EDGE('',*,*,#788,.T.);
#993=ORIENTED_EDGE('',*,*,#789,.T.);
#994=ORIENTED_EDGE('',*,*,#788,.F.);
#995=ORIENTED_EDGE('',*,*,#789,.F.);
#996=ORIENTED_EDGE('',*,*,#790,.F.);
#997=ORIENTED_EDGE('',*,*,#791,.T.);
#998=ORIENTED_EDGE('',*,*,#792,.T.);
#999=ORIENTED_EDGE('',*,*,#791,.F.);
#1000=ORIENTED_EDGE('',*,*,#792,.F.);
#1001=ORIENTED_EDGE('',*,*,#793,.F.);
#1002=ORIENTED_EDGE('',*,*,#794,.T.);
#1003=ORIENTED_EDGE('',*,*,#795,.T.);
#1004=ORIENTED_EDGE('',*,*,#794,.F.);
#1005=ORIENTED_EDGE('',*,*,#795,.F.);
#1006=ORIENTED_EDGE('',*,*,#796,.F.);
#1007=ORIENTED_EDGE('',*,*,#797,.T.);
#1008=ORIENTED_EDGE('',*,*,#798,.T.);
#1009=ORIENTED_EDGE('',*,*,#797,.F.);
#1010=ORIENTED_EDGE('',*,*,#798,.F.);
#1011=ORIENTED_EDGE('',*,*,#799,.F.);
#1012=ORIENTED_EDGE('',*,*,#800,.T.);
#1013=ORIENTED_EDGE('',*,*,#801,.T.);
#1014=ORIENTED_EDGE('',*,*,#800,.F.);
#1015=ORIENTED_EDGE('',*,*,#801,.F.);
#1016=ORIENTED_EDGE('',*,*,#802,.F.);
#1017=ORIENTED_EDGE('',*,*,#803,.T.);
#1018=ORIENTED_EDGE('',*,*,#804,.T.);
#1019=ORIENTED_EDGE('',*,*,#803,.F.);
#1020=ORIENTED_EDGE('',*,*,#804,.F.);
#1021=ORIENTED_EDGE('',*,*,#805,.F.);
#1022=ORIENTED_EDGE('',*,*,#806,.T.);
#1023=ORIENTED_EDGE('',*,*,#807,.F.);
#1024=ORIENTED_EDGE('',*,*,#806,.F.);
#1025=ORIENTED_EDGE('',*,*,#808,.F.);
#1026=ORIENTED_EDGE('',*,*,#809,.T.);
#1027=ORIENTED_EDGE('',*,*,#810,.F.);
#1028=ORIENTED_EDGE('',*,*,#809,.F.);
#1029=ORIENTED_EDGE('',*,*,#811,.F.);
#1030=ORIENTED_EDGE('',*,*,#812,.T.);
#1031=ORIENTED_EDGE('',*,*,#813,.F.);
#1032=ORIENTED_EDGE('',*,*,#814,.F.);
#1033=ORIENTED_EDGE('',*,*,#812,.F.);
#1034=ORIENTED_EDGE('',*,*,#815,.T.);
#1035=ORIENTED_EDGE('',*,*,#816,.T.);
#1036=ORIENTED_EDGE('',*,*,#817,.T.);
#1037=ORIENTED_EDGE('',*,*,#818,.T.);
#1038=ORIENTED_EDGE('',*,*,#819,.T.);
#1039=ORIENTED_EDGE('',*,*,#820,.T.);
#1040=ORIENTED_EDGE('',*,*,#821,.T.);
#1041=ORIENTED_EDGE('',*,*,#822,.T.);
#1042=ORIENTED_EDGE('',*,*,#823,.T.);
#1043=ORIENTED_EDGE('',*,*,#824,.T.);
#1044=ORIENTED_EDGE('',*,*,#813,.T.);
#1045=ORIENTED_EDGE('',*,*,#814,.T.);
#1046=ORIENTED_EDGE('',*,*,#825,.T.);
#1047=ORIENTED_EDGE('',*,*,#826,.T.);
#1048=ORIENTED_EDGE('',*,*,#827,.T.);
#1049=ORIENTED_EDGE('',*,*,#828,.T.);
#1050=ORIENTED_EDGE('',*,*,#829,.T.);
#1051=ORIENTED_EDGE('',*,*,#830,.T.);
#1052=ORIENTED_EDGE('',*,*,#831,.T.);
#1053=ORIENTED_EDGE('',*,*,#832,.T.);
#1054=ORIENTED_EDGE('',*,*,#833,.T.);
#1055=ORIENTED_EDGE('',*,*,#834,.T.);
#1056=ORIENTED_EDGE('',*,*,#835,.T.);
#1057=ORIENTED_EDGE('',*,*,#836,.T.);
#1058=ORIENTED_EDGE('',*,*,#837,.T.);
#1059=ORIENTED_EDGE('',*,*,#838,.T.);
#1060=ORIENTED_EDGE('',*,*,#839,.T.);
#1061=ORIENTED_EDGE('',*,*,#840,.T.);
#1062=ORIENTED_EDGE('',*,*,#841,.T.);
#1063=ORIENTED_EDGE('',*,*,#842,.T.);
#1064=ORIENTED_EDGE('',*,*,#843,.T.);
#1065=ORIENTED_EDGE('',*,*,#844,.T.);
#1066=ORIENTED_EDGE('',*,*,#845,.T.);
#1067=ORIENTED_EDGE('',*,*,#846,.T.);
#1068=ORIENTED_EDGE('',*,*,#781,.T.);
#1069=ORIENTED_EDGE('',*,*,#787,.T.);
#1070=ORIENTED_EDGE('',*,*,#793,.T.);
#1071=ORIENTED_EDGE('',*,*,#799,.T.);
#1072=ORIENTED_EDGE('',*,*,#802,.T.);
#1073=ORIENTED_EDGE('',*,*,#807,.T.);
#1074=ORIENTED_EDGE('',*,*,#810,.T.);
#1075=ORIENTED_EDGE('',*,*,#847,.T.);
#1076=ORIENTED_EDGE('',*,*,#848,.T.);
#1077=ORIENTED_EDGE('',*,*,#849,.T.);
#1078=ORIENTED_EDGE('',*,*,#850,.T.);
#1079=ORIENTED_EDGE('',*,*,#796,.T.);
#1080=ORIENTED_EDGE('',*,*,#790,.T.);
#1081=ORIENTED_EDGE('',*,*,#784,.T.);
#1082=ORIENTED_EDGE('',*,*,#778,.T.);
#1083=ORIENTED_EDGE('',*,*,#851,.F.);
#1084=ORIENTED_EDGE('',*,*,#852,.T.);
#1085=ORIENTED_EDGE('',*,*,#850,.F.);
#1086=ORIENTED_EDGE('',*,*,#852,.F.);
#1087=ORIENTED_EDGE('',*,*,#853,.F.);
#1088=ORIENTED_EDGE('',*,*,#854,.T.);
#1089=ORIENTED_EDGE('',*,*,#822,.F.);
#1090=ORIENTED_EDGE('',*,*,#823,.F.);
#1091=ORIENTED_EDGE('',*,*,#854,.F.);
#1092=ORIENTED_EDGE('',*,*,#855,.F.);
#1093=ORIENTED_EDGE('',*,*,#856,.T.);
#1094=ORIENTED_EDGE('',*,*,#847,.F.);
#1095=ORIENTED_EDGE('',*,*,#856,.F.);
#1096=ORIENTED_EDGE('',*,*,#857,.F.);
#1097=ORIENTED_EDGE('',*,*,#858,.T.);
#1098=ORIENTED_EDGE('',*,*,#848,.F.);
#1099=ORIENTED_EDGE('',*,*,#858,.F.);
#1100=ORIENTED_EDGE('',*,*,#859,.F.);
#1101=ORIENTED_EDGE('',*,*,#860,.T.);
#1102=ORIENTED_EDGE('',*,*,#861,.F.);
#1103=ORIENTED_EDGE('',*,*,#860,.F.);
#1104=ORIENTED_EDGE('',*,*,#861,.T.);
#1105=ORIENTED_EDGE('',*,*,#808,.T.);
#1106=ORIENTED_EDGE('',*,*,#862,.F.);
#1107=ORIENTED_EDGE('',*,*,#863,.T.);
#1108=ORIENTED_EDGE('',*,*,#864,.F.);
#1109=ORIENTED_EDGE('',*,*,#863,.F.);
#1110=ORIENTED_EDGE('',*,*,#864,.T.);
#1111=ORIENTED_EDGE('',*,*,#811,.T.);
#1112=ORIENTED_EDGE('',*,*,#865,.F.);
#1113=ORIENTED_EDGE('',*,*,#866,.T.);
#1114=ORIENTED_EDGE('',*,*,#867,.F.);
#1115=ORIENTED_EDGE('',*,*,#866,.F.);
#1116=ORIENTED_EDGE('',*,*,#867,.T.);
#1117=ORIENTED_EDGE('',*,*,#851,.T.);
#1118=ORIENTED_EDGE('',*,*,#868,.F.);
#1119=ORIENTED_EDGE('',*,*,#869,.T.);
#1120=ORIENTED_EDGE('',*,*,#870,.F.);
#1121=ORIENTED_EDGE('',*,*,#869,.F.);
#1122=ORIENTED_EDGE('',*,*,#870,.T.);
#1123=ORIENTED_EDGE('',*,*,#853,.T.);
#1124=ORIENTED_EDGE('',*,*,#871,.F.);
#1125=ORIENTED_EDGE('',*,*,#872,.T.);
#1126=ORIENTED_EDGE('',*,*,#873,.F.);
#1127=ORIENTED_EDGE('',*,*,#872,.F.);
#1128=ORIENTED_EDGE('',*,*,#873,.T.);
#1129=ORIENTED_EDGE('',*,*,#855,.T.);
#1130=ORIENTED_EDGE('',*,*,#874,.F.);
#1131=ORIENTED_EDGE('',*,*,#875,.T.);
#1132=ORIENTED_EDGE('',*,*,#876,.F.);
#1133=ORIENTED_EDGE('',*,*,#875,.F.);
#1134=ORIENTED_EDGE('',*,*,#876,.T.);
#1135=ORIENTED_EDGE('',*,*,#857,.T.);
#1136=ORIENTED_EDGE('',*,*,#877,.F.);
#1137=ORIENTED_EDGE('',*,*,#878,.T.);
#1138=ORIENTED_EDGE('',*,*,#879,.T.);
#1139=ORIENTED_EDGE('',*,*,#878,.F.);
#1140=ORIENTED_EDGE('',*,*,#877,.T.);
#1141=ORIENTED_EDGE('',*,*,#879,.F.);
#1142=ORIENTED_EDGE('',*,*,#880,.T.);
#1143=ORIENTED_EDGE('',*,*,#849,.F.);
#1144=ORIENTED_EDGE('',*,*,#880,.F.);
#1145=ORIENTED_EDGE('',*,*,#881,.F.);
#1146=ORIENTED_EDGE('',*,*,#882,.F.);
#1147=ORIENTED_EDGE('',*,*,#883,.F.);
#1148=ORIENTED_EDGE('',*,*,#884,.F.);
#1149=ORIENTED_EDGE('',*,*,#885,.T.);
#1150=ORIENTED_EDGE('',*,*,#886,.T.);
#1151=ORIENTED_EDGE('',*,*,#883,.T.);
#1152=ORIENTED_EDGE('',*,*,#887,.F.);
#1153=ORIENTED_EDGE('',*,*,#888,.T.);
#1154=ORIENTED_EDGE('',*,*,#887,.T.);
#1155=ORIENTED_EDGE('',*,*,#882,.T.);
#1156=ORIENTED_EDGE('',*,*,#889,.F.);
#1157=ORIENTED_EDGE('',*,*,#890,.T.);
#1158=ORIENTED_EDGE('',*,*,#891,.T.);
#1159=ORIENTED_EDGE('',*,*,#892,.T.);
#1160=ORIENTED_EDGE('',*,*,#893,.T.);
#1161=ORIENTED_EDGE('',*,*,#894,.T.);
#1162=ORIENTED_EDGE('',*,*,#895,.T.);
#1163=ORIENTED_EDGE('',*,*,#896,.T.);
#1164=ORIENTED_EDGE('',*,*,#897,.T.);
#1165=ORIENTED_EDGE('',*,*,#890,.F.);
#1166=ORIENTED_EDGE('',*,*,#898,.F.);
#1167=ORIENTED_EDGE('',*,*,#899,.F.);
#1168=ORIENTED_EDGE('',*,*,#900,.T.);
#1169=ORIENTED_EDGE('',*,*,#888,.F.);
#1170=ORIENTED_EDGE('',*,*,#901,.F.);
#1171=ORIENTED_EDGE('',*,*,#899,.T.);
#1172=ORIENTED_EDGE('',*,*,#902,.T.);
#1173=ORIENTED_EDGE('',*,*,#903,.T.);
#1174=ORIENTED_EDGE('',*,*,#904,.T.);
#1175=ORIENTED_EDGE('',*,*,#905,.T.);
#1176=ORIENTED_EDGE('',*,*,#906,.T.);
#1177=ORIENTED_EDGE('',*,*,#907,.T.);
#1178=ORIENTED_EDGE('',*,*,#908,.T.);
#1179=ORIENTED_EDGE('',*,*,#909,.F.);
#1180=ORIENTED_EDGE('',*,*,#910,.T.);
#1181=ORIENTED_EDGE('',*,*,#911,.T.);
#1182=ORIENTED_EDGE('',*,*,#898,.T.);
#1183=ORIENTED_EDGE('',*,*,#895,.F.);
#1184=ORIENTED_EDGE('',*,*,#912,.F.);
#1185=ORIENTED_EDGE('',*,*,#913,.T.);
#1186=ORIENTED_EDGE('',*,*,#904,.F.);
#1187=ORIENTED_EDGE('',*,*,#914,.T.);
#1188=ORIENTED_EDGE('',*,*,#891,.F.);
#1189=ORIENTED_EDGE('',*,*,#897,.F.);
#1190=ORIENTED_EDGE('',*,*,#915,.F.);
#1191=ORIENTED_EDGE('',*,*,#916,.T.);
#1192=ORIENTED_EDGE('',*,*,#915,.T.);
#1193=ORIENTED_EDGE('',*,*,#896,.F.);
#1194=ORIENTED_EDGE('',*,*,#911,.F.);
#1195=ORIENTED_EDGE('',*,*,#917,.T.);
#1196=ORIENTED_EDGE('',*,*,#913,.F.);
#1197=ORIENTED_EDGE('',*,*,#916,.F.);
#1198=ORIENTED_EDGE('',*,*,#910,.F.);
#1199=ORIENTED_EDGE('',*,*,#909,.T.);
#1200=ORIENTED_EDGE('',*,*,#918,.T.);
#1201=ORIENTED_EDGE('',*,*,#919,.T.);
#1202=ORIENTED_EDGE('',*,*,#920,.T.);
#1203=ORIENTED_EDGE('',*,*,#816,.F.);
#1204=ORIENTED_EDGE('',*,*,#921,.T.);
#1205=ORIENTED_EDGE('',*,*,#902,.F.);
#1206=ORIENTED_EDGE('',*,*,#901,.T.);
#1207=ORIENTED_EDGE('',*,*,#889,.T.);
#1208=ORIENTED_EDGE('',*,*,#881,.T.);
#1209=ORIENTED_EDGE('',*,*,#922,.F.);
#1210=ORIENTED_EDGE('',*,*,#817,.F.);
#1211=ORIENTED_EDGE('',*,*,#922,.T.);
#1212=ORIENTED_EDGE('',*,*,#884,.T.);
#1213=ORIENTED_EDGE('',*,*,#886,.F.);
#1214=ORIENTED_EDGE('',*,*,#923,.F.);
#1215=ORIENTED_EDGE('',*,*,#818,.F.);
#1216=ORIENTED_EDGE('',*,*,#923,.T.);
#1217=ORIENTED_EDGE('',*,*,#885,.F.);
#1218=ORIENTED_EDGE('',*,*,#900,.F.);
#1219=ORIENTED_EDGE('',*,*,#908,.F.);
#1220=ORIENTED_EDGE('',*,*,#924,.F.);
#1221=ORIENTED_EDGE('',*,*,#819,.F.);
#1222=ORIENTED_EDGE('',*,*,#924,.T.);
#1223=ORIENTED_EDGE('',*,*,#907,.F.);
#1224=ORIENTED_EDGE('',*,*,#925,.F.);
#1225=ORIENTED_EDGE('',*,*,#820,.F.);
#1226=ORIENTED_EDGE('',*,*,#925,.T.);
#1227=ORIENTED_EDGE('',*,*,#906,.F.);
#1228=ORIENTED_EDGE('',*,*,#926,.F.);
#1229=ORIENTED_EDGE('',*,*,#821,.F.);
#1230=ORIENTED_EDGE('',*,*,#926,.T.);
#1231=ORIENTED_EDGE('',*,*,#905,.F.);
#1232=ORIENTED_EDGE('',*,*,#917,.F.);
#1233=ORIENTED_EDGE('',*,*,#920,.F.);
#1234=ORIENTED_EDGE('',*,*,#927,.F.);
#1235=ORIENTED_EDGE('',*,*,#825,.F.);
#1236=ORIENTED_EDGE('',*,*,#824,.F.);
#1237=ORIENTED_EDGE('',*,*,#928,.F.);
#1238=ORIENTED_EDGE('',*,*,#929,.T.);
#1239=ORIENTED_EDGE('',*,*,#846,.F.);
#1240=ORIENTED_EDGE('',*,*,#930,.F.);
#1241=ORIENTED_EDGE('',*,*,#931,.F.);
#1242=ORIENTED_EDGE('',*,*,#930,.T.);
#1243=ORIENTED_EDGE('',*,*,#845,.F.);
#1244=ORIENTED_EDGE('',*,*,#932,.F.);
#1245=ORIENTED_EDGE('',*,*,#933,.F.);
#1246=ORIENTED_EDGE('',*,*,#932,.T.);
#1247=ORIENTED_EDGE('',*,*,#844,.F.);
#1248=ORIENTED_EDGE('',*,*,#934,.F.);
#1249=ORIENTED_EDGE('',*,*,#935,.F.);
#1250=ORIENTED_EDGE('',*,*,#934,.T.);
#1251=ORIENTED_EDGE('',*,*,#843,.F.);
#1252=ORIENTED_EDGE('',*,*,#936,.F.);
#1253=ORIENTED_EDGE('',*,*,#937,.F.);
#1254=ORIENTED_EDGE('',*,*,#936,.T.);
#1255=ORIENTED_EDGE('',*,*,#842,.F.);
#1256=ORIENTED_EDGE('',*,*,#938,.F.);
#1257=ORIENTED_EDGE('',*,*,#939,.F.);
#1258=ORIENTED_EDGE('',*,*,#938,.T.);
#1259=ORIENTED_EDGE('',*,*,#841,.F.);
#1260=ORIENTED_EDGE('',*,*,#940,.F.);
#1261=ORIENTED_EDGE('',*,*,#941,.F.);
#1262=ORIENTED_EDGE('',*,*,#940,.T.);
#1263=ORIENTED_EDGE('',*,*,#840,.F.);
#1264=ORIENTED_EDGE('',*,*,#942,.F.);
#1265=ORIENTED_EDGE('',*,*,#943,.F.);
#1266=ORIENTED_EDGE('',*,*,#942,.T.);
#1267=ORIENTED_EDGE('',*,*,#839,.F.);
#1268=ORIENTED_EDGE('',*,*,#944,.F.);
#1269=ORIENTED_EDGE('',*,*,#945,.F.);
#1270=ORIENTED_EDGE('',*,*,#944,.T.);
#1271=ORIENTED_EDGE('',*,*,#838,.F.);
#1272=ORIENTED_EDGE('',*,*,#946,.F.);
#1273=ORIENTED_EDGE('',*,*,#947,.F.);
#1274=ORIENTED_EDGE('',*,*,#946,.T.);
#1275=ORIENTED_EDGE('',*,*,#837,.F.);
#1276=ORIENTED_EDGE('',*,*,#948,.F.);
#1277=ORIENTED_EDGE('',*,*,#949,.F.);
#1278=ORIENTED_EDGE('',*,*,#948,.T.);
#1279=ORIENTED_EDGE('',*,*,#836,.F.);
#1280=ORIENTED_EDGE('',*,*,#950,.F.);
#1281=ORIENTED_EDGE('',*,*,#951,.F.);
#1282=ORIENTED_EDGE('',*,*,#950,.T.);
#1283=ORIENTED_EDGE('',*,*,#835,.F.);
#1284=ORIENTED_EDGE('',*,*,#952,.F.);
#1285=ORIENTED_EDGE('',*,*,#953,.F.);
#1286=ORIENTED_EDGE('',*,*,#952,.T.);
#1287=ORIENTED_EDGE('',*,*,#834,.F.);
#1288=ORIENTED_EDGE('',*,*,#954,.F.);
#1289=ORIENTED_EDGE('',*,*,#955,.F.);
#1290=ORIENTED_EDGE('',*,*,#954,.T.);
#1291=ORIENTED_EDGE('',*,*,#833,.F.);
#1292=ORIENTED_EDGE('',*,*,#956,.F.);
#1293=ORIENTED_EDGE('',*,*,#957,.F.);
#1294=ORIENTED_EDGE('',*,*,#956,.T.);
#1295=ORIENTED_EDGE('',*,*,#832,.F.);
#1296=ORIENTED_EDGE('',*,*,#958,.F.);
#1297=ORIENTED_EDGE('',*,*,#959,.F.);
#1298=ORIENTED_EDGE('',*,*,#958,.T.);
#1299=ORIENTED_EDGE('',*,*,#831,.F.);
#1300=ORIENTED_EDGE('',*,*,#960,.F.);
#1301=ORIENTED_EDGE('',*,*,#961,.F.);
#1302=ORIENTED_EDGE('',*,*,#960,.T.);
#1303=ORIENTED_EDGE('',*,*,#830,.F.);
#1304=ORIENTED_EDGE('',*,*,#962,.F.);
#1305=ORIENTED_EDGE('',*,*,#963,.F.);
#1306=ORIENTED_EDGE('',*,*,#962,.T.);
#1307=ORIENTED_EDGE('',*,*,#829,.F.);
#1308=ORIENTED_EDGE('',*,*,#964,.F.);
#1309=ORIENTED_EDGE('',*,*,#965,.F.);
#1310=ORIENTED_EDGE('',*,*,#964,.T.);
#1311=ORIENTED_EDGE('',*,*,#828,.F.);
#1312=ORIENTED_EDGE('',*,*,#966,.F.);
#1313=ORIENTED_EDGE('',*,*,#967,.F.);
#1314=ORIENTED_EDGE('',*,*,#966,.T.);
#1315=ORIENTED_EDGE('',*,*,#827,.F.);
#1316=ORIENTED_EDGE('',*,*,#968,.F.);
#1317=ORIENTED_EDGE('',*,*,#969,.F.);
#1318=ORIENTED_EDGE('',*,*,#968,.T.);
#1319=ORIENTED_EDGE('',*,*,#826,.F.);
#1320=ORIENTED_EDGE('',*,*,#927,.T.);
#1321=ORIENTED_EDGE('',*,*,#919,.F.);
#1322=ORIENTED_EDGE('',*,*,#970,.F.);
#1323=ORIENTED_EDGE('',*,*,#971,.F.);
#1324=ORIENTED_EDGE('',*,*,#970,.T.);
#1325=ORIENTED_EDGE('',*,*,#918,.F.);
#1326=ORIENTED_EDGE('',*,*,#912,.T.);
#1327=ORIENTED_EDGE('',*,*,#894,.F.);
#1328=ORIENTED_EDGE('',*,*,#972,.F.);
#1329=ORIENTED_EDGE('',*,*,#973,.F.);
#1330=ORIENTED_EDGE('',*,*,#972,.T.);
#1331=ORIENTED_EDGE('',*,*,#893,.F.);
#1332=ORIENTED_EDGE('',*,*,#974,.F.);
#1333=ORIENTED_EDGE('',*,*,#975,.F.);
#1334=ORIENTED_EDGE('',*,*,#974,.T.);
#1335=ORIENTED_EDGE('',*,*,#892,.F.);
#1336=ORIENTED_EDGE('',*,*,#914,.F.);
#1337=ORIENTED_EDGE('',*,*,#903,.F.);
#1338=ORIENTED_EDGE('',*,*,#921,.F.);
#1339=ORIENTED_EDGE('',*,*,#815,.F.);
#1340=ORIENTED_EDGE('',*,*,#929,.F.);
#1341=ORIENTED_EDGE('',*,*,#975,.T.);
#1342=ORIENTED_EDGE('',*,*,#928,.T.);
#1343=ORIENTED_EDGE('',*,*,#931,.T.);
#1344=ORIENTED_EDGE('',*,*,#933,.T.);
#1345=ORIENTED_EDGE('',*,*,#935,.T.);
#1346=ORIENTED_EDGE('',*,*,#937,.T.);
#1347=ORIENTED_EDGE('',*,*,#939,.T.);
#1348=ORIENTED_EDGE('',*,*,#941,.T.);
#1349=ORIENTED_EDGE('',*,*,#943,.T.);
#1350=ORIENTED_EDGE('',*,*,#945,.T.);
#1351=ORIENTED_EDGE('',*,*,#947,.T.);
#1352=ORIENTED_EDGE('',*,*,#949,.T.);
#1353=ORIENTED_EDGE('',*,*,#951,.T.);
#1354=ORIENTED_EDGE('',*,*,#953,.T.);
#1355=ORIENTED_EDGE('',*,*,#955,.T.);
#1356=ORIENTED_EDGE('',*,*,#957,.T.);
#1357=ORIENTED_EDGE('',*,*,#959,.T.);
#1358=ORIENTED_EDGE('',*,*,#961,.T.);
#1359=ORIENTED_EDGE('',*,*,#963,.T.);
#1360=ORIENTED_EDGE('',*,*,#965,.T.);
#1361=ORIENTED_EDGE('',*,*,#967,.T.);
#1362=ORIENTED_EDGE('',*,*,#969,.T.);
#1363=ORIENTED_EDGE('',*,*,#971,.T.);
#1364=ORIENTED_EDGE('',*,*,#973,.T.);
#1365=ORIENTED_EDGE('',*,*,#805,.T.);
#1366=ORIENTED_EDGE('',*,*,#859,.T.);
#1367=ORIENTED_EDGE('',*,*,#862,.T.);
#1368=ORIENTED_EDGE('',*,*,#865,.T.);
#1369=ORIENTED_EDGE('',*,*,#868,.T.);
#1370=ORIENTED_EDGE('',*,*,#871,.T.);
#1371=ORIENTED_EDGE('',*,*,#874,.T.);
#1372=CYLINDRICAL_SURFACE('',#1492,0.075);
#1373=CYLINDRICAL_SURFACE('',#1496,0.075);
#1374=CYLINDRICAL_SURFACE('',#1500,0.075);
#1375=CYLINDRICAL_SURFACE('',#1504,0.075);
#1376=CYLINDRICAL_SURFACE('',#1508,0.075);
#1377=CYLINDRICAL_SURFACE('',#1512,0.075);
#1378=CYLINDRICAL_SURFACE('',#1516,0.075);
#1379=CYLINDRICAL_SURFACE('',#1520,0.075);
#1380=CYLINDRICAL_SURFACE('',#1524,0.075);
#1381=CYLINDRICAL_SURFACE('',#1528,0.376);
#1382=CYLINDRICAL_SURFACE('',#1531,0.17);
#1383=CYLINDRICAL_SURFACE('',#1534,0.17);
#1384=CYLINDRICAL_SURFACE('',#1545,0.17);
#1385=CYLINDRICAL_SURFACE('',#1547,0.17);
#1386=CYLINDRICAL_SURFACE('',#1549,0.17);
#1387=CYLINDRICAL_SURFACE('',#1551,0.17);
#1388=CYLINDRICAL_SURFACE('',#1553,0.4);
#1389=CYLINDRICAL_SURFACE('',#1557,0.4);
#1390=CYLINDRICAL_SURFACE('',#1561,0.4);
#1391=CYLINDRICAL_SURFACE('',#1565,0.4);
#1392=CYLINDRICAL_SURFACE('',#1569,0.4);
#1393=CYLINDRICAL_SURFACE('',#1573,0.4);
#1394=ADVANCED_FACE('',(#105),#1372,.F.);
#1395=ADVANCED_FACE('',(#106),#45,.F.);
#1396=ADVANCED_FACE('',(#107),#1373,.F.);
#1397=ADVANCED_FACE('',(#108),#46,.F.);
#1398=ADVANCED_FACE('',(#109),#1374,.F.);
#1399=ADVANCED_FACE('',(#110),#47,.F.);
#1400=ADVANCED_FACE('',(#111),#1375,.F.);
#1401=ADVANCED_FACE('',(#112),#48,.F.);
#1402=ADVANCED_FACE('',(#113),#1376,.F.);
#1403=ADVANCED_FACE('',(#114),#49,.F.);
#1404=ADVANCED_FACE('',(#115),#1377,.F.);
#1405=ADVANCED_FACE('',(#116),#50,.F.);
#1406=ADVANCED_FACE('',(#117),#1378,.F.);
#1407=ADVANCED_FACE('',(#118),#51,.F.);
#1408=ADVANCED_FACE('',(#119),#1379,.F.);
#1409=ADVANCED_FACE('',(#120),#52,.F.);
#1410=ADVANCED_FACE('',(#121),#1380,.F.);
#1411=ADVANCED_FACE('',(#122),#53,.F.);
#1412=ADVANCED_FACE('',(#123),#1381,.F.);
#1413=ADVANCED_FACE('',(#124),#1382,.F.);
#1414=ADVANCED_FACE('',(#125),#1383,.F.);
#1415=ADVANCED_FACE('',(#126,#17,#18,#19,#20,#21,#22,#23,#24,#25,#26,#27,
#28,#29,#30,#31),#54,.T.);
#1416=ADVANCED_FACE('',(#127),#1384,.F.);
#1417=ADVANCED_FACE('',(#128),#1385,.F.);
#1418=ADVANCED_FACE('',(#129),#1386,.F.);
#1419=ADVANCED_FACE('',(#130),#1387,.F.);
#1420=ADVANCED_FACE('',(#131),#1388,.T.);
#1421=ADVANCED_FACE('',(#132,#32),#55,.T.);
#1422=ADVANCED_FACE('',(#133),#1389,.T.);
#1423=ADVANCED_FACE('',(#134,#33),#56,.T.);
#1424=ADVANCED_FACE('',(#135),#1390,.T.);
#1425=ADVANCED_FACE('',(#136,#34),#57,.T.);
#1426=ADVANCED_FACE('',(#137),#1391,.T.);
#1427=ADVANCED_FACE('',(#138,#35),#58,.T.);
#1428=ADVANCED_FACE('',(#139),#1392,.T.);
#1429=ADVANCED_FACE('',(#140,#36),#59,.T.);
#1430=ADVANCED_FACE('',(#141),#1393,.T.);
#1431=ADVANCED_FACE('',(#142,#37),#60,.T.);
#1432=ADVANCED_FACE('',(#143),#15,.T.);
#1433=ADVANCED_FACE('',(#144),#61,.T.);
#1434=ADVANCED_FACE('',(#145),#16,.T.);
#1435=ADVANCED_FACE('',(#146),#62,.T.);
#1436=ADVANCED_FACE('',(#147),#63,.F.);
#1437=ADVANCED_FACE('',(#148),#64,.F.);
#1438=ADVANCED_FACE('',(#149),#65,.T.);
#1439=ADVANCED_FACE('',(#150),#66,.T.);
#1440=ADVANCED_FACE('',(#151),#67,.T.);
#1441=ADVANCED_FACE('',(#152),#68,.T.);
#1442=ADVANCED_FACE('',(#153),#69,.T.);
#1443=ADVANCED_FACE('',(#154),#70,.T.);
#1444=ADVANCED_FACE('',(#155),#71,.T.);
#1445=ADVANCED_FACE('',(#156),#72,.F.);
#1446=ADVANCED_FACE('',(#157),#73,.T.);
#1447=ADVANCED_FACE('',(#158),#74,.T.);
#1448=ADVANCED_FACE('',(#159),#75,.T.);
#1449=ADVANCED_FACE('',(#160),#76,.T.);
#1450=ADVANCED_FACE('',(#161),#77,.T.);
#1451=ADVANCED_FACE('',(#162),#78,.T.);
#1452=ADVANCED_FACE('',(#163),#79,.T.);
#1453=ADVANCED_FACE('',(#164),#80,.T.);
#1454=ADVANCED_FACE('',(#165),#81,.T.);
#1455=ADVANCED_FACE('',(#166),#82,.T.);
#1456=ADVANCED_FACE('',(#167),#83,.T.);
#1457=ADVANCED_FACE('',(#168),#84,.T.);
#1458=ADVANCED_FACE('',(#169),#85,.T.);
#1459=ADVANCED_FACE('',(#170),#86,.T.);
#1460=ADVANCED_FACE('',(#171),#87,.T.);
#1461=ADVANCED_FACE('',(#172),#88,.T.);
#1462=ADVANCED_FACE('',(#173),#89,.T.);
#1463=ADVANCED_FACE('',(#174),#90,.T.);
#1464=ADVANCED_FACE('',(#175),#91,.T.);
#1465=ADVANCED_FACE('',(#176),#92,.T.);
#1466=ADVANCED_FACE('',(#177),#93,.T.);
#1467=ADVANCED_FACE('',(#178),#94,.T.);
#1468=ADVANCED_FACE('',(#179),#95,.T.);
#1469=ADVANCED_FACE('',(#180),#96,.T.);
#1470=ADVANCED_FACE('',(#181),#97,.T.);
#1471=ADVANCED_FACE('',(#182),#98,.T.);
#1472=ADVANCED_FACE('',(#183),#99,.T.);
#1473=ADVANCED_FACE('',(#184),#100,.T.);
#1474=ADVANCED_FACE('',(#185),#101,.T.);
#1475=ADVANCED_FACE('',(#186),#102,.T.);
#1476=ADVANCED_FACE('',(#187),#103,.T.);
#1477=ADVANCED_FACE('',(#188,#38,#39,#40,#41,#42,#43,#44),#104,.F.);
#1478=CLOSED_SHELL('',(#1394,#1395,#1396,#1397,#1398,#1399,#1400,#1401,
#1402,#1403,#1404,#1405,#1406,#1407,#1408,#1409,#1410,#1411,#1412,#1413,
#1414,#1415,#1416,#1417,#1418,#1419,#1420,#1421,#1422,#1423,#1424,#1425,
#1426,#1427,#1428,#1429,#1430,#1431,#1432,#1433,#1434,#1435,#1436,#1437,
#1438,#1439,#1440,#1441,#1442,#1443,#1444,#1445,#1446,#1447,#1448,#1449,
#1450,#1451,#1452,#1453,#1454,#1455,#1456,#1457,#1458,#1459,#1460,#1461,
#1462,#1463,#1464,#1465,#1466,#1467,#1468,#1469,#1470,#1471,#1472,#1473,
#1474,#1475,#1476,#1477));
#1479=DERIVED_UNIT_ELEMENT(#1481,1.);
#1480=DERIVED_UNIT_ELEMENT(#2460,-3.);
#1481=(
MASS_UNIT()
NAMED_UNIT(*)
SI_UNIT(.KILO.,.GRAM.)
);
#1482=DERIVED_UNIT((#1479,#1480));
#1483=MEASURE_REPRESENTATION_ITEM('density measure',
POSITIVE_RATIO_MEASURE(7850.),#1482);
#1484=PROPERTY_DEFINITION_REPRESENTATION(#1489,#1486);
#1485=PROPERTY_DEFINITION_REPRESENTATION(#1490,#1487);
#1486=REPRESENTATION('material name',(#1488),#2457);
#1487=REPRESENTATION('density',(#1483),#2457);
#1488=DESCRIPTIVE_REPRESENTATION_ITEM('Steel','Steel');
#1489=PROPERTY_DEFINITION('material property','material name',#2467);
#1490=PROPERTY_DEFINITION('material property','density of part',#2467);
#1491=AXIS2_PLACEMENT_3D('',#2042,#1625,#1626);
#1492=AXIS2_PLACEMENT_3D('',#2043,#1627,#1628);
#1493=AXIS2_PLACEMENT_3D('',#2045,#1629,#1630);
#1494=AXIS2_PLACEMENT_3D('',#2048,#1632,#1633);
#1495=AXIS2_PLACEMENT_3D('',#2049,#1634,#1635);
#1496=AXIS2_PLACEMENT_3D('',#2050,#1636,#1637);
#1497=AXIS2_PLACEMENT_3D('',#2052,#1638,#1639);
#1498=AXIS2_PLACEMENT_3D('',#2055,#1641,#1642);
#1499=AXIS2_PLACEMENT_3D('',#2056,#1643,#1644);
#1500=AXIS2_PLACEMENT_3D('',#2057,#1645,#1646);
#1501=AXIS2_PLACEMENT_3D('',#2059,#1647,#1648);
#1502=AXIS2_PLACEMENT_3D('',#2062,#1650,#1651);
#1503=AXIS2_PLACEMENT_3D('',#2063,#1652,#1653);
#1504=AXIS2_PLACEMENT_3D('',#2064,#1654,#1655);
#1505=AXIS2_PLACEMENT_3D('',#2066,#1656,#1657);
#1506=AXIS2_PLACEMENT_3D('',#2069,#1659,#1660);
#1507=AXIS2_PLACEMENT_3D('',#2070,#1661,#1662);
#1508=AXIS2_PLACEMENT_3D('',#2071,#1663,#1664);
#1509=AXIS2_PLACEMENT_3D('',#2073,#1665,#1666);
#1510=AXIS2_PLACEMENT_3D('',#2076,#1668,#1669);
#1511=AXIS2_PLACEMENT_3D('',#2077,#1670,#1671);
#1512=AXIS2_PLACEMENT_3D('',#2078,#1672,#1673);
#1513=AXIS2_PLACEMENT_3D('',#2080,#1674,#1675);
#1514=AXIS2_PLACEMENT_3D('',#2083,#1677,#1678);
#1515=AXIS2_PLACEMENT_3D('',#2084,#1679,#1680);
#1516=AXIS2_PLACEMENT_3D('',#2085,#1681,#1682);
#1517=AXIS2_PLACEMENT_3D('',#2087,#1683,#1684);
#1518=AXIS2_PLACEMENT_3D('',#2090,#1686,#1687);
#1519=AXIS2_PLACEMENT_3D('',#2091,#1688,#1689);
#1520=AXIS2_PLACEMENT_3D('',#2092,#1690,#1691);
#1521=AXIS2_PLACEMENT_3D('',#2094,#1692,#1693);
#1522=AXIS2_PLACEMENT_3D('',#2097,#1695,#1696);
#1523=AXIS2_PLACEMENT_3D('',#2098,#1697,#1698);
#1524=AXIS2_PLACEMENT_3D('',#2099,#1699,#1700);
#1525=AXIS2_PLACEMENT_3D('',#2101,#1701,#1702);
#1526=AXIS2_PLACEMENT_3D('',#2104,#1704,#1705);
#1527=AXIS2_PLACEMENT_3D('',#2105,#1706,#1707);
#1528=AXIS2_PLACEMENT_3D('',#2106,#1708,#1709);
#1529=AXIS2_PLACEMENT_3D('',#2108,#1710,#1711);
#1530=AXIS2_PLACEMENT_3D('',#2111,#1713,#1714);
#1531=AXIS2_PLACEMENT_3D('',#2112,#1715,#1716);
#1532=AXIS2_PLACEMENT_3D('',#2114,#1717,#1718);
#1533=AXIS2_PLACEMENT_3D('',#2117,#1720,#1721);
#1534=AXIS2_PLACEMENT_3D('',#2118,#1722,#1723);
#1535=AXIS2_PLACEMENT_3D('',#2120,#1724,#1725);
#1536=AXIS2_PLACEMENT_3D('',#2124,#1727,#1728);
#1537=AXIS2_PLACEMENT_3D('',#2125,#1729,#1730);
#1538=AXIS2_PLACEMENT_3D('',#2126,#1731,#1732);
#1539=AXIS2_PLACEMENT_3D('',#2143,#1740,#1741);
#1540=AXIS2_PLACEMENT_3D('',#2144,#1742,#1743);
#1541=AXIS2_PLACEMENT_3D('',#2190,#1767,#1768);
#1542=AXIS2_PLACEMENT_3D('',#2192,#1769,#1770);
#1543=AXIS2_PLACEMENT_3D('',#2194,#1771,#1772);
#1544=AXIS2_PLACEMENT_3D('',#2196,#1773,#1774);
#1545=AXIS2_PLACEMENT_3D('',#2197,#1775,#1776);
#1546=AXIS2_PLACEMENT_3D('',#2199,#1777,#1778);
#1547=AXIS2_PLACEMENT_3D('',#2201,#1780,#1781);
#1548=AXIS2_PLACEMENT_3D('',#2203,#1782,#1783);
#1549=AXIS2_PLACEMENT_3D('',#2205,#1785,#1786);
#1550=AXIS2_PLACEMENT_3D('',#2207,#1787,#1788);
#1551=AXIS2_PLACEMENT_3D('',#2209,#1790,#1791);
#1552=AXIS2_PLACEMENT_3D('',#2211,#1792,#1793);
#1553=AXIS2_PLACEMENT_3D('',#2213,#1795,#1796);
#1554=AXIS2_PLACEMENT_3D('',#2215,#1797,#1798);
#1555=AXIS2_PLACEMENT_3D('',#2218,#1800,#1801);
#1556=AXIS2_PLACEMENT_3D('',#2219,#1802,#1803);
#1557=AXIS2_PLACEMENT_3D('',#2220,#1804,#1805);
#1558=AXIS2_PLACEMENT_3D('',#2222,#1806,#1807);
#1559=AXIS2_PLACEMENT_3D('',#2225,#1809,#1810);
#1560=AXIS2_PLACEMENT_3D('',#2226,#1811,#1812);
#1561=AXIS2_PLACEMENT_3D('',#2227,#1813,#1814);
#1562=AXIS2_PLACEMENT_3D('',#2229,#1815,#1816);
#1563=AXIS2_PLACEMENT_3D('',#2232,#1818,#1819);
#1564=AXIS2_PLACEMENT_3D('',#2233,#1820,#1821);
#1565=AXIS2_PLACEMENT_3D('',#2234,#1822,#1823);
#1566=AXIS2_PLACEMENT_3D('',#2236,#1824,#1825);
#1567=AXIS2_PLACEMENT_3D('',#2239,#1827,#1828);
#1568=AXIS2_PLACEMENT_3D('',#2240,#1829,#1830);
#1569=AXIS2_PLACEMENT_3D('',#2241,#1831,#1832);
#1570=AXIS2_PLACEMENT_3D('',#2243,#1833,#1834);
#1571=AXIS2_PLACEMENT_3D('',#2246,#1836,#1837);
#1572=AXIS2_PLACEMENT_3D('',#2247,#1838,#1839);
#1573=AXIS2_PLACEMENT_3D('',#2248,#1840,#1841);
#1574=AXIS2_PLACEMENT_3D('',#2250,#1842,#1843);
#1575=AXIS2_PLACEMENT_3D('',#2253,#1845,#1846);
#1576=AXIS2_PLACEMENT_3D('',#2254,#1847,#1848);
#1577=AXIS2_PLACEMENT_3D('',#2255,#1849,#1850);
#1578=AXIS2_PLACEMENT_3D('',#2257,#1851,#1852);
#1579=AXIS2_PLACEMENT_3D('',#2260,#1854,#1855);
#1580=AXIS2_PLACEMENT_3D('',#2261,#1856,#1857);
#1581=AXIS2_PLACEMENT_3D('',#2262,#1858,#1859);
#1582=AXIS2_PLACEMENT_3D('',#2264,#1861,#1862);
#1583=AXIS2_PLACEMENT_3D('',#2273,#1867,#1868);
#1584=AXIS2_PLACEMENT_3D('',#2279,#1872,#1873);
#1585=AXIS2_PLACEMENT_3D('',#2283,#1876,#1877);
#1586=AXIS2_PLACEMENT_3D('',#2296,#1884,#1885);
#1587=AXIS2_PLACEMENT_3D('',#2302,#1889,#1890);
#1588=AXIS2_PLACEMENT_3D('',#2308,#1894,#1895);
#1589=AXIS2_PLACEMENT_3D('',#2322,#1903,#1904);
#1590=AXIS2_PLACEMENT_3D('',#2330,#1909,#1910);
#1591=AXIS2_PLACEMENT_3D('',#2335,#1914,#1915);
#1592=AXIS2_PLACEMENT_3D('',#2337,#1917,#1918);
#1593=AXIS2_PLACEMENT_3D('',#2339,#1920,#1921);
#1594=AXIS2_PLACEMENT_3D('',#2345,#1925,#1926);
#1595=AXIS2_PLACEMENT_3D('',#2348,#1929,#1930);
#1596=AXIS2_PLACEMENT_3D('',#2350,#1932,#1933);
#1597=AXIS2_PLACEMENT_3D('',#2352,#1935,#1936);
#1598=AXIS2_PLACEMENT_3D('',#2354,#1938,#1939);
#1599=AXIS2_PLACEMENT_3D('',#2356,#1941,#1942);
#1600=AXIS2_PLACEMENT_3D('',#2358,#1944,#1945);
#1601=AXIS2_PLACEMENT_3D('',#2364,#1949,#1950);
#1602=AXIS2_PLACEMENT_3D('',#2368,#1953,#1954);
#1603=AXIS2_PLACEMENT_3D('',#2372,#1957,#1958);
#1604=AXIS2_PLACEMENT_3D('',#2376,#1961,#1962);
#1605=AXIS2_PLACEMENT_3D('',#2380,#1965,#1966);
#1606=AXIS2_PLACEMENT_3D('',#2384,#1969,#1970);
#1607=AXIS2_PLACEMENT_3D('',#2388,#1973,#1974);
#1608=AXIS2_PLACEMENT_3D('',#2392,#1977,#1978);
#1609=AXIS2_PLACEMENT_3D('',#2396,#1981,#1982);
#1610=AXIS2_PLACEMENT_3D('',#2400,#1985,#1986);
#1611=AXIS2_PLACEMENT_3D('',#2404,#1989,#1990);
#1612=AXIS2_PLACEMENT_3D('',#2408,#1993,#1994);
#1613=AXIS2_PLACEMENT_3D('',#2412,#1997,#1998);
#1614=AXIS2_PLACEMENT_3D('',#2416,#2001,#2002);
#1615=AXIS2_PLACEMENT_3D('',#2420,#2005,#2006);
#1616=AXIS2_PLACEMENT_3D('',#2424,#2009,#2010);
#1617=AXIS2_PLACEMENT_3D('',#2428,#2013,#2014);
#1618=AXIS2_PLACEMENT_3D('',#2432,#2017,#2018);
#1619=AXIS2_PLACEMENT_3D('',#2436,#2021,#2022);
#1620=AXIS2_PLACEMENT_3D('',#2440,#2025,#2026);
#1621=AXIS2_PLACEMENT_3D('',#2444,#2029,#2030);
#1622=AXIS2_PLACEMENT_3D('',#2448,#2033,#2034);
#1623=AXIS2_PLACEMENT_3D('',#2452,#2037,#2038);
#1624=AXIS2_PLACEMENT_3D('',#2454,#2040,#2041);
#1625=DIRECTION('axis',(0.,0.,1.));
#1626=DIRECTION('refdir',(1.,0.,0.));
#1627=DIRECTION('center_axis',(0.,-1.,0.));
#1628=DIRECTION('ref_axis',(1.,0.,0.));
#1629=DIRECTION('center_axis',(0.,-1.,0.));
#1630=DIRECTION('ref_axis',(1.,0.,0.));
#1631=DIRECTION('',(0.,-1.,0.));
#1632=DIRECTION('center_axis',(0.,-1.,0.));
#1633=DIRECTION('ref_axis',(1.,0.,0.));
#1634=DIRECTION('center_axis',(0.,-1.,0.));
#1635=DIRECTION('ref_axis',(1.,0.,0.));
#1636=DIRECTION('center_axis',(0.,-1.,0.));
#1637=DIRECTION('ref_axis',(1.,0.,0.));
#1638=DIRECTION('center_axis',(0.,-1.,0.));
#1639=DIRECTION('ref_axis',(1.,0.,0.));
#1640=DIRECTION('',(0.,-1.,0.));
#1641=DIRECTION('center_axis',(0.,-1.,0.));
#1642=DIRECTION('ref_axis',(1.,0.,0.));
#1643=DIRECTION('center_axis',(0.,-1.,0.));
#1644=DIRECTION('ref_axis',(1.,0.,0.));
#1645=DIRECTION('center_axis',(0.,-1.,0.));
#1646=DIRECTION('ref_axis',(1.,0.,0.));
#1647=DIRECTION('center_axis',(0.,-1.,0.));
#1648=DIRECTION('ref_axis',(1.,0.,0.));
#1649=DIRECTION('',(0.,-1.,0.));
#1650=DIRECTION('center_axis',(0.,-1.,0.));
#1651=DIRECTION('ref_axis',(1.,0.,0.));
#1652=DIRECTION('center_axis',(0.,-1.,0.));
#1653=DIRECTION('ref_axis',(1.,0.,0.));
#1654=DIRECTION('center_axis',(0.,-1.,0.));
#1655=DIRECTION('ref_axis',(1.,0.,0.));
#1656=DIRECTION('center_axis',(0.,-1.,0.));
#1657=DIRECTION('ref_axis',(1.,0.,0.));
#1658=DIRECTION('',(0.,-1.,0.));
#1659=DIRECTION('center_axis',(0.,-1.,0.));
#1660=DIRECTION('ref_axis',(1.,0.,0.));
#1661=DIRECTION('center_axis',(0.,-1.,0.));
#1662=DIRECTION('ref_axis',(1.,0.,0.));
#1663=DIRECTION('center_axis',(0.,-1.,0.));
#1664=DIRECTION('ref_axis',(1.,0.,0.));
#1665=DIRECTION('center_axis',(0.,-1.,0.));
#1666=DIRECTION('ref_axis',(1.,0.,0.));
#1667=DIRECTION('',(0.,-1.,0.));
#1668=DIRECTION('center_axis',(0.,-1.,0.));
#1669=DIRECTION('ref_axis',(1.,0.,0.));
#1670=DIRECTION('center_axis',(0.,-1.,0.));
#1671=DIRECTION('ref_axis',(1.,0.,0.));
#1672=DIRECTION('center_axis',(0.,-1.,0.));
#1673=DIRECTION('ref_axis',(1.,0.,0.));
#1674=DIRECTION('center_axis',(0.,-1.,0.));
#1675=DIRECTION('ref_axis',(1.,0.,0.));
#1676=DIRECTION('',(0.,-1.,0.));
#1677=DIRECTION('center_axis',(0.,-1.,0.));
#1678=DIRECTION('ref_axis',(1.,0.,0.));
#1679=DIRECTION('center_axis',(0.,-1.,0.));
#1680=DIRECTION('ref_axis',(1.,0.,0.));
#1681=DIRECTION('center_axis',(0.,-1.,0.));
#1682=DIRECTION('ref_axis',(1.,0.,0.));
#1683=DIRECTION('center_axis',(0.,-1.,0.));
#1684=DIRECTION('ref_axis',(1.,0.,0.));
#1685=DIRECTION('',(0.,-1.,0.));
#1686=DIRECTION('center_axis',(0.,-1.,0.));
#1687=DIRECTION('ref_axis',(1.,0.,0.));
#1688=DIRECTION('center_axis',(0.,-1.,0.));
#1689=DIRECTION('ref_axis',(1.,0.,0.));
#1690=DIRECTION('center_axis',(0.,-1.,0.));
#1691=DIRECTION('ref_axis',(1.,0.,0.));
#1692=DIRECTION('center_axis',(0.,-1.,0.));
#1693=DIRECTION('ref_axis',(1.,0.,0.));
#1694=DIRECTION('',(0.,-1.,0.));
#1695=DIRECTION('center_axis',(0.,-1.,0.));
#1696=DIRECTION('ref_axis',(1.,0.,0.));
#1697=DIRECTION('center_axis',(0.,-1.,0.));
#1698=DIRECTION('ref_axis',(1.,0.,0.));
#1699=DIRECTION('center_axis',(0.,-1.,0.));
#1700=DIRECTION('ref_axis',(1.,0.,0.));
#1701=DIRECTION('center_axis',(0.,-1.,0.));
#1702=DIRECTION('ref_axis',(1.,0.,0.));
#1703=DIRECTION('',(0.,-1.,0.));
#1704=DIRECTION('center_axis',(0.,-1.,0.));
#1705=DIRECTION('ref_axis',(1.,0.,0.));
#1706=DIRECTION('center_axis',(0.,-1.,0.));
#1707=DIRECTION('ref_axis',(1.,0.,0.));
#1708=DIRECTION('center_axis',(0.,1.,0.));
#1709=DIRECTION('ref_axis',(1.,0.,0.));
#1710=DIRECTION('center_axis',(0.,1.,0.));
#1711=DIRECTION('ref_axis',(1.,0.,0.));
#1712=DIRECTION('',(0.,1.,0.));
#1713=DIRECTION('center_axis',(0.,-1.,0.));
#1714=DIRECTION('ref_axis',(1.,0.,0.));
#1715=DIRECTION('center_axis',(0.,1.,0.));
#1716=DIRECTION('ref_axis',(1.,0.,0.));
#1717=DIRECTION('center_axis',(0.,1.,0.));
#1718=DIRECTION('ref_axis',(1.,0.,0.));
#1719=DIRECTION('',(0.,1.,0.));
#1720=DIRECTION('center_axis',(0.,-1.,0.));
#1721=DIRECTION('ref_axis',(1.,0.,0.));
#1722=DIRECTION('center_axis',(0.,1.,0.));
#1723=DIRECTION('ref_axis',(1.,0.,0.));
#1724=DIRECTION('center_axis',(0.,1.,0.));
#1725=DIRECTION('ref_axis',(1.,0.,0.));
#1726=DIRECTION('',(0.,1.,0.));
#1727=DIRECTION('center_axis',(0.,-1.,0.));
#1728=DIRECTION('ref_axis',(1.,0.,0.));
#1729=DIRECTION('center_axis',(0.,-1.,0.));
#1730=DIRECTION('ref_axis',(1.,0.,0.));
#1731=DIRECTION('center_axis',(0.,1.,0.));
#1732=DIRECTION('ref_axis',(0.,0.,1.));
#1733=DIRECTION('',(-1.,0.,0.));
#1734=DIRECTION('',(0.,0.,1.));
#1735=DIRECTION('',(-1.,0.,0.));
#1736=DIRECTION('',(0.,0.,-1.));
#1737=DIRECTION('',(0.440673190639414,0.,-0.897667610561771));
#1738=DIRECTION('',(0.822896900602446,0.,-0.568190717082644));
#1739=DIRECTION('',(1.,0.,0.));
#1740=DIRECTION('center_axis',(0.,-1.,0.));
#1741=DIRECTION('ref_axis',(1.,0.,0.));
#1742=DIRECTION('center_axis',(0.,-1.,0.));
#1743=DIRECTION('ref_axis',(1.,0.,0.));
#1744=DIRECTION('',(1.,0.,0.));
#1745=DIRECTION('',(1.,0.,0.));
#1746=DIRECTION('',(0.,0.,-1.));
#1747=DIRECTION('',(-1.,0.,0.));
#1748=DIRECTION('',(0.,0.,-1.));
#1749=DIRECTION('',(1.,0.,0.));
#1750=DIRECTION('',(-0.119507708761019,0.,-0.99283327278385));
#1751=DIRECTION('',(0.447213595499958,0.,-0.894427190999916));
#1752=DIRECTION('',(0.732186738163084,0.,-0.681103942477287));
#1753=DIRECTION('',(0.,0.,-1.));
#1754=DIRECTION('',(-1.,0.,0.));
#1755=DIRECTION('',(-0.988659264731004,0.,-0.150176090845217));
#1756=DIRECTION('',(-0.92185627769447,0.,-0.387531938393851));
#1757=DIRECTION('',(-0.999550303522367,0.,0.0299865091056704));
#1758=DIRECTION('',(0.,0.,1.));
#1759=DIRECTION('',(1.,0.,0.));
#1760=DIRECTION('',(0.,0.,1.));
#1761=DIRECTION('',(-1.,0.,0.));
#1762=DIRECTION('',(0.,0.,1.));
#1763=DIRECTION('',(1.,0.,0.));
#1764=DIRECTION('',(0.,0.,1.));
#1765=DIRECTION('',(1.,0.,0.));
#1766=DIRECTION('',(0.,0.,-1.));
#1767=DIRECTION('center_axis',(0.,-1.,0.));
#1768=DIRECTION('ref_axis',(1.,0.,0.));
#1769=DIRECTION('center_axis',(0.,-1.,0.));
#1770=DIRECTION('ref_axis',(1.,0.,0.));
#1771=DIRECTION('center_axis',(0.,-1.,0.));
#1772=DIRECTION('ref_axis',(1.,0.,0.));
#1773=DIRECTION('center_axis',(0.,-1.,0.));
#1774=DIRECTION('ref_axis',(1.,0.,0.));
#1775=DIRECTION('center_axis',(0.,1.,0.));
#1776=DIRECTION('ref_axis',(1.,0.,0.));
#1777=DIRECTION('center_axis',(0.,1.,0.));
#1778=DIRECTION('ref_axis',(1.,0.,0.));
#1779=DIRECTION('',(0.,1.,0.));
#1780=DIRECTION('center_axis',(0.,1.,0.));
#1781=DIRECTION('ref_axis',(1.,0.,0.));
#1782=DIRECTION('center_axis',(0.,1.,0.));
#1783=DIRECTION('ref_axis',(1.,0.,0.));
#1784=DIRECTION('',(0.,1.,0.));
#1785=DIRECTION('center_axis',(0.,1.,0.));
#1786=DIRECTION('ref_axis',(1.,0.,0.));
#1787=DIRECTION('center_axis',(0.,1.,0.));
#1788=DIRECTION('ref_axis',(1.,0.,0.));
#1789=DIRECTION('',(0.,1.,0.));
#1790=DIRECTION('center_axis',(0.,1.,0.));
#1791=DIRECTION('ref_axis',(1.,0.,0.));
#1792=DIRECTION('center_axis',(0.,1.,0.));
#1793=DIRECTION('ref_axis',(1.,0.,0.));
#1794=DIRECTION('',(0.,1.,0.));
#1795=DIRECTION('center_axis',(0.,1.,0.));
#1796=DIRECTION('ref_axis',(1.,0.,0.));
#1797=DIRECTION('center_axis',(0.,1.,0.));
#1798=DIRECTION('ref_axis',(1.,0.,0.));
#1799=DIRECTION('',(0.,-1.,0.));
#1800=DIRECTION('center_axis',(0.,-1.,0.));
#1801=DIRECTION('ref_axis',(1.,0.,0.));
#1802=DIRECTION('center_axis',(0.,-1.,0.));
#1803=DIRECTION('ref_axis',(-1.,0.,0.));
#1804=DIRECTION('center_axis',(0.,1.,0.));
#1805=DIRECTION('ref_axis',(1.,0.,0.));
#1806=DIRECTION('center_axis',(0.,1.,0.));
#1807=DIRECTION('ref_axis',(1.,0.,0.));
#1808=DIRECTION('',(0.,-1.,0.));
#1809=DIRECTION('center_axis',(0.,-1.,0.));
#1810=DIRECTION('ref_axis',(1.,0.,0.));
#1811=DIRECTION('center_axis',(0.,-1.,0.));
#1812=DIRECTION('ref_axis',(-1.,0.,0.));
#1813=DIRECTION('center_axis',(0.,1.,0.));
#1814=DIRECTION('ref_axis',(1.,0.,0.));
#1815=DIRECTION('center_axis',(0.,1.,0.));
#1816=DIRECTION('ref_axis',(1.,0.,0.));
#1817=DIRECTION('',(0.,-1.,0.));
#1818=DIRECTION('center_axis',(0.,-1.,0.));
#1819=DIRECTION('ref_axis',(1.,0.,0.));
#1820=DIRECTION('center_axis',(0.,-1.,0.));
#1821=DIRECTION('ref_axis',(-1.,0.,0.));
#1822=DIRECTION('center_axis',(0.,1.,0.));
#1823=DIRECTION('ref_axis',(1.,0.,0.));
#1824=DIRECTION('center_axis',(0.,1.,0.));
#1825=DIRECTION('ref_axis',(1.,0.,0.));
#1826=DIRECTION('',(0.,-1.,0.));
#1827=DIRECTION('center_axis',(0.,-1.,0.));
#1828=DIRECTION('ref_axis',(1.,0.,0.));
#1829=DIRECTION('center_axis',(0.,-1.,0.));
#1830=DIRECTION('ref_axis',(-1.,0.,0.));
#1831=DIRECTION('center_axis',(0.,1.,0.));
#1832=DIRECTION('ref_axis',(1.,0.,0.));
#1833=DIRECTION('center_axis',(0.,1.,0.));
#1834=DIRECTION('ref_axis',(1.,0.,0.));
#1835=DIRECTION('',(0.,-1.,0.));
#1836=DIRECTION('center_axis',(0.,-1.,0.));
#1837=DIRECTION('ref_axis',(1.,0.,0.));
#1838=DIRECTION('center_axis',(0.,-1.,0.));
#1839=DIRECTION('ref_axis',(-1.,0.,0.));
#1840=DIRECTION('center_axis',(0.,1.,0.));
#1841=DIRECTION('ref_axis',(1.,0.,0.));
#1842=DIRECTION('center_axis',(0.,1.,0.));
#1843=DIRECTION('ref_axis',(1.,0.,0.));
#1844=DIRECTION('',(0.,-1.,0.));
#1845=DIRECTION('center_axis',(0.,-1.,0.));
#1846=DIRECTION('ref_axis',(1.,0.,0.));
#1847=DIRECTION('center_axis',(0.,-1.,0.));
#1848=DIRECTION('ref_axis',(-1.,0.,0.));
#1849=DIRECTION('center_axis',(0.,-1.,0.));
#1850=DIRECTION('ref_axis',(1.,0.,0.));
#1851=DIRECTION('center_axis',(0.,1.,0.));
#1852=DIRECTION('ref_axis',(1.,0.,0.));
#1853=DIRECTION('',(-0.698932947801,-0.715187202401025,8.55945997343118E-17));
#1854=DIRECTION('center_axis',(0.,1.,0.));
#1855=DIRECTION('ref_axis',(1.,0.,0.));
#1856=DIRECTION('center_axis',(0.,1.,0.));
#1857=DIRECTION('ref_axis',(1.,0.,0.));
#1858=DIRECTION('center_axis',(0.,-1.,0.));
#1859=DIRECTION('ref_axis',(1.,0.,0.));
#1860=DIRECTION('',(-0.839152986556478,-0.543895454249568,1.02766601898133E-16));
#1861=DIRECTION('center_axis',(-9.73061434835337E-29,1.,-5.74256039579705E-30));
#1862=DIRECTION('ref_axis',(0.,5.74256039579705E-30,1.));
#1863=DIRECTION('',(0.,0.,1.));
#1864=DIRECTION('',(1.,0.,0.));
#1865=DIRECTION('',(0.,0.,-1.));
#1866=DIRECTION('',(-1.,0.,0.));
#1867=DIRECTION('center_axis',(0.816434083139122,-0.577438644263424,0.));
#1868=DIRECTION('ref_axis',(0.,0.,-1.));
#1869=DIRECTION('',(0.,0.,1.));
#1870=DIRECTION('',(0.577438644263425,0.816434083139122,0.));
#1871=DIRECTION('',(0.559313101947015,0.790806580252864,0.24858360086534));
#1872=DIRECTION('center_axis',(0.,-0.299875331660305,0.953978398844346));
#1873=DIRECTION('ref_axis',(1.,0.,0.));
#1874=DIRECTION('',(-1.,0.,0.));
#1875=DIRECTION('',(0.,0.953978398844346,0.299875331660305));
#1876=DIRECTION('center_axis',(4.84326511541828E-31,1.,-5.94497932235106E-30));
#1877=DIRECTION('ref_axis',(0.,5.94497932235106E-30,1.));
#1878=DIRECTION('',(-1.,0.,0.));
#1879=DIRECTION('',(0.,0.,1.));
#1880=DIRECTION('',(1.,0.,0.));
#1881=DIRECTION('',(0.,0.,-1.));
#1882=DIRECTION('',(1.,0.,0.));
#1883=DIRECTION('',(0.,0.,-1.));
#1884=DIRECTION('center_axis',(0.,0.58798270251629,-0.808873501569708));
#1885=DIRECTION('ref_axis',(-1.,0.,0.));
#1886=DIRECTION('',(-1.,0.,0.));
#1887=DIRECTION('',(0.,0.808873501569708,0.58798270251629));
#1888=DIRECTION('',(0.,0.808873501569708,0.58798270251629));
#1889=DIRECTION('center_axis',(0.,0.,-1.));
#1890=DIRECTION('ref_axis',(-1.,0.,0.));
#1891=DIRECTION('',(1.,0.,0.));
#1892=DIRECTION('',(0.,1.,0.));
#1893=DIRECTION('',(0.,1.,0.));
#1894=DIRECTION('center_axis',(0.,1.,0.));
#1895=DIRECTION('ref_axis',(0.,0.,1.));
#1896=DIRECTION('',(0.,0.,-1.));
#1897=DIRECTION('',(1.,0.,0.));
#1898=DIRECTION('',(0.,0.,-1.));
#1899=DIRECTION('',(-1.,0.,0.));
#1900=DIRECTION('',(-0.822896900602446,0.,0.568190717082644));
#1901=DIRECTION('',(-0.440673190639414,0.,0.897667610561771));
#1902=DIRECTION('',(0.,0.,1.));
#1903=DIRECTION('center_axis',(1.,0.,0.));
#1904=DIRECTION('ref_axis',(0.,0.,-1.));
#1905=DIRECTION('',(0.,0.,1.));
#1906=DIRECTION('',(0.,0.,-1.));
#1907=DIRECTION('',(0.,1.,0.));
#1908=DIRECTION('',(0.,1.,0.));
#1909=DIRECTION('center_axis',(-1.,0.,0.));
#1910=DIRECTION('ref_axis',(0.,0.,1.));
#1911=DIRECTION('',(0.,0.,1.));
#1912=DIRECTION('',(0.,1.,0.));
#1913=DIRECTION('',(0.,1.,0.));
#1914=DIRECTION('center_axis',(0.,0.,-1.));
#1915=DIRECTION('ref_axis',(-1.,0.,0.));
#1916=DIRECTION('',(-1.,0.,0.));
#1917=DIRECTION('center_axis',(0.,1.,0.));
#1918=DIRECTION('ref_axis',(1.,0.,0.));
#1919=DIRECTION('',(-1.,0.,0.));
#1920=DIRECTION('center_axis',(0.,1.,0.));
#1921=DIRECTION('ref_axis',(0.,0.,1.));
#1922=DIRECTION('',(1.,0.,0.));
#1923=DIRECTION('',(0.,0.,-1.));
#1924=DIRECTION('',(-1.,0.,0.));
#1925=DIRECTION('center_axis',(1.,0.,0.));
#1926=DIRECTION('ref_axis',(0.,0.,-1.));
#1927=DIRECTION('',(0.,1.,0.));
#1928=DIRECTION('',(0.,1.,0.));
#1929=DIRECTION('center_axis',(0.,0.,1.));
#1930=DIRECTION('ref_axis',(1.,0.,0.));
#1931=DIRECTION('',(0.,1.,0.));
#1932=DIRECTION('center_axis',(-1.,0.,0.));
#1933=DIRECTION('ref_axis',(0.,0.,1.));
#1934=DIRECTION('',(0.,1.,0.));
#1935=DIRECTION('center_axis',(-0.897667610561771,0.,-0.440673190639414));
#1936=DIRECTION('ref_axis',(-0.440673190639414,0.,0.897667610561771));
#1937=DIRECTION('',(0.,1.,0.));
#1938=DIRECTION('center_axis',(-0.568190717082644,0.,-0.822896900602446));
#1939=DIRECTION('ref_axis',(-0.822896900602446,0.,0.568190717082644));
#1940=DIRECTION('',(0.,1.,0.));
#1941=DIRECTION('center_axis',(0.,0.,-1.));
#1942=DIRECTION('ref_axis',(-1.,0.,0.));
#1943=DIRECTION('',(0.,1.,0.));
#1944=DIRECTION('center_axis',(1.,0.,0.));
#1945=DIRECTION('ref_axis',(0.,0.,-1.));
#1946=DIRECTION('',(0.,0.,1.));
#1947=DIRECTION('',(0.,1.,0.));
#1948=DIRECTION('',(0.,1.,0.));
#1949=DIRECTION('center_axis',(0.,0.,1.));
#1950=DIRECTION('ref_axis',(1.,0.,0.));
#1951=DIRECTION('',(-1.,0.,0.));
#1952=DIRECTION('',(0.,1.,0.));
#1953=DIRECTION('center_axis',(-1.,0.,0.));
#1954=DIRECTION('ref_axis',(0.,0.,1.));
#1955=DIRECTION('',(0.,0.,-1.));
#1956=DIRECTION('',(0.,1.,0.));
#1957=DIRECTION('center_axis',(0.,0.,1.));
#1958=DIRECTION('ref_axis',(1.,0.,0.));
#1959=DIRECTION('',(-1.,0.,0.));
#1960=DIRECTION('',(0.,1.,0.));
#1961=DIRECTION('center_axis',(-1.,0.,0.));
#1962=DIRECTION('ref_axis',(0.,0.,1.));
#1963=DIRECTION('',(0.,0.,-1.));
#1964=DIRECTION('',(0.,1.,0.));
#1965=DIRECTION('center_axis',(0.,0.,-1.));
#1966=DIRECTION('ref_axis',(-1.,0.,0.));
#1967=DIRECTION('',(1.,0.,0.));
#1968=DIRECTION('',(0.,1.,0.));
#1969=DIRECTION('center_axis',(-1.,0.,0.));
#1970=DIRECTION('ref_axis',(0.,0.,1.));
#1971=DIRECTION('',(0.,0.,-1.));
#1972=DIRECTION('',(0.,1.,0.));
#1973=DIRECTION('center_axis',(0.,0.,1.));
#1974=DIRECTION('ref_axis',(1.,0.,0.));
#1975=DIRECTION('',(-1.,0.,0.));
#1976=DIRECTION('',(0.,1.,0.));
#1977=DIRECTION('center_axis',(-1.,0.,0.));
#1978=DIRECTION('ref_axis',(0.,0.,1.));
#1979=DIRECTION('',(0.,0.,-1.));
#1980=DIRECTION('',(0.,1.,0.));
#1981=DIRECTION('center_axis',(-0.0299865091056704,0.,-0.999550303522367));
#1982=DIRECTION('ref_axis',(-0.999550303522367,0.,0.0299865091056704));
#1983=DIRECTION('',(0.999550303522367,0.,-0.0299865091056704));
#1984=DIRECTION('',(0.,1.,0.));
#1985=DIRECTION('center_axis',(0.387531938393851,0.,-0.92185627769447));
#1986=DIRECTION('ref_axis',(-0.92185627769447,0.,-0.387531938393851));
#1987=DIRECTION('',(0.92185627769447,0.,0.387531938393851));
#1988=DIRECTION('',(0.,1.,0.));
#1989=DIRECTION('center_axis',(0.150176090845217,0.,-0.988659264731004));
#1990=DIRECTION('ref_axis',(-0.988659264731004,0.,-0.150176090845217));
#1991=DIRECTION('',(0.988659264731004,0.,0.150176090845217));
#1992=DIRECTION('',(0.,1.,0.));
#1993=DIRECTION('center_axis',(0.,0.,-1.));
#1994=DIRECTION('ref_axis',(-1.,0.,0.));
#1995=DIRECTION('',(1.,0.,0.));
#1996=DIRECTION('',(0.,1.,0.));
#1997=DIRECTION('center_axis',(1.,0.,0.));
#1998=DIRECTION('ref_axis',(0.,0.,-1.));
#1999=DIRECTION('',(0.,0.,1.));
#2000=DIRECTION('',(0.,1.,0.));
#2001=DIRECTION('center_axis',(0.681103942477287,0.,0.732186738163084));
#2002=DIRECTION('ref_axis',(0.732186738163084,0.,-0.681103942477287));
#2003=DIRECTION('',(-0.732186738163084,0.,0.681103942477287));
#2004=DIRECTION('',(0.,1.,0.));
#2005=DIRECTION('center_axis',(0.894427190999916,0.,0.447213595499958));
#2006=DIRECTION('ref_axis',(0.447213595499958,0.,-0.894427190999916));
#2007=DIRECTION('',(-0.447213595499958,0.,0.894427190999916));
#2008=DIRECTION('',(0.,1.,0.));
#2009=DIRECTION('center_axis',(0.99283327278385,0.,-0.119507708761019));
#2010=DIRECTION('ref_axis',(-0.119507708761019,0.,-0.99283327278385));
#2011=DIRECTION('',(0.119507708761019,0.,0.99283327278385));
#2012=DIRECTION('',(0.,1.,0.));
#2013=DIRECTION('center_axis',(0.,0.,1.));
#2014=DIRECTION('ref_axis',(1.,0.,0.));
#2015=DIRECTION('',(-1.,0.,0.));
#2016=DIRECTION('',(0.,1.,0.));
#2017=DIRECTION('center_axis',(1.,0.,0.));
#2018=DIRECTION('ref_axis',(0.,0.,-1.));
#2019=DIRECTION('',(0.,0.,1.));
#2020=DIRECTION('',(0.,1.,0.));
#2021=DIRECTION('center_axis',(0.,0.,-1.));
#2022=DIRECTION('ref_axis',(-1.,0.,0.));
#2023=DIRECTION('',(1.,0.,0.));
#2024=DIRECTION('',(0.,1.,0.));
#2025=DIRECTION('center_axis',(1.,0.,0.));
#2026=DIRECTION('ref_axis',(0.,0.,-1.));
#2027=DIRECTION('',(0.,0.,1.));
#2028=DIRECTION('',(0.,1.,0.));
#2029=DIRECTION('center_axis',(0.,0.,1.));
#2030=DIRECTION('ref_axis',(1.,0.,0.));
#2031=DIRECTION('',(-1.,0.,0.));
#2032=DIRECTION('',(0.,1.,0.));
#2033=DIRECTION('center_axis',(1.,0.,0.));
#2034=DIRECTION('ref_axis',(0.,0.,-1.));
#2035=DIRECTION('',(0.,0.,1.));
#2036=DIRECTION('',(0.,1.,0.));
#2037=DIRECTION('center_axis',(0.,0.,1.));
#2038=DIRECTION('ref_axis',(1.,0.,0.));
#2039=DIRECTION('',(-1.,0.,0.));
#2040=DIRECTION('center_axis',(0.,1.,0.));
#2041=DIRECTION('ref_axis',(1.,0.,0.));
#2042=CARTESIAN_POINT('',(0.,0.,0.));
#2043=CARTESIAN_POINT('Origin',(-2.3102,2.89,-3.98));
#2044=CARTESIAN_POINT('',(-2.3852,3.,-3.98));
#2045=CARTESIAN_POINT('Origin',(-2.3102,3.,-3.98));
#2046=CARTESIAN_POINT('',(-2.3852,2.775,-3.98));
#2047=CARTESIAN_POINT('',(-2.3852,2.89,-3.98));
#2048=CARTESIAN_POINT('Origin',(-2.3102,2.775,-3.98));
#2049=CARTESIAN_POINT('Origin',(-2.3102,2.775,-3.98));
#2050=CARTESIAN_POINT('Origin',(-4.1408,2.89,-3.98));
#2051=CARTESIAN_POINT('',(-4.2158,3.,-3.98));
#2052=CARTESIAN_POINT('Origin',(-4.1408,3.,-3.98));
#2053=CARTESIAN_POINT('',(-4.2158,2.775,-3.98));
#2054=CARTESIAN_POINT('',(-4.2158,2.89,-3.98));
#2055=CARTESIAN_POINT('Origin',(-4.1408,2.775,-3.98));
#2056=CARTESIAN_POINT('Origin',(-4.1408,2.775,-3.98));
#2057=CARTESIAN_POINT('Origin',(-5.9714,2.89,-3.98));
#2058=CARTESIAN_POINT('',(-6.0464,3.,-3.98));
#2059=CARTESIAN_POINT('Origin',(-5.9714,3.,-3.98));
#2060=CARTESIAN_POINT('',(-6.0464,2.775,-3.98));
#2061=CARTESIAN_POINT('',(-6.0464,2.89,-3.98));
#2062=CARTESIAN_POINT('Origin',(-5.9714,2.775,-3.98));
#2063=CARTESIAN_POINT('Origin',(-5.9714,2.775,-3.98));
#2064=CARTESIAN_POINT('Origin',(-7.802,2.89,-3.98));
#2065=CARTESIAN_POINT('',(-7.877,3.,-3.98));
#2066=CARTESIAN_POINT('Origin',(-7.802,3.,-3.98));
#2067=CARTESIAN_POINT('',(-7.877,2.775,-3.98));
#2068=CARTESIAN_POINT('',(-7.877,2.89,-3.98));
#2069=CARTESIAN_POINT('Origin',(-7.802,2.775,-3.98));
#2070=CARTESIAN_POINT('Origin',(-7.802,2.775,-3.98));
#2071=CARTESIAN_POINT('Origin',(-9.6326,2.89,-3.98));
#2072=CARTESIAN_POINT('',(-9.7076,3.,-3.98));
#2073=CARTESIAN_POINT('Origin',(-9.6326,3.,-3.98));
#2074=CARTESIAN_POINT('',(-9.7076,2.775,-3.98));
#2075=CARTESIAN_POINT('',(-9.7076,2.89,-3.98));
#2076=CARTESIAN_POINT('Origin',(-9.6326,2.775,-3.98));
#2077=CARTESIAN_POINT('Origin',(-9.6326,2.775,-3.98));
#2078=CARTESIAN_POINT('Origin',(-11.4632,2.89,-3.98));
#2079=CARTESIAN_POINT('',(-11.5382,3.,-3.98));
#2080=CARTESIAN_POINT('Origin',(-11.4632,3.,-3.98));
#2081=CARTESIAN_POINT('',(-11.5382,2.775,-3.98));
#2082=CARTESIAN_POINT('',(-11.5382,2.89,-3.98));
#2083=CARTESIAN_POINT('Origin',(-11.4632,2.775,-3.98));
#2084=CARTESIAN_POINT('Origin',(-11.4632,2.775,-3.98));
#2085=CARTESIAN_POINT('Origin',(-13.2938,2.89,-3.98));
#2086=CARTESIAN_POINT('',(-13.3688,3.,-3.98));
#2087=CARTESIAN_POINT('Origin',(-13.2938,3.,-3.98));
#2088=CARTESIAN_POINT('',(-13.3688,2.775,-3.98));
#2089=CARTESIAN_POINT('',(-13.3688,2.89,-3.98));
#2090=CARTESIAN_POINT('Origin',(-13.2938,2.775,-3.98));
#2091=CARTESIAN_POINT('Origin',(-13.2938,2.775,-3.98));
#2092=CARTESIAN_POINT('Origin',(-15.1244,2.89,-3.98));
#2093=CARTESIAN_POINT('',(-15.1994,3.,-3.98));
#2094=CARTESIAN_POINT('Origin',(-15.1244,3.,-3.98));
#2095=CARTESIAN_POINT('',(-15.1994,2.775,-3.98));
#2096=CARTESIAN_POINT('',(-15.1994,2.89,-3.98));
#2097=CARTESIAN_POINT('Origin',(-15.1244,2.775,-3.98));
#2098=CARTESIAN_POINT('Origin',(-15.1244,2.775,-3.98));
#2099=CARTESIAN_POINT('Origin',(-16.955,2.89,-3.98));
#2100=CARTESIAN_POINT('',(-17.03,3.,-3.98));
#2101=CARTESIAN_POINT('Origin',(-16.955,3.,-3.98));
#2102=CARTESIAN_POINT('',(-17.03,2.775,-3.98));
#2103=CARTESIAN_POINT('',(-17.03,2.89,-3.98));
#2104=CARTESIAN_POINT('Origin',(-16.955,2.775,-3.98));
#2105=CARTESIAN_POINT('Origin',(-16.955,2.775,-3.98));
#2106=CARTESIAN_POINT('Origin',(-11.598,2.75,0.));
#2107=CARTESIAN_POINT('',(-11.974,2.585,4.60467196479405E-17));
#2108=CARTESIAN_POINT('Origin',(-11.598,2.585,0.));
#2109=CARTESIAN_POINT('',(-11.974,3.,-4.60467196479405E-17));
#2110=CARTESIAN_POINT('',(-11.974,2.75,4.60467196479405E-17));
#2111=CARTESIAN_POINT('Origin',(-11.598,3.,0.));
#2112=CARTESIAN_POINT('Origin',(-6.31,2.75,-2.4));
#2113=CARTESIAN_POINT('',(-6.48,2.54,-2.4));
#2114=CARTESIAN_POINT('Origin',(-6.31,2.54,-2.4));
#2115=CARTESIAN_POINT('',(-6.48,3.,-2.4));
#2116=CARTESIAN_POINT('',(-6.48,2.75,-2.4));
#2117=CARTESIAN_POINT('Origin',(-6.31,3.,-2.4));
#2118=CARTESIAN_POINT('Origin',(-6.31,2.75,0.8));
#2119=CARTESIAN_POINT('',(-6.48,2.54,0.8));
#2120=CARTESIAN_POINT('Origin',(-6.31,2.54,0.8));
#2121=CARTESIAN_POINT('',(-6.48,3.,0.8));
#2122=CARTESIAN_POINT('',(-6.48,2.75,0.8));
#2123=CARTESIAN_POINT('',(-6.31,3.,0.97));
#2124=CARTESIAN_POINT('Origin',(-6.31,3.,0.8));
#2125=CARTESIAN_POINT('Origin',(-6.31,3.,0.8));
#2126=CARTESIAN_POINT('Origin',(-13.9175,3.,-0.5825));
#2127=CARTESIAN_POINT('',(-14.05,3.,2.23));
#2128=CARTESIAN_POINT('',(-14.06,3.,2.23));
#2129=CARTESIAN_POINT('',(-13.98875,3.,2.23));
#2130=CARTESIAN_POINT('',(-14.06,3.,4.26));
#2131=CARTESIAN_POINT('',(-14.06,3.,1.83875));
#2132=CARTESIAN_POINT('',(-14.86,3.,4.26));
#2133=CARTESIAN_POINT('',(-14.38875,3.,4.26));
#2134=CARTESIAN_POINT('',(-14.86,3.,1.39));
#2135=CARTESIAN_POINT('',(-14.86,3.,0.40375));
#2136=CARTESIAN_POINT('',(-14.725,3.,1.115));
#2137=CARTESIAN_POINT('',(-14.3108477623868,3.,0.271356553010123));
#2138=CARTESIAN_POINT('',(-14.515,3.,0.97));
#2139=CARTESIAN_POINT('',(-13.9497533589251,3.,0.579710652591169));
#2140=CARTESIAN_POINT('',(-12.29,3.,0.97));
#2141=CARTESIAN_POINT('',(-7.12625,3.,0.97));
#2142=CARTESIAN_POINT('',(-12.46,3.,0.8));
#2143=CARTESIAN_POINT('Origin',(-12.29,3.,0.8));
#2144=CARTESIAN_POINT('Origin',(-12.29,3.,0.8));
#2145=CARTESIAN_POINT('',(-7.12625,3.,0.97));
#2146=CARTESIAN_POINT('',(-0.335,3.,0.97));
#2147=CARTESIAN_POINT('',(-7.12625,3.,0.97));
#2148=CARTESIAN_POINT('',(-0.335,3.,-0.5));
#2149=CARTESIAN_POINT('',(-0.335,3.,-0.5));
#2150=CARTESIAN_POINT('',(-1.335,3.,-0.5));
#2151=CARTESIAN_POINT('',(-1.335,3.,-0.5));
#2152=CARTESIAN_POINT('',(-1.335,3.,-3.));
#2153=CARTESIAN_POINT('',(-1.335,3.,-3.));
#2154=CARTESIAN_POINT('',(-0.62,3.,-3.));
#2155=CARTESIAN_POINT('',(-0.62,3.,-3.));
#2156=CARTESIAN_POINT('',(-0.685,3.,-3.54));
#2157=CARTESIAN_POINT('',(-0.685,3.,-3.54));
#2158=CARTESIAN_POINT('',(-0.55,3.,-3.81));
#2159=CARTESIAN_POINT('',(-0.55,3.,-3.81));
#2160=CARTESIAN_POINT('',(-0.335,3.,-4.01));
#2161=CARTESIAN_POINT('',(-0.335,3.,-4.01));
#2162=CARTESIAN_POINT('',(-0.335,3.,-5.08));
#2163=CARTESIAN_POINT('',(-0.335,3.,-5.08));
#2164=CARTESIAN_POINT('',(-24.925,3.,-5.08));
#2165=CARTESIAN_POINT('',(-24.925,3.,-5.08));
#2166=CARTESIAN_POINT('',(-25.715,3.,-5.2));
#2167=CARTESIAN_POINT('',(-25.715,3.,-5.2));
#2168=CARTESIAN_POINT('',(-26.5,3.,-5.53));
#2169=CARTESIAN_POINT('',(-26.5,3.,-5.53));
#2170=CARTESIAN_POINT('',(-27.5,3.,-5.5));
#2171=CARTESIAN_POINT('',(-27.5,3.,-5.5));
#2172=CARTESIAN_POINT('',(-27.5,3.,-3.));
#2173=CARTESIAN_POINT('',(-27.5,3.,-3.));
#2174=CARTESIAN_POINT('',(-26.5,3.,-3.));
#2175=CARTESIAN_POINT('',(-26.5,3.,-3.));
#2176=CARTESIAN_POINT('',(-26.5,3.,-0.5));
#2177=CARTESIAN_POINT('',(-26.5,3.,-0.5));
#2178=CARTESIAN_POINT('',(-27.5,3.,-0.5));
#2179=CARTESIAN_POINT('',(-27.5,3.,-0.5));
#2180=CARTESIAN_POINT('',(-27.5,3.,2.));
#2181=CARTESIAN_POINT('',(-27.5,3.,2.));
#2182=CARTESIAN_POINT('',(-26.5,3.,2.));
#2183=CARTESIAN_POINT('',(-26.5,3.,2.));
#2184=CARTESIAN_POINT('',(-26.5,3.,4.365));
#2185=CARTESIAN_POINT('',(-26.5,3.,4.365));
#2186=CARTESIAN_POINT('',(-14.05,3.,4.365));
#2187=CARTESIAN_POINT('',(-14.05,3.,4.365));
#2188=CARTESIAN_POINT('',(-14.05,3.,2.23));
#2189=CARTESIAN_POINT('',(-24.41,3.,-2.4));
#2190=CARTESIAN_POINT('Origin',(-24.24,3.,-2.4));
#2191=CARTESIAN_POINT('',(-24.41,3.,0.8));
#2192=CARTESIAN_POINT('Origin',(-24.24,3.,0.8));
#2193=CARTESIAN_POINT('',(-23.1478571428571,3.,3.1));
#2194=CARTESIAN_POINT('Origin',(-22.27,3.,3.1));
#2195=CARTESIAN_POINT('',(-12.46,3.,-2.4));
#2196=CARTESIAN_POINT('Origin',(-12.29,3.,-2.4));
#2197=CARTESIAN_POINT('Origin',(-12.29,2.75,-2.4));
#2198=CARTESIAN_POINT('',(-12.46,2.54,-2.4));
#2199=CARTESIAN_POINT('Origin',(-12.29,2.54,-2.4));
#2200=CARTESIAN_POINT('',(-12.46,2.75,-2.4));
#2201=CARTESIAN_POINT('Origin',(-12.29,2.75,0.8));
#2202=CARTESIAN_POINT('',(-12.46,2.54,0.8));
#2203=CARTESIAN_POINT('Origin',(-12.29,2.54,0.8));
#2204=CARTESIAN_POINT('',(-12.46,2.75,0.8));
#2205=CARTESIAN_POINT('Origin',(-24.24,2.75,-2.4));
#2206=CARTESIAN_POINT('',(-24.41,2.54,-2.4));
#2207=CARTESIAN_POINT('Origin',(-24.24,2.54,-2.4));
#2208=CARTESIAN_POINT('',(-24.41,2.75,-2.4));
#2209=CARTESIAN_POINT('Origin',(-24.24,2.75,0.8));
#2210=CARTESIAN_POINT('',(-24.41,2.54,0.8));
#2211=CARTESIAN_POINT('Origin',(-24.24,2.54,0.8));
#2212=CARTESIAN_POINT('',(-24.41,2.75,0.8));
#2213=CARTESIAN_POINT('Origin',(-6.31,2.5625,-2.4));
#2214=CARTESIAN_POINT('',(-6.71,2.585,-2.4));
#2215=CARTESIAN_POINT('Origin',(-6.31,2.585,-2.4));
#2216=CARTESIAN_POINT('',(-6.71,2.54,-2.4));
#2217=CARTESIAN_POINT('',(-6.71,2.5625,-2.4));
#2218=CARTESIAN_POINT('Origin',(-6.31,2.54,-2.4));
#2219=CARTESIAN_POINT('Origin',(-6.31,2.54,-2.4));
#2220=CARTESIAN_POINT('Origin',(-6.31,2.5625,0.8));
#2221=CARTESIAN_POINT('',(-6.71,2.585,0.8));
#2222=CARTESIAN_POINT('Origin',(-6.31,2.585,0.8));
#2223=CARTESIAN_POINT('',(-6.71,2.54,0.8));
#2224=CARTESIAN_POINT('',(-6.71,2.5625,0.8));
#2225=CARTESIAN_POINT('Origin',(-6.31,2.54,0.8));
#2226=CARTESIAN_POINT('Origin',(-6.31,2.54,0.8));
#2227=CARTESIAN_POINT('Origin',(-12.29,2.5625,-2.4));
#2228=CARTESIAN_POINT('',(-12.69,2.585,-2.4));
#2229=CARTESIAN_POINT('Origin',(-12.29,2.585,-2.4));
#2230=CARTESIAN_POINT('',(-12.69,2.54,-2.4));
#2231=CARTESIAN_POINT('',(-12.69,2.5625,-2.4));
#2232=CARTESIAN_POINT('Origin',(-12.29,2.54,-2.4));
#2233=CARTESIAN_POINT('Origin',(-12.29,2.54,-2.4));
#2234=CARTESIAN_POINT('Origin',(-12.29,2.5625,0.8));
#2235=CARTESIAN_POINT('',(-12.69,2.585,0.8));
#2236=CARTESIAN_POINT('Origin',(-12.29,2.585,0.8));
#2237=CARTESIAN_POINT('',(-12.69,2.54,0.8));
#2238=CARTESIAN_POINT('',(-12.69,2.5625,0.8));
#2239=CARTESIAN_POINT('Origin',(-12.29,2.54,0.8));
#2240=CARTESIAN_POINT('Origin',(-12.29,2.54,0.8));
#2241=CARTESIAN_POINT('Origin',(-24.24,2.5625,-2.4));
#2242=CARTESIAN_POINT('',(-24.64,2.585,-2.4));
#2243=CARTESIAN_POINT('Origin',(-24.24,2.585,-2.4));
#2244=CARTESIAN_POINT('',(-24.64,2.54,-2.4));
#2245=CARTESIAN_POINT('',(-24.64,2.5625,-2.4));
#2246=CARTESIAN_POINT('Origin',(-24.24,2.54,-2.4));
#2247=CARTESIAN_POINT('Origin',(-24.24,2.54,-2.4));
#2248=CARTESIAN_POINT('Origin',(-24.24,2.5625,0.8));
#2249=CARTESIAN_POINT('',(-24.64,2.585,0.8));
#2250=CARTESIAN_POINT('Origin',(-24.24,2.585,0.8));
#2251=CARTESIAN_POINT('',(-24.64,2.54,0.8));
#2252=CARTESIAN_POINT('',(-24.64,2.5625,0.8));
#2253=CARTESIAN_POINT('Origin',(-24.24,2.54,0.8));
#2254=CARTESIAN_POINT('Origin',(-24.24,2.54,0.8));
#2255=CARTESIAN_POINT('Origin',(-22.27,3.41,3.1));
#2256=CARTESIAN_POINT('',(-22.47,3.52,3.1));
#2257=CARTESIAN_POINT('Origin',(-22.27,3.52,3.1));
#2258=CARTESIAN_POINT('',(-22.685,3.3,3.1));
#2259=CARTESIAN_POINT('',(-22.5775,3.41,3.1));
#2260=CARTESIAN_POINT('Origin',(-22.27,3.3,3.1));
#2261=CARTESIAN_POINT('Origin',(-22.27,3.52,3.1));
#2262=CARTESIAN_POINT('Origin',(-22.27,3.125,3.1));
#2263=CARTESIAN_POINT('',(-22.955,3.125,3.1));
#2264=CARTESIAN_POINT('Origin',(-14.28,4.909,3.45));
#2265=CARTESIAN_POINT('',(-14.06,4.909,2.64));
#2266=CARTESIAN_POINT('',(-14.06,4.909,4.26));
#2267=CARTESIAN_POINT('',(-14.06,4.909,2.64));
#2268=CARTESIAN_POINT('',(-14.5,4.909,2.64));
#2269=CARTESIAN_POINT('',(-14.5,4.909,2.64));
#2270=CARTESIAN_POINT('',(-14.5,4.909,4.26));
#2271=CARTESIAN_POINT('',(-14.5,4.909,4.26));
#2272=CARTESIAN_POINT('',(-14.06,4.909,4.26));
#2273=CARTESIAN_POINT('Origin',(-14.86,4.4,4.26));
#2274=CARTESIAN_POINT('',(-14.86,4.4,2.48));
#2275=CARTESIAN_POINT('',(-14.86,4.4,4.26));
#2276=CARTESIAN_POINT('',(-14.86,4.4,4.26));
#2277=CARTESIAN_POINT('',(-14.86,4.4,4.26));
#2278=CARTESIAN_POINT('',(-14.86,4.4,2.48));
#2279=CARTESIAN_POINT('Origin',(-14.86,4.4,2.48));
#2280=CARTESIAN_POINT('',(-14.06,4.4,2.48));
#2281=CARTESIAN_POINT('',(-14.86,4.4,2.48));
#2282=CARTESIAN_POINT('',(-14.06,4.4,2.48));
#2283=CARTESIAN_POINT('Origin',(-6.31267559262511,4.909,1.77232440737489));
#2284=CARTESIAN_POINT('',(-1.07,4.909,1.32));
#2285=CARTESIAN_POINT('',(-11.55,4.909,1.32));
#2286=CARTESIAN_POINT('',(-1.07,4.909,1.32));
#2287=CARTESIAN_POINT('',(-11.55,4.909,2.23));
#2288=CARTESIAN_POINT('',(-11.55,4.909,1.32));
#2289=CARTESIAN_POINT('',(-1.335,4.909,2.23));
#2290=CARTESIAN_POINT('',(-11.55,4.909,2.23));
#2291=CARTESIAN_POINT('',(-1.335,4.909,2.));
#2292=CARTESIAN_POINT('',(-1.335,4.909,2.23));
#2293=CARTESIAN_POINT('',(-1.07,4.909,2.));
#2294=CARTESIAN_POINT('',(-1.335,4.909,2.));
#2295=CARTESIAN_POINT('',(-1.07,4.909,2.));
#2296=CARTESIAN_POINT('Origin',(-1.07,4.4,0.95));
#2297=CARTESIAN_POINT('',(-1.07,4.4,0.95));
#2298=CARTESIAN_POINT('',(-11.55,4.4,0.95));
#2299=CARTESIAN_POINT('',(-1.07,4.4,0.95));
#2300=CARTESIAN_POINT('',(-11.55,4.4,0.95));
#2301=CARTESIAN_POINT('',(-1.07,4.4,0.95));
#2302=CARTESIAN_POINT('Origin',(-14.06,3.8,2.48));
#2303=CARTESIAN_POINT('',(-14.86,3.8,2.48));
#2304=CARTESIAN_POINT('',(-14.06,3.8,2.48));
#2305=CARTESIAN_POINT('',(-10.82875,3.8,2.48));
#2306=CARTESIAN_POINT('',(-14.86,3.8,2.48));
#2307=CARTESIAN_POINT('',(-14.06,3.8,2.48));
#2308=CARTESIAN_POINT('Origin',(-7.5975,3.8,2.615));
#2309=CARTESIAN_POINT('',(-14.06,3.8,2.23));
#2310=CARTESIAN_POINT('',(-14.06,3.8,4.26));
#2311=CARTESIAN_POINT('',(-11.55,3.8,2.23));
#2312=CARTESIAN_POINT('',(-14.06,3.8,2.23));
#2313=CARTESIAN_POINT('',(-11.55,3.8,0.97));
#2314=CARTESIAN_POINT('',(-11.55,3.8,1.7825));
#2315=CARTESIAN_POINT('',(-14.515,3.8,0.97));
#2316=CARTESIAN_POINT('',(-0.335,3.8,0.97));
#2317=CARTESIAN_POINT('',(-14.725,3.8,1.115));
#2318=CARTESIAN_POINT('',(-14.515,3.8,0.97));
#2319=CARTESIAN_POINT('',(-14.86,3.8,1.39));
#2320=CARTESIAN_POINT('',(-14.725,3.8,1.115));
#2321=CARTESIAN_POINT('',(-14.86,3.8,1.39));
#2322=CARTESIAN_POINT('Origin',(-1.07,3.8,2.));
#2323=CARTESIAN_POINT('',(-1.07,3.8,0.97));
#2324=CARTESIAN_POINT('',(-1.07,3.8,2.));
#2325=CARTESIAN_POINT('',(-1.07,3.8,2.3075));
#2326=CARTESIAN_POINT('',(-1.07,3.8,0.95));
#2327=CARTESIAN_POINT('',(-1.07,3.8,2.));
#2328=CARTESIAN_POINT('',(-1.07,3.8,0.95));
#2329=CARTESIAN_POINT('',(-1.07,3.8,2.));
#2330=CARTESIAN_POINT('Origin',(-11.55,3.8,0.95));
#2331=CARTESIAN_POINT('',(-11.55,3.8,0.95));
#2332=CARTESIAN_POINT('',(-11.55,3.8,0.95));
#2333=CARTESIAN_POINT('',(-11.55,3.8,2.23));
#2334=CARTESIAN_POINT('',(-11.55,3.8,0.95));
#2335=CARTESIAN_POINT('Origin',(-1.07,3.8,0.95));
#2336=CARTESIAN_POINT('',(-1.07,3.8,0.95));
#2337=CARTESIAN_POINT('Origin',(-6.31,3.8,1.59));
#2338=CARTESIAN_POINT('',(-0.335,3.8,0.97));
#2339=CARTESIAN_POINT('Origin',(-7.5975,3.8,2.615));
#2340=CARTESIAN_POINT('',(-0.335,3.8,2.));
#2341=CARTESIAN_POINT('',(-1.335,3.8,2.));
#2342=CARTESIAN_POINT('',(-0.335,3.8,0.97));
#2343=CARTESIAN_POINT('',(-0.335,3.8,2.));
#2344=CARTESIAN_POINT('',(-0.335,3.8,0.97));
#2345=CARTESIAN_POINT('Origin',(-14.06,3.,4.26));
#2346=CARTESIAN_POINT('',(-14.06,3.,2.23));
#2347=CARTESIAN_POINT('',(-14.06,3.,4.26));
#2348=CARTESIAN_POINT('Origin',(-14.86,3.,4.26));
#2349=CARTESIAN_POINT('',(-14.86,3.,4.26));
#2350=CARTESIAN_POINT('Origin',(-14.86,3.,1.39));
#2351=CARTESIAN_POINT('',(-14.86,3.,1.39));
#2352=CARTESIAN_POINT('Origin',(-14.725,3.,1.115));
#2353=CARTESIAN_POINT('',(-14.725,3.,1.115));
#2354=CARTESIAN_POINT('Origin',(-14.515,3.,0.97));
#2355=CARTESIAN_POINT('',(-14.515,3.,0.97));
#2356=CARTESIAN_POINT('Origin',(-0.335,3.,0.97));
#2357=CARTESIAN_POINT('',(-0.335,3.,0.97));
#2358=CARTESIAN_POINT('Origin',(-14.05,2.585,4.365));
#2359=CARTESIAN_POINT('',(-14.05,2.585,2.23));
#2360=CARTESIAN_POINT('',(-14.05,2.585,4.365));
#2361=CARTESIAN_POINT('',(-14.05,2.585,2.23));
#2362=CARTESIAN_POINT('',(-14.05,2.585,2.23));
#2363=CARTESIAN_POINT('',(-14.05,2.585,4.365));
#2364=CARTESIAN_POINT('Origin',(-26.5,2.585,4.365));
#2365=CARTESIAN_POINT('',(-26.5,2.585,4.365));
#2366=CARTESIAN_POINT('',(-14.05,2.585,4.365));
#2367=CARTESIAN_POINT('',(-26.5,2.585,4.365));
#2368=CARTESIAN_POINT('Origin',(-26.5,2.585,2.));
#2369=CARTESIAN_POINT('',(-26.5,2.585,2.));
#2370=CARTESIAN_POINT('',(-26.5,2.585,4.365));
#2371=CARTESIAN_POINT('',(-26.5,2.585,2.));
#2372=CARTESIAN_POINT('Origin',(-27.5,2.585,2.));
#2373=CARTESIAN_POINT('',(-27.5,2.585,2.));
#2374=CARTESIAN_POINT('',(-26.5,2.585,2.));
#2375=CARTESIAN_POINT('',(-27.5,2.585,2.));
#2376=CARTESIAN_POINT('Origin',(-27.5,2.585,-0.5));
#2377=CARTESIAN_POINT('',(-27.5,2.585,-0.5));
#2378=CARTESIAN_POINT('',(-27.5,2.585,2.));
#2379=CARTESIAN_POINT('',(-27.5,2.585,-0.5));
#2380=CARTESIAN_POINT('Origin',(-26.5,2.585,-0.5));
#2381=CARTESIAN_POINT('',(-26.5,2.585,-0.5));
#2382=CARTESIAN_POINT('',(-27.5,2.585,-0.5));
#2383=CARTESIAN_POINT('',(-26.5,2.585,-0.5));
#2384=CARTESIAN_POINT('Origin',(-26.5,2.585,-3.));
#2385=CARTESIAN_POINT('',(-26.5,2.585,-3.));
#2386=CARTESIAN_POINT('',(-26.5,2.585,-0.5));
#2387=CARTESIAN_POINT('',(-26.5,2.585,-3.));
#2388=CARTESIAN_POINT('Origin',(-27.5,2.585,-3.));
#2389=CARTESIAN_POINT('',(-27.5,2.585,-3.));
#2390=CARTESIAN_POINT('',(-26.5,2.585,-3.));
#2391=CARTESIAN_POINT('',(-27.5,2.585,-3.));
#2392=CARTESIAN_POINT('Origin',(-27.5,2.585,-5.5));
#2393=CARTESIAN_POINT('',(-27.5,2.585,-5.5));
#2394=CARTESIAN_POINT('',(-27.5,2.585,-3.));
#2395=CARTESIAN_POINT('',(-27.5,2.585,-5.5));
#2396=CARTESIAN_POINT('Origin',(-26.5,2.585,-5.53));
#2397=CARTESIAN_POINT('',(-26.5,2.585,-5.53));
#2398=CARTESIAN_POINT('',(-27.5,2.585,-5.5));
#2399=CARTESIAN_POINT('',(-26.5,2.585,-5.53));
#2400=CARTESIAN_POINT('Origin',(-25.715,2.585,-5.2));
#2401=CARTESIAN_POINT('',(-25.715,2.585,-5.2));
#2402=CARTESIAN_POINT('',(-26.5,2.585,-5.53));
#2403=CARTESIAN_POINT('',(-25.715,2.585,-5.2));
#2404=CARTESIAN_POINT('Origin',(-24.925,2.585,-5.08));
#2405=CARTESIAN_POINT('',(-24.925,2.585,-5.08));
#2406=CARTESIAN_POINT('',(-25.715,2.585,-5.2));
#2407=CARTESIAN_POINT('',(-24.925,2.585,-5.08));
#2408=CARTESIAN_POINT('Origin',(-0.335000000000001,2.585,-5.08));
#2409=CARTESIAN_POINT('',(-0.335,2.585,-5.08));
#2410=CARTESIAN_POINT('',(-24.925,2.585,-5.08));
#2411=CARTESIAN_POINT('',(-0.335,2.585,-5.08));
#2412=CARTESIAN_POINT('Origin',(-0.335,2.585,-4.01));
#2413=CARTESIAN_POINT('',(-0.335,2.585,-4.01));
#2414=CARTESIAN_POINT('',(-0.335,2.585,-5.08));
#2415=CARTESIAN_POINT('',(-0.335,2.585,-4.01));
#2416=CARTESIAN_POINT('Origin',(-0.55,2.585,-3.81));
#2417=CARTESIAN_POINT('',(-0.55,2.585,-3.81));
#2418=CARTESIAN_POINT('',(-0.335,2.585,-4.01));
#2419=CARTESIAN_POINT('',(-0.55,2.585,-3.81));
#2420=CARTESIAN_POINT('Origin',(-0.685,2.585,-3.54));
#2421=CARTESIAN_POINT('',(-0.685,2.585,-3.54));
#2422=CARTESIAN_POINT('',(-0.55,2.585,-3.81));
#2423=CARTESIAN_POINT('',(-0.685,2.585,-3.54));
#2424=CARTESIAN_POINT('Origin',(-0.62,2.585,-3.));
#2425=CARTESIAN_POINT('',(-0.62,2.585,-3.));
#2426=CARTESIAN_POINT('',(-0.685,2.585,-3.54));
#2427=CARTESIAN_POINT('',(-0.62,2.585,-3.));
#2428=CARTESIAN_POINT('Origin',(-1.335,2.585,-3.));
#2429=CARTESIAN_POINT('',(-1.335,2.585,-3.));
#2430=CARTESIAN_POINT('',(-0.62,2.585,-3.));
#2431=CARTESIAN_POINT('',(-1.335,2.585,-3.));
#2432=CARTESIAN_POINT('Origin',(-1.335,2.585,-0.5));
#2433=CARTESIAN_POINT('',(-1.335,2.585,-0.5));
#2434=CARTESIAN_POINT('',(-1.335,2.585,-3.));
#2435=CARTESIAN_POINT('',(-1.335,2.585,-0.5));
#2436=CARTESIAN_POINT('Origin',(-0.335,2.585,-0.5));
#2437=CARTESIAN_POINT('',(-0.335,2.585,-0.5));
#2438=CARTESIAN_POINT('',(-1.335,2.585,-0.5));
#2439=CARTESIAN_POINT('',(-0.335,2.585,-0.5));
#2440=CARTESIAN_POINT('Origin',(-0.335,2.585,2.));
#2441=CARTESIAN_POINT('',(-0.335,2.585,2.));
#2442=CARTESIAN_POINT('',(-0.335,2.585,-0.5));
#2443=CARTESIAN_POINT('',(-0.335,2.585,2.));
#2444=CARTESIAN_POINT('Origin',(-1.335,2.585,2.));
#2445=CARTESIAN_POINT('',(-1.335,2.585,2.));
#2446=CARTESIAN_POINT('',(-0.335,2.585,2.));
#2447=CARTESIAN_POINT('',(-1.335,2.585,2.));
#2448=CARTESIAN_POINT('Origin',(-1.335,2.585,2.23));
#2449=CARTESIAN_POINT('',(-1.335,2.585,2.23));
#2450=CARTESIAN_POINT('',(-1.335,2.585,2.));
#2451=CARTESIAN_POINT('',(-1.335,2.585,2.23));
#2452=CARTESIAN_POINT('Origin',(-14.05,2.585,2.23));
#2453=CARTESIAN_POINT('',(-1.335,2.585,2.23));
#2454=CARTESIAN_POINT('Origin',(-13.9175,2.585,-0.5825));
#2455=UNCERTAINTY_MEASURE_WITH_UNIT(LENGTH_MEASURE(0.001),#2459,
'DISTANCE_ACCURACY_VALUE',
'Maximum model space distance between geometric entities at asserted c
onnectivities');
#2456=UNCERTAINTY_MEASURE_WITH_UNIT(LENGTH_MEASURE(0.001),#2459,
'DISTANCE_ACCURACY_VALUE',
'Maximum model space distance between geometric entities at asserted c
onnectivities');
#2457=(
GEOMETRIC_REPRESENTATION_CONTEXT(3)
GLOBAL_UNCERTAINTY_ASSIGNED_CONTEXT((#2455))
GLOBAL_UNIT_ASSIGNED_CONTEXT((#2459,#2461,#2462))
REPRESENTATION_CONTEXT('','3D')
);
#2458=(
GEOMETRIC_REPRESENTATION_CONTEXT(3)
GLOBAL_UNCERTAINTY_ASSIGNED_CONTEXT((#2456))
GLOBAL_UNIT_ASSIGNED_CONTEXT((#2459,#2461,#2462))
REPRESENTATION_CONTEXT('','3D')
);
#2459=(
LENGTH_UNIT()
NAMED_UNIT(*)
SI_UNIT(.CENTI.,.METRE.)
);
#2460=(
LENGTH_UNIT()
NAMED_UNIT(*)
SI_UNIT($,.METRE.)
);
#2461=(
NAMED_UNIT(*)
PLANE_ANGLE_UNIT()
SI_UNIT($,.RADIAN.)
);
#2462=(
NAMED_UNIT(*)
SI_UNIT($,.STERADIAN.)
SOLID_ANGLE_UNIT()
);
#2463=SHAPE_DEFINITION_REPRESENTATION(#2464,#2465);
#2464=PRODUCT_DEFINITION_SHAPE('',$,#2467);
#2465=SHAPE_REPRESENTATION('',(#1491),#2457);
#2466=PRODUCT_DEFINITION_CONTEXT('part definition',#2471,'design');
#2467=PRODUCT_DEFINITION('Side_R2_Native','Side_R2_Native',#2468,#2466);
#2468=PRODUCT_DEFINITION_FORMATION('',$,#2473);
#2469=PRODUCT_RELATED_PRODUCT_CATEGORY('Side_R2_Native',
'Side_R2_Native',(#2473));
#2470=APPLICATION_PROTOCOL_DEFINITION('international standard',
'automotive_design',2009,#2471);
#2471=APPLICATION_CONTEXT(
'Core Data for Automotive Mechanical Design Process');
#2472=PRODUCT_CONTEXT('part definition',#2471,'mechanical');
#2473=PRODUCT('Side_R2_Native','Side_R2_Native',$,(#2472));
#2474=PRESENTATION_STYLE_ASSIGNMENT((#2475));
#2475=SURFACE_STYLE_USAGE(.BOTH.,#2476);
#2476=SURFACE_SIDE_STYLE('',(#2477));
#2477=SURFACE_STYLE_FILL_AREA(#2478);
#2478=FILL_AREA_STYLE('Steel - Satin',(#2479));
#2479=FILL_AREA_STYLE_COLOUR('Steel - Satin',#2480);
#2480=COLOUR_RGB('Steel - Satin',0.627450980392157,0.627450980392157,0.627450980392157);
ENDSEC;
END-ISO-10303-21;
