ISO-10303-21;
HEADER;
/* Generated by software containing ST-Developer
 * from STEP Tools, Inc. (www.steptools.com) 
 */

FILE_DESCRIPTION(
/* description */ (''),
/* implementation_level */ '2;1');

FILE_NAME(
/* name */ 'Top1_native.stp',
/* time_stamp */ '2026-09-13T14:51:10-05:00',
/* author */ (''),
/* organization */ (''),
/* preprocessor_version */ 'ST-DEVELOPER v20.1',
/* originating_system */ 'Autodesk Translation Framework v15.8.0.0',
/* authorisation */ '');

FILE_SCHEMA (('AUTOMOTIVE_DESIGN { 1 0 10303 214 3 1 1 }'));
ENDSEC;

DATA;
#10=MECHANICAL_DESIGN_GEOMETRIC_PRESENTATION_REPRESENTATION('',(#13),#1394);
#11=SHAPE_REPRESENTATION_RELATIONSHIP('SRR','None',#1401,#12);
#12=ADVANCED_BREP_SHAPE_REPRESENTATION('',(#14),#1393);
#13=STYLED_ITEM('',(#1410),#14);
#14=MANIFOLD_SOLID_BREP('Top1_native',#854);
#15=FACE_BOUND('',#132,.T.);
#16=FACE_BOUND('',#148,.T.);
#17=FACE_BOUND('',#154,.T.);
#18=FACE_BOUND('',#155,.T.);
#19=FACE_BOUND('',#156,.T.);
#20=FACE_BOUND('',#157,.T.);
#21=FACE_BOUND('',#158,.T.);
#22=FACE_BOUND('',#159,.T.);
#23=PLANE('',#871);
#24=PLANE('',#875);
#25=PLANE('',#879);
#26=PLANE('',#883);
#27=PLANE('',#887);
#28=PLANE('',#891);
#29=PLANE('',#892);
#30=PLANE('',#893);
#31=PLANE('',#894);
#32=PLANE('',#895);
#33=PLANE('',#896);
#34=PLANE('',#897);
#35=PLANE('',#898);
#36=PLANE('',#899);
#37=PLANE('',#900);
#38=PLANE('',#901);
#39=PLANE('',#902);
#40=PLANE('',#903);
#41=PLANE('',#904);
#42=PLANE('',#905);
#43=PLANE('',#906);
#44=PLANE('',#907);
#45=PLANE('',#908);
#46=PLANE('',#909);
#47=PLANE('',#910);
#48=PLANE('',#911);
#49=PLANE('',#912);
#50=PLANE('',#913);
#51=PLANE('',#914);
#52=PLANE('',#915);
#53=PLANE('',#916);
#54=PLANE('',#917);
#55=PLANE('',#918);
#56=PLANE('',#919);
#57=PLANE('',#920);
#58=PLANE('',#921);
#59=PLANE('',#922);
#60=PLANE('',#923);
#61=PLANE('',#924);
#62=PLANE('',#925);
#63=PLANE('',#926);
#64=PLANE('',#927);
#65=PLANE('',#928);
#66=FACE_OUTER_BOUND('',#115,.T.);
#67=FACE_OUTER_BOUND('',#116,.T.);
#68=FACE_OUTER_BOUND('',#117,.T.);
#69=FACE_OUTER_BOUND('',#118,.T.);
#70=FACE_OUTER_BOUND('',#119,.T.);
#71=FACE_OUTER_BOUND('',#120,.T.);
#72=FACE_OUTER_BOUND('',#121,.T.);
#73=FACE_OUTER_BOUND('',#122,.T.);
#74=FACE_OUTER_BOUND('',#123,.T.);
#75=FACE_OUTER_BOUND('',#124,.T.);
#76=FACE_OUTER_BOUND('',#125,.T.);
#77=FACE_OUTER_BOUND('',#126,.T.);
#78=FACE_OUTER_BOUND('',#127,.T.);
#79=FACE_OUTER_BOUND('',#128,.T.);
#80=FACE_OUTER_BOUND('',#129,.T.);
#81=FACE_OUTER_BOUND('',#130,.T.);
#82=FACE_OUTER_BOUND('',#131,.T.);
#83=FACE_OUTER_BOUND('',#133,.T.);
#84=FACE_OUTER_BOUND('',#134,.T.);
#85=FACE_OUTER_BOUND('',#135,.T.);
#86=FACE_OUTER_BOUND('',#136,.T.);
#87=FACE_OUTER_BOUND('',#137,.T.);
#88=FACE_OUTER_BOUND('',#138,.T.);
#89=FACE_OUTER_BOUND('',#139,.T.);
#90=FACE_OUTER_BOUND('',#140,.T.);
#91=FACE_OUTER_BOUND('',#141,.T.);
#92=FACE_OUTER_BOUND('',#142,.T.);
#93=FACE_OUTER_BOUND('',#143,.T.);
#94=FACE_OUTER_BOUND('',#144,.T.);
#95=FACE_OUTER_BOUND('',#145,.T.);
#96=FACE_OUTER_BOUND('',#146,.T.);
#97=FACE_OUTER_BOUND('',#147,.T.);
#98=FACE_OUTER_BOUND('',#149,.T.);
#99=FACE_OUTER_BOUND('',#150,.T.);
#100=FACE_OUTER_BOUND('',#151,.T.);
#101=FACE_OUTER_BOUND('',#152,.T.);
#102=FACE_OUTER_BOUND('',#153,.T.);
#103=FACE_OUTER_BOUND('',#160,.T.);
#104=FACE_OUTER_BOUND('',#161,.T.);
#105=FACE_OUTER_BOUND('',#162,.T.);
#106=FACE_OUTER_BOUND('',#163,.T.);
#107=FACE_OUTER_BOUND('',#164,.T.);
#108=FACE_OUTER_BOUND('',#165,.T.);
#109=FACE_OUTER_BOUND('',#166,.T.);
#110=FACE_OUTER_BOUND('',#167,.T.);
#111=FACE_OUTER_BOUND('',#168,.T.);
#112=FACE_OUTER_BOUND('',#169,.T.);
#113=FACE_OUTER_BOUND('',#170,.T.);
#114=FACE_OUTER_BOUND('',#171,.T.);
#115=EDGE_LOOP('',(#573,#574,#575,#576));
#116=EDGE_LOOP('',(#577));
#117=EDGE_LOOP('',(#578,#579,#580,#581));
#118=EDGE_LOOP('',(#582));
#119=EDGE_LOOP('',(#583,#584,#585,#586));
#120=EDGE_LOOP('',(#587));
#121=EDGE_LOOP('',(#588,#589,#590,#591));
#122=EDGE_LOOP('',(#592));
#123=EDGE_LOOP('',(#593,#594,#595,#596));
#124=EDGE_LOOP('',(#597));
#125=EDGE_LOOP('',(#598,#599,#600,#601));
#126=EDGE_LOOP('',(#602));
#127=EDGE_LOOP('',(#603,#604,#605,#606));
#128=EDGE_LOOP('',(#607,#608,#609,#610));
#129=EDGE_LOOP('',(#611,#612,#613,#614));
#130=EDGE_LOOP('',(#615,#616,#617,#618));
#131=EDGE_LOOP('',(#619,#620,#621,#622,#623,#624,#625,#626,#627,#628,#629,
#630));
#132=EDGE_LOOP('',(#631,#632,#633,#634));
#133=EDGE_LOOP('',(#635,#636,#637,#638));
#134=EDGE_LOOP('',(#639,#640,#641,#642));
#135=EDGE_LOOP('',(#643,#644,#645,#646));
#136=EDGE_LOOP('',(#647,#648,#649,#650));
#137=EDGE_LOOP('',(#651,#652,#653,#654));
#138=EDGE_LOOP('',(#655,#656,#657,#658));
#139=EDGE_LOOP('',(#659,#660,#661,#662,#663,#664,#665));
#140=EDGE_LOOP('',(#666,#667,#668,#669));
#141=EDGE_LOOP('',(#670,#671,#672,#673));
#142=EDGE_LOOP('',(#674,#675,#676,#677));
#143=EDGE_LOOP('',(#678,#679,#680,#681));
#144=EDGE_LOOP('',(#682,#683,#684,#685));
#145=EDGE_LOOP('',(#686,#687,#688,#689));
#146=EDGE_LOOP('',(#690,#691,#692,#693,#694,#695,#696));
#147=EDGE_LOOP('',(#697,#698,#699,#700));
#148=EDGE_LOOP('',(#701,#702,#703,#704));
#149=EDGE_LOOP('',(#705,#706,#707,#708,#709,#710));
#150=EDGE_LOOP('',(#711,#712,#713,#714,#715,#716));
#151=EDGE_LOOP('',(#717,#718,#719,#720));
#152=EDGE_LOOP('',(#721,#722,#723,#724));
#153=EDGE_LOOP('',(#725,#726,#727,#728,#729,#730,#731,#732,#733,#734,#735,
#736));
#154=EDGE_LOOP('',(#737));
#155=EDGE_LOOP('',(#738));
#156=EDGE_LOOP('',(#739));
#157=EDGE_LOOP('',(#740));
#158=EDGE_LOOP('',(#741));
#159=EDGE_LOOP('',(#742));
#160=EDGE_LOOP('',(#743,#744,#745,#746));
#161=EDGE_LOOP('',(#747,#748,#749,#750));
#162=EDGE_LOOP('',(#751,#752,#753,#754));
#163=EDGE_LOOP('',(#755,#756,#757,#758));
#164=EDGE_LOOP('',(#759,#760,#761,#762));
#165=EDGE_LOOP('',(#763,#764,#765,#766));
#166=EDGE_LOOP('',(#767,#768,#769,#770));
#167=EDGE_LOOP('',(#771,#772,#773,#774,#775,#776,#777,#778));
#168=EDGE_LOOP('',(#779,#780,#781,#782));
#169=EDGE_LOOP('',(#783,#784,#785,#786));
#170=EDGE_LOOP('',(#787,#788,#789,#790));
#171=EDGE_LOOP('',(#791,#792,#793,#794,#795,#796,#797,#798));
#172=LINE('',#1159,#273);
#173=LINE('',#1166,#274);
#174=LINE('',#1173,#275);
#175=LINE('',#1180,#276);
#176=LINE('',#1187,#277);
#177=LINE('',#1194,#278);
#178=LINE('',#1200,#279);
#179=LINE('',#1202,#280);
#180=LINE('',#1204,#281);
#181=LINE('',#1205,#282);
#182=LINE('',#1209,#283);
#183=LINE('',#1211,#284);
#184=LINE('',#1213,#285);
#185=LINE('',#1214,#286);
#186=LINE('',#1217,#287);
#187=LINE('',#1219,#288);
#188=LINE('',#1220,#289);
#189=LINE('',#1223,#290);
#190=LINE('',#1224,#291);
#191=LINE('',#1227,#292);
#192=LINE('',#1229,#293);
#193=LINE('',#1231,#294);
#194=LINE('',#1233,#295);
#195=LINE('',#1235,#296);
#196=LINE('',#1236,#297);
#197=LINE('',#1238,#298);
#198=LINE('',#1240,#299);
#199=LINE('',#1241,#300);
#200=LINE('',#1244,#301);
#201=LINE('',#1246,#302);
#202=LINE('',#1248,#303);
#203=LINE('',#1249,#304);
#204=LINE('',#1251,#305);
#205=LINE('',#1253,#306);
#206=LINE('',#1254,#307);
#207=LINE('',#1256,#308);
#208=LINE('',#1259,#309);
#209=LINE('',#1260,#310);
#210=LINE('',#1262,#311);
#211=LINE('',#1265,#312);
#212=LINE('',#1268,#313);
#213=LINE('',#1270,#314);
#214=LINE('',#1272,#315);
#215=LINE('',#1274,#316);
#216=LINE('',#1276,#317);
#217=LINE('',#1277,#318);
#218=LINE('',#1280,#319);
#219=LINE('',#1281,#320);
#220=LINE('',#1284,#321);
#221=LINE('',#1285,#322);
#222=LINE('',#1288,#323);
#223=LINE('',#1289,#324);
#224=LINE('',#1292,#325);
#225=LINE('',#1293,#326);
#226=LINE('',#1296,#327);
#227=LINE('',#1297,#328);
#228=LINE('',#1299,#329);
#229=LINE('',#1304,#330);
#230=LINE('',#1306,#331);
#231=LINE('',#1308,#332);
#232=LINE('',#1309,#333);
#233=LINE('',#1312,#334);
#234=LINE('',#1314,#335);
#235=LINE('',#1316,#336);
#236=LINE('',#1317,#337);
#237=LINE('',#1319,#338);
#238=LINE('',#1320,#339);
#239=LINE('',#1322,#340);
#240=LINE('',#1323,#341);
#241=LINE('',#1326,#342);
#242=LINE('',#1328,#343);
#243=LINE('',#1329,#344);
#244=LINE('',#1332,#345);
#245=LINE('',#1334,#346);
#246=LINE('',#1335,#347);
#247=LINE('',#1338,#348);
#248=LINE('',#1340,#349);
#249=LINE('',#1342,#350);
#250=LINE('',#1344,#351);
#251=LINE('',#1346,#352);
#252=LINE('',#1348,#353);
#253=LINE('',#1350,#354);
#254=LINE('',#1352,#355);
#255=LINE('',#1353,#356);
#256=LINE('',#1354,#357);
#257=LINE('',#1359,#358);
#258=LINE('',#1361,#359);
#259=LINE('',#1362,#360);
#260=LINE('',#1366,#361);
#261=LINE('',#1367,#362);
#262=LINE('',#1370,#363);
#263=LINE('',#1371,#364);
#264=LINE('',#1373,#365);
#265=LINE('',#1376,#366);
#266=LINE('',#1378,#367);
#267=LINE('',#1379,#368);
#268=LINE('',#1382,#369);
#269=LINE('',#1383,#370);
#270=LINE('',#1386,#371);
#271=LINE('',#1387,#372);
#272=LINE('',#1389,#373);
#273=VECTOR('',#935,0.17);
#274=VECTOR('',#944,0.17);
#275=VECTOR('',#953,0.17);
#276=VECTOR('',#962,0.17);
#277=VECTOR('',#971,0.17);
#278=VECTOR('',#980,0.17);
#279=VECTOR('',#987,1.);
#280=VECTOR('',#988,1.);
#281=VECTOR('',#989,1.);
#282=VECTOR('',#990,1.);
#283=VECTOR('',#993,1.);
#284=VECTOR('',#994,1.);
#285=VECTOR('',#995,1.);
#286=VECTOR('',#996,1.);
#287=VECTOR('',#999,1.);
#288=VECTOR('',#1000,1.);
#289=VECTOR('',#1001,1.);
#290=VECTOR('',#1004,1.);
#291=VECTOR('',#1005,1.);
#292=VECTOR('',#1008,1.);
#293=VECTOR('',#1009,1.);
#294=VECTOR('',#1010,1.);
#295=VECTOR('',#1011,1.);
#296=VECTOR('',#1012,1.);
#297=VECTOR('',#1013,1.);
#298=VECTOR('',#1014,1.);
#299=VECTOR('',#1015,1.);
#300=VECTOR('',#1016,1.);
#301=VECTOR('',#1017,1.);
#302=VECTOR('',#1018,1.);
#303=VECTOR('',#1019,1.);
#304=VECTOR('',#1020,1.);
#305=VECTOR('',#1023,1.);
#306=VECTOR('',#1024,1.);
#307=VECTOR('',#1025,1.);
#308=VECTOR('',#1028,1.);
#309=VECTOR('',#1031,1.);
#310=VECTOR('',#1032,1.);
#311=VECTOR('',#1035,1.);
#312=VECTOR('',#1040,1.);
#313=VECTOR('',#1043,1.);
#314=VECTOR('',#1044,1.);
#315=VECTOR('',#1045,1.);
#316=VECTOR('',#1046,1.);
#317=VECTOR('',#1047,1.);
#318=VECTOR('',#1048,1.);
#319=VECTOR('',#1051,1.);
#320=VECTOR('',#1052,1.);
#321=VECTOR('',#1055,1.);
#322=VECTOR('',#1056,1.);
#323=VECTOR('',#1059,1.);
#324=VECTOR('',#1060,1.);
#325=VECTOR('',#1063,1.);
#326=VECTOR('',#1064,1.);
#327=VECTOR('',#1067,1.);
#328=VECTOR('',#1068,1.);
#329=VECTOR('',#1071,1.);
#330=VECTOR('',#1076,1.);
#331=VECTOR('',#1077,1.);
#332=VECTOR('',#1078,1.);
#333=VECTOR('',#1079,1.);
#334=VECTOR('',#1080,1.);
#335=VECTOR('',#1081,1.);
#336=VECTOR('',#1082,1.);
#337=VECTOR('',#1083,1.);
#338=VECTOR('',#1086,1.);
#339=VECTOR('',#1087,1.);
#340=VECTOR('',#1090,1.);
#341=VECTOR('',#1091,1.);
#342=VECTOR('',#1094,1.);
#343=VECTOR('',#1095,1.);
#344=VECTOR('',#1096,1.);
#345=VECTOR('',#1099,1.);
#346=VECTOR('',#1100,1.);
#347=VECTOR('',#1101,1.);
#348=VECTOR('',#1104,1.);
#349=VECTOR('',#1105,1.);
#350=VECTOR('',#1106,1.);
#351=VECTOR('',#1107,1.);
#352=VECTOR('',#1108,1.);
#353=VECTOR('',#1109,1.);
#354=VECTOR('',#1110,1.);
#355=VECTOR('',#1111,1.);
#356=VECTOR('',#1112,1.);
#357=VECTOR('',#1113,1.);
#358=VECTOR('',#1120,1.);
#359=VECTOR('',#1121,1.);
#360=VECTOR('',#1122,1.);
#361=VECTOR('',#1127,1.);
#362=VECTOR('',#1128,1.);
#363=VECTOR('',#1131,1.);
#364=VECTOR('',#1132,1.);
#365=VECTOR('',#1135,1.);
#366=VECTOR('',#1138,1.);
#367=VECTOR('',#1139,1.);
#368=VECTOR('',#1140,1.);
#369=VECTOR('',#1143,1.);
#370=VECTOR('',#1144,1.);
#371=VECTOR('',#1147,1.);
#372=VECTOR('',#1148,1.);
#373=VECTOR('',#1151,1.);
#374=CIRCLE('',#869,0.17);
#375=CIRCLE('',#870,0.17);
#376=CIRCLE('',#873,0.17);
#377=CIRCLE('',#874,0.17);
#378=CIRCLE('',#877,0.17);
#379=CIRCLE('',#878,0.17);
#380=CIRCLE('',#881,0.17);
#381=CIRCLE('',#882,0.17);
#382=CIRCLE('',#885,0.17);
#383=CIRCLE('',#886,0.17);
#384=CIRCLE('',#889,0.17);
#385=CIRCLE('',#890,0.17);
#386=VERTEX_POINT('',#1156);
#387=VERTEX_POINT('',#1158);
#388=VERTEX_POINT('',#1163);
#389=VERTEX_POINT('',#1165);
#390=VERTEX_POINT('',#1170);
#391=VERTEX_POINT('',#1172);
#392=VERTEX_POINT('',#1177);
#393=VERTEX_POINT('',#1179);
#394=VERTEX_POINT('',#1184);
#395=VERTEX_POINT('',#1186);
#396=VERTEX_POINT('',#1191);
#397=VERTEX_POINT('',#1193);
#398=VERTEX_POINT('',#1198);
#399=VERTEX_POINT('',#1199);
#400=VERTEX_POINT('',#1201);
#401=VERTEX_POINT('',#1203);
#402=VERTEX_POINT('',#1207);
#403=VERTEX_POINT('',#1208);
#404=VERTEX_POINT('',#1210);
#405=VERTEX_POINT('',#1212);
#406=VERTEX_POINT('',#1216);
#407=VERTEX_POINT('',#1218);
#408=VERTEX_POINT('',#1222);
#409=VERTEX_POINT('',#1226);
#410=VERTEX_POINT('',#1228);
#411=VERTEX_POINT('',#1230);
#412=VERTEX_POINT('',#1232);
#413=VERTEX_POINT('',#1234);
#414=VERTEX_POINT('',#1237);
#415=VERTEX_POINT('',#1239);
#416=VERTEX_POINT('',#1242);
#417=VERTEX_POINT('',#1243);
#418=VERTEX_POINT('',#1245);
#419=VERTEX_POINT('',#1247);
#420=VERTEX_POINT('',#1252);
#421=VERTEX_POINT('',#1258);
#422=VERTEX_POINT('',#1267);
#423=VERTEX_POINT('',#1269);
#424=VERTEX_POINT('',#1271);
#425=VERTEX_POINT('',#1273);
#426=VERTEX_POINT('',#1275);
#427=VERTEX_POINT('',#1279);
#428=VERTEX_POINT('',#1283);
#429=VERTEX_POINT('',#1287);
#430=VERTEX_POINT('',#1291);
#431=VERTEX_POINT('',#1295);
#432=VERTEX_POINT('',#1302);
#433=VERTEX_POINT('',#1303);
#434=VERTEX_POINT('',#1305);
#435=VERTEX_POINT('',#1307);
#436=VERTEX_POINT('',#1310);
#437=VERTEX_POINT('',#1311);
#438=VERTEX_POINT('',#1313);
#439=VERTEX_POINT('',#1315);
#440=VERTEX_POINT('',#1325);
#441=VERTEX_POINT('',#1327);
#442=VERTEX_POINT('',#1331);
#443=VERTEX_POINT('',#1333);
#444=VERTEX_POINT('',#1337);
#445=VERTEX_POINT('',#1339);
#446=VERTEX_POINT('',#1341);
#447=VERTEX_POINT('',#1343);
#448=VERTEX_POINT('',#1345);
#449=VERTEX_POINT('',#1347);
#450=VERTEX_POINT('',#1349);
#451=VERTEX_POINT('',#1351);
#452=VERTEX_POINT('',#1358);
#453=VERTEX_POINT('',#1360);
#454=VERTEX_POINT('',#1365);
#455=VERTEX_POINT('',#1369);
#456=VERTEX_POINT('',#1375);
#457=VERTEX_POINT('',#1377);
#458=VERTEX_POINT('',#1381);
#459=VERTEX_POINT('',#1385);
#460=EDGE_CURVE('',#386,#386,#374,.T.);
#461=EDGE_CURVE('',#386,#387,#172,.T.);
#462=EDGE_CURVE('',#387,#387,#375,.T.);
#463=EDGE_CURVE('',#388,#388,#376,.T.);
#464=EDGE_CURVE('',#388,#389,#173,.T.);
#465=EDGE_CURVE('',#389,#389,#377,.T.);
#466=EDGE_CURVE('',#390,#390,#378,.T.);
#467=EDGE_CURVE('',#390,#391,#174,.T.);
#468=EDGE_CURVE('',#391,#391,#379,.T.);
#469=EDGE_CURVE('',#392,#392,#380,.T.);
#470=EDGE_CURVE('',#392,#393,#175,.T.);
#471=EDGE_CURVE('',#393,#393,#381,.T.);
#472=EDGE_CURVE('',#394,#394,#382,.T.);
#473=EDGE_CURVE('',#394,#395,#176,.T.);
#474=EDGE_CURVE('',#395,#395,#383,.T.);
#475=EDGE_CURVE('',#396,#396,#384,.T.);
#476=EDGE_CURVE('',#396,#397,#177,.T.);
#477=EDGE_CURVE('',#397,#397,#385,.T.);
#478=EDGE_CURVE('',#398,#399,#178,.T.);
#479=EDGE_CURVE('',#400,#398,#179,.T.);
#480=EDGE_CURVE('',#401,#400,#180,.T.);
#481=EDGE_CURVE('',#399,#401,#181,.T.);
#482=EDGE_CURVE('',#402,#403,#182,.T.);
#483=EDGE_CURVE('',#404,#402,#183,.T.);
#484=EDGE_CURVE('',#405,#404,#184,.T.);
#485=EDGE_CURVE('',#403,#405,#185,.T.);
#486=EDGE_CURVE('',#406,#405,#186,.T.);
#487=EDGE_CURVE('',#406,#407,#187,.T.);
#488=EDGE_CURVE('',#407,#403,#188,.T.);
#489=EDGE_CURVE('',#408,#404,#189,.T.);
#490=EDGE_CURVE('',#408,#406,#190,.T.);
#491=EDGE_CURVE('',#401,#409,#191,.T.);
#492=EDGE_CURVE('',#409,#410,#192,.T.);
#493=EDGE_CURVE('',#411,#410,#193,.T.);
#494=EDGE_CURVE('',#411,#412,#194,.T.);
#495=EDGE_CURVE('',#412,#413,#195,.T.);
#496=EDGE_CURVE('',#413,#408,#196,.T.);
#497=EDGE_CURVE('',#402,#414,#197,.T.);
#498=EDGE_CURVE('',#415,#414,#198,.T.);
#499=EDGE_CURVE('',#399,#415,#199,.T.);
#500=EDGE_CURVE('',#416,#417,#200,.T.);
#501=EDGE_CURVE('',#417,#418,#201,.T.);
#502=EDGE_CURVE('',#418,#419,#202,.T.);
#503=EDGE_CURVE('',#419,#416,#203,.T.);
#504=EDGE_CURVE('',#410,#399,#204,.T.);
#505=EDGE_CURVE('',#410,#420,#205,.T.);
#506=EDGE_CURVE('',#420,#398,#206,.T.);
#507=EDGE_CURVE('',#407,#413,#207,.T.);
#508=EDGE_CURVE('',#421,#409,#208,.T.);
#509=EDGE_CURVE('',#420,#421,#209,.T.);
#510=EDGE_CURVE('',#421,#400,#210,.T.);
#511=EDGE_CURVE('',#413,#402,#211,.T.);
#512=EDGE_CURVE('',#418,#422,#212,.T.);
#513=EDGE_CURVE('',#422,#423,#213,.T.);
#514=EDGE_CURVE('',#423,#424,#214,.T.);
#515=EDGE_CURVE('',#424,#425,#215,.T.);
#516=EDGE_CURVE('',#425,#426,#216,.T.);
#517=EDGE_CURVE('',#426,#419,#217,.T.);
#518=EDGE_CURVE('',#427,#416,#218,.T.);
#519=EDGE_CURVE('',#427,#426,#219,.T.);
#520=EDGE_CURVE('',#428,#427,#220,.T.);
#521=EDGE_CURVE('',#428,#425,#221,.T.);
#522=EDGE_CURVE('',#429,#428,#222,.T.);
#523=EDGE_CURVE('',#429,#424,#223,.T.);
#524=EDGE_CURVE('',#430,#429,#224,.T.);
#525=EDGE_CURVE('',#430,#423,#225,.T.);
#526=EDGE_CURVE('',#431,#430,#226,.T.);
#527=EDGE_CURVE('',#431,#422,#227,.T.);
#528=EDGE_CURVE('',#417,#431,#228,.T.);
#529=EDGE_CURVE('',#432,#433,#229,.T.);
#530=EDGE_CURVE('',#434,#433,#230,.T.);
#531=EDGE_CURVE('',#435,#434,#231,.T.);
#532=EDGE_CURVE('',#435,#432,#232,.T.);
#533=EDGE_CURVE('',#436,#437,#233,.T.);
#534=EDGE_CURVE('',#438,#436,#234,.T.);
#535=EDGE_CURVE('',#438,#439,#235,.T.);
#536=EDGE_CURVE('',#437,#439,#236,.T.);
#537=EDGE_CURVE('',#412,#436,#237,.T.);
#538=EDGE_CURVE('',#414,#437,#238,.T.);
#539=EDGE_CURVE('',#439,#415,#239,.T.);
#540=EDGE_CURVE('',#438,#411,#240,.T.);
#541=EDGE_CURVE('',#432,#440,#241,.T.);
#542=EDGE_CURVE('',#440,#441,#242,.T.);
#543=EDGE_CURVE('',#433,#441,#243,.T.);
#544=EDGE_CURVE('',#442,#434,#244,.T.);
#545=EDGE_CURVE('',#443,#442,#245,.T.);
#546=EDGE_CURVE('',#443,#435,#246,.T.);
#547=EDGE_CURVE('',#440,#444,#247,.T.);
#548=EDGE_CURVE('',#444,#445,#248,.T.);
#549=EDGE_CURVE('',#445,#446,#249,.T.);
#550=EDGE_CURVE('',#446,#447,#250,.T.);
#551=EDGE_CURVE('',#447,#448,#251,.T.);
#552=EDGE_CURVE('',#449,#448,#252,.T.);
#553=EDGE_CURVE('',#449,#450,#253,.T.);
#554=EDGE_CURVE('',#451,#450,#254,.T.);
#555=EDGE_CURVE('',#451,#443,#255,.T.);
#556=EDGE_CURVE('',#441,#442,#256,.T.);
#557=EDGE_CURVE('',#447,#452,#257,.T.);
#558=EDGE_CURVE('',#452,#453,#258,.T.);
#559=EDGE_CURVE('',#453,#448,#259,.T.);
#560=EDGE_CURVE('',#454,#449,#260,.T.);
#561=EDGE_CURVE('',#454,#453,#261,.T.);
#562=EDGE_CURVE('',#455,#454,#262,.T.);
#563=EDGE_CURVE('',#455,#452,#263,.T.);
#564=EDGE_CURVE('',#446,#455,#264,.T.);
#565=EDGE_CURVE('',#456,#450,#265,.T.);
#566=EDGE_CURVE('',#445,#457,#266,.T.);
#567=EDGE_CURVE('',#457,#456,#267,.T.);
#568=EDGE_CURVE('',#458,#451,#268,.T.);
#569=EDGE_CURVE('',#458,#456,#269,.T.);
#570=EDGE_CURVE('',#459,#458,#270,.T.);
#571=EDGE_CURVE('',#459,#457,#271,.T.);
#572=EDGE_CURVE('',#444,#459,#272,.T.);
#573=ORIENTED_EDGE('',*,*,#460,.F.);
#574=ORIENTED_EDGE('',*,*,#461,.T.);
#575=ORIENTED_EDGE('',*,*,#462,.T.);
#576=ORIENTED_EDGE('',*,*,#461,.F.);
#577=ORIENTED_EDGE('',*,*,#462,.F.);
#578=ORIENTED_EDGE('',*,*,#463,.F.);
#579=ORIENTED_EDGE('',*,*,#464,.T.);
#580=ORIENTED_EDGE('',*,*,#465,.T.);
#581=ORIENTED_EDGE('',*,*,#464,.F.);
#582=ORIENTED_EDGE('',*,*,#465,.F.);
#583=ORIENTED_EDGE('',*,*,#466,.F.);
#584=ORIENTED_EDGE('',*,*,#467,.T.);
#585=ORIENTED_EDGE('',*,*,#468,.T.);
#586=ORIENTED_EDGE('',*,*,#467,.F.);
#587=ORIENTED_EDGE('',*,*,#468,.F.);
#588=ORIENTED_EDGE('',*,*,#469,.F.);
#589=ORIENTED_EDGE('',*,*,#470,.T.);
#590=ORIENTED_EDGE('',*,*,#471,.T.);
#591=ORIENTED_EDGE('',*,*,#470,.F.);
#592=ORIENTED_EDGE('',*,*,#471,.F.);
#593=ORIENTED_EDGE('',*,*,#472,.F.);
#594=ORIENTED_EDGE('',*,*,#473,.T.);
#595=ORIENTED_EDGE('',*,*,#474,.T.);
#596=ORIENTED_EDGE('',*,*,#473,.F.);
#597=ORIENTED_EDGE('',*,*,#474,.F.);
#598=ORIENTED_EDGE('',*,*,#475,.F.);
#599=ORIENTED_EDGE('',*,*,#476,.T.);
#600=ORIENTED_EDGE('',*,*,#477,.T.);
#601=ORIENTED_EDGE('',*,*,#476,.F.);
#602=ORIENTED_EDGE('',*,*,#477,.F.);
#603=ORIENTED_EDGE('',*,*,#478,.F.);
#604=ORIENTED_EDGE('',*,*,#479,.F.);
#605=ORIENTED_EDGE('',*,*,#480,.F.);
#606=ORIENTED_EDGE('',*,*,#481,.F.);
#607=ORIENTED_EDGE('',*,*,#482,.F.);
#608=ORIENTED_EDGE('',*,*,#483,.F.);
#609=ORIENTED_EDGE('',*,*,#484,.F.);
#610=ORIENTED_EDGE('',*,*,#485,.F.);
#611=ORIENTED_EDGE('',*,*,#485,.T.);
#612=ORIENTED_EDGE('',*,*,#486,.F.);
#613=ORIENTED_EDGE('',*,*,#487,.T.);
#614=ORIENTED_EDGE('',*,*,#488,.T.);
#615=ORIENTED_EDGE('',*,*,#484,.T.);
#616=ORIENTED_EDGE('',*,*,#489,.F.);
#617=ORIENTED_EDGE('',*,*,#490,.T.);
#618=ORIENTED_EDGE('',*,*,#486,.T.);
#619=ORIENTED_EDGE('',*,*,#491,.T.);
#620=ORIENTED_EDGE('',*,*,#492,.T.);
#621=ORIENTED_EDGE('',*,*,#493,.F.);
#622=ORIENTED_EDGE('',*,*,#494,.T.);
#623=ORIENTED_EDGE('',*,*,#495,.T.);
#624=ORIENTED_EDGE('',*,*,#496,.T.);
#625=ORIENTED_EDGE('',*,*,#489,.T.);
#626=ORIENTED_EDGE('',*,*,#483,.T.);
#627=ORIENTED_EDGE('',*,*,#497,.T.);
#628=ORIENTED_EDGE('',*,*,#498,.F.);
#629=ORIENTED_EDGE('',*,*,#499,.F.);
#630=ORIENTED_EDGE('',*,*,#481,.T.);
#631=ORIENTED_EDGE('',*,*,#500,.T.);
#632=ORIENTED_EDGE('',*,*,#501,.T.);
#633=ORIENTED_EDGE('',*,*,#502,.T.);
#634=ORIENTED_EDGE('',*,*,#503,.T.);
#635=ORIENTED_EDGE('',*,*,#478,.T.);
#636=ORIENTED_EDGE('',*,*,#504,.F.);
#637=ORIENTED_EDGE('',*,*,#505,.T.);
#638=ORIENTED_EDGE('',*,*,#506,.T.);
#639=ORIENTED_EDGE('',*,*,#490,.F.);
#640=ORIENTED_EDGE('',*,*,#496,.F.);
#641=ORIENTED_EDGE('',*,*,#507,.F.);
#642=ORIENTED_EDGE('',*,*,#487,.F.);
#643=ORIENTED_EDGE('',*,*,#505,.F.);
#644=ORIENTED_EDGE('',*,*,#492,.F.);
#645=ORIENTED_EDGE('',*,*,#508,.F.);
#646=ORIENTED_EDGE('',*,*,#509,.F.);
#647=ORIENTED_EDGE('',*,*,#479,.T.);
#648=ORIENTED_EDGE('',*,*,#506,.F.);
#649=ORIENTED_EDGE('',*,*,#509,.T.);
#650=ORIENTED_EDGE('',*,*,#510,.T.);
#651=ORIENTED_EDGE('',*,*,#480,.T.);
#652=ORIENTED_EDGE('',*,*,#510,.F.);
#653=ORIENTED_EDGE('',*,*,#508,.T.);
#654=ORIENTED_EDGE('',*,*,#491,.F.);
#655=ORIENTED_EDGE('',*,*,#482,.T.);
#656=ORIENTED_EDGE('',*,*,#488,.F.);
#657=ORIENTED_EDGE('',*,*,#507,.T.);
#658=ORIENTED_EDGE('',*,*,#511,.T.);
#659=ORIENTED_EDGE('',*,*,#502,.F.);
#660=ORIENTED_EDGE('',*,*,#512,.T.);
#661=ORIENTED_EDGE('',*,*,#513,.T.);
#662=ORIENTED_EDGE('',*,*,#514,.T.);
#663=ORIENTED_EDGE('',*,*,#515,.T.);
#664=ORIENTED_EDGE('',*,*,#516,.T.);
#665=ORIENTED_EDGE('',*,*,#517,.T.);
#666=ORIENTED_EDGE('',*,*,#518,.T.);
#667=ORIENTED_EDGE('',*,*,#503,.F.);
#668=ORIENTED_EDGE('',*,*,#517,.F.);
#669=ORIENTED_EDGE('',*,*,#519,.F.);
#670=ORIENTED_EDGE('',*,*,#520,.T.);
#671=ORIENTED_EDGE('',*,*,#519,.T.);
#672=ORIENTED_EDGE('',*,*,#516,.F.);
#673=ORIENTED_EDGE('',*,*,#521,.F.);
#674=ORIENTED_EDGE('',*,*,#522,.T.);
#675=ORIENTED_EDGE('',*,*,#521,.T.);
#676=ORIENTED_EDGE('',*,*,#515,.F.);
#677=ORIENTED_EDGE('',*,*,#523,.F.);
#678=ORIENTED_EDGE('',*,*,#524,.T.);
#679=ORIENTED_EDGE('',*,*,#523,.T.);
#680=ORIENTED_EDGE('',*,*,#514,.F.);
#681=ORIENTED_EDGE('',*,*,#525,.F.);
#682=ORIENTED_EDGE('',*,*,#526,.T.);
#683=ORIENTED_EDGE('',*,*,#525,.T.);
#684=ORIENTED_EDGE('',*,*,#513,.F.);
#685=ORIENTED_EDGE('',*,*,#527,.F.);
#686=ORIENTED_EDGE('',*,*,#528,.T.);
#687=ORIENTED_EDGE('',*,*,#527,.T.);
#688=ORIENTED_EDGE('',*,*,#512,.F.);
#689=ORIENTED_EDGE('',*,*,#501,.F.);
#690=ORIENTED_EDGE('',*,*,#500,.F.);
#691=ORIENTED_EDGE('',*,*,#518,.F.);
#692=ORIENTED_EDGE('',*,*,#520,.F.);
#693=ORIENTED_EDGE('',*,*,#522,.F.);
#694=ORIENTED_EDGE('',*,*,#524,.F.);
#695=ORIENTED_EDGE('',*,*,#526,.F.);
#696=ORIENTED_EDGE('',*,*,#528,.F.);
#697=ORIENTED_EDGE('',*,*,#529,.T.);
#698=ORIENTED_EDGE('',*,*,#530,.F.);
#699=ORIENTED_EDGE('',*,*,#531,.F.);
#700=ORIENTED_EDGE('',*,*,#532,.T.);
#701=ORIENTED_EDGE('',*,*,#533,.F.);
#702=ORIENTED_EDGE('',*,*,#534,.F.);
#703=ORIENTED_EDGE('',*,*,#535,.T.);
#704=ORIENTED_EDGE('',*,*,#536,.F.);
#705=ORIENTED_EDGE('',*,*,#511,.F.);
#706=ORIENTED_EDGE('',*,*,#495,.F.);
#707=ORIENTED_EDGE('',*,*,#537,.T.);
#708=ORIENTED_EDGE('',*,*,#533,.T.);
#709=ORIENTED_EDGE('',*,*,#538,.F.);
#710=ORIENTED_EDGE('',*,*,#497,.F.);
#711=ORIENTED_EDGE('',*,*,#504,.T.);
#712=ORIENTED_EDGE('',*,*,#499,.T.);
#713=ORIENTED_EDGE('',*,*,#539,.F.);
#714=ORIENTED_EDGE('',*,*,#535,.F.);
#715=ORIENTED_EDGE('',*,*,#540,.T.);
#716=ORIENTED_EDGE('',*,*,#493,.T.);
#717=ORIENTED_EDGE('',*,*,#529,.F.);
#718=ORIENTED_EDGE('',*,*,#541,.T.);
#719=ORIENTED_EDGE('',*,*,#542,.T.);
#720=ORIENTED_EDGE('',*,*,#543,.F.);
#721=ORIENTED_EDGE('',*,*,#531,.T.);
#722=ORIENTED_EDGE('',*,*,#544,.F.);
#723=ORIENTED_EDGE('',*,*,#545,.F.);
#724=ORIENTED_EDGE('',*,*,#546,.T.);
#725=ORIENTED_EDGE('',*,*,#542,.F.);
#726=ORIENTED_EDGE('',*,*,#547,.T.);
#727=ORIENTED_EDGE('',*,*,#548,.T.);
#728=ORIENTED_EDGE('',*,*,#549,.T.);
#729=ORIENTED_EDGE('',*,*,#550,.T.);
#730=ORIENTED_EDGE('',*,*,#551,.T.);
#731=ORIENTED_EDGE('',*,*,#552,.F.);
#732=ORIENTED_EDGE('',*,*,#553,.T.);
#733=ORIENTED_EDGE('',*,*,#554,.F.);
#734=ORIENTED_EDGE('',*,*,#555,.T.);
#735=ORIENTED_EDGE('',*,*,#545,.T.);
#736=ORIENTED_EDGE('',*,*,#556,.F.);
#737=ORIENTED_EDGE('',*,*,#460,.T.);
#738=ORIENTED_EDGE('',*,*,#463,.T.);
#739=ORIENTED_EDGE('',*,*,#466,.T.);
#740=ORIENTED_EDGE('',*,*,#469,.T.);
#741=ORIENTED_EDGE('',*,*,#472,.T.);
#742=ORIENTED_EDGE('',*,*,#475,.T.);
#743=ORIENTED_EDGE('',*,*,#556,.T.);
#744=ORIENTED_EDGE('',*,*,#544,.T.);
#745=ORIENTED_EDGE('',*,*,#530,.T.);
#746=ORIENTED_EDGE('',*,*,#543,.T.);
#747=ORIENTED_EDGE('',*,*,#534,.T.);
#748=ORIENTED_EDGE('',*,*,#537,.F.);
#749=ORIENTED_EDGE('',*,*,#494,.F.);
#750=ORIENTED_EDGE('',*,*,#540,.F.);
#751=ORIENTED_EDGE('',*,*,#557,.T.);
#752=ORIENTED_EDGE('',*,*,#558,.T.);
#753=ORIENTED_EDGE('',*,*,#559,.T.);
#754=ORIENTED_EDGE('',*,*,#551,.F.);
#755=ORIENTED_EDGE('',*,*,#536,.T.);
#756=ORIENTED_EDGE('',*,*,#539,.T.);
#757=ORIENTED_EDGE('',*,*,#498,.T.);
#758=ORIENTED_EDGE('',*,*,#538,.T.);
#759=ORIENTED_EDGE('',*,*,#560,.T.);
#760=ORIENTED_EDGE('',*,*,#552,.T.);
#761=ORIENTED_EDGE('',*,*,#559,.F.);
#762=ORIENTED_EDGE('',*,*,#561,.F.);
#763=ORIENTED_EDGE('',*,*,#562,.T.);
#764=ORIENTED_EDGE('',*,*,#561,.T.);
#765=ORIENTED_EDGE('',*,*,#558,.F.);
#766=ORIENTED_EDGE('',*,*,#563,.F.);
#767=ORIENTED_EDGE('',*,*,#564,.T.);
#768=ORIENTED_EDGE('',*,*,#563,.T.);
#769=ORIENTED_EDGE('',*,*,#557,.F.);
#770=ORIENTED_EDGE('',*,*,#550,.F.);
#771=ORIENTED_EDGE('',*,*,#565,.T.);
#772=ORIENTED_EDGE('',*,*,#553,.F.);
#773=ORIENTED_EDGE('',*,*,#560,.F.);
#774=ORIENTED_EDGE('',*,*,#562,.F.);
#775=ORIENTED_EDGE('',*,*,#564,.F.);
#776=ORIENTED_EDGE('',*,*,#549,.F.);
#777=ORIENTED_EDGE('',*,*,#566,.T.);
#778=ORIENTED_EDGE('',*,*,#567,.T.);
#779=ORIENTED_EDGE('',*,*,#568,.T.);
#780=ORIENTED_EDGE('',*,*,#554,.T.);
#781=ORIENTED_EDGE('',*,*,#565,.F.);
#782=ORIENTED_EDGE('',*,*,#569,.F.);
#783=ORIENTED_EDGE('',*,*,#570,.T.);
#784=ORIENTED_EDGE('',*,*,#569,.T.);
#785=ORIENTED_EDGE('',*,*,#567,.F.);
#786=ORIENTED_EDGE('',*,*,#571,.F.);
#787=ORIENTED_EDGE('',*,*,#572,.T.);
#788=ORIENTED_EDGE('',*,*,#571,.T.);
#789=ORIENTED_EDGE('',*,*,#566,.F.);
#790=ORIENTED_EDGE('',*,*,#548,.F.);
#791=ORIENTED_EDGE('',*,*,#555,.F.);
#792=ORIENTED_EDGE('',*,*,#568,.F.);
#793=ORIENTED_EDGE('',*,*,#570,.F.);
#794=ORIENTED_EDGE('',*,*,#572,.F.);
#795=ORIENTED_EDGE('',*,*,#547,.F.);
#796=ORIENTED_EDGE('',*,*,#541,.F.);
#797=ORIENTED_EDGE('',*,*,#532,.F.);
#798=ORIENTED_EDGE('',*,*,#546,.F.);
#799=CYLINDRICAL_SURFACE('',#868,0.17);
#800=CYLINDRICAL_SURFACE('',#872,0.17);
#801=CYLINDRICAL_SURFACE('',#876,0.17);
#802=CYLINDRICAL_SURFACE('',#880,0.17);
#803=CYLINDRICAL_SURFACE('',#884,0.17);
#804=CYLINDRICAL_SURFACE('',#888,0.17);
#805=ADVANCED_FACE('',(#66),#799,.F.);
#806=ADVANCED_FACE('',(#67),#23,.F.);
#807=ADVANCED_FACE('',(#68),#800,.F.);
#808=ADVANCED_FACE('',(#69),#24,.F.);
#809=ADVANCED_FACE('',(#70),#801,.F.);
#810=ADVANCED_FACE('',(#71),#25,.F.);
#811=ADVANCED_FACE('',(#72),#802,.F.);
#812=ADVANCED_FACE('',(#73),#26,.F.);
#813=ADVANCED_FACE('',(#74),#803,.F.);
#814=ADVANCED_FACE('',(#75),#27,.F.);
#815=ADVANCED_FACE('',(#76),#804,.F.);
#816=ADVANCED_FACE('',(#77),#28,.F.);
#817=ADVANCED_FACE('',(#78),#29,.F.);
#818=ADVANCED_FACE('',(#79),#30,.F.);
#819=ADVANCED_FACE('',(#80),#31,.T.);
#820=ADVANCED_FACE('',(#81),#32,.T.);
#821=ADVANCED_FACE('',(#82,#15),#33,.T.);
#822=ADVANCED_FACE('',(#83),#34,.T.);
#823=ADVANCED_FACE('',(#84),#35,.F.);
#824=ADVANCED_FACE('',(#85),#36,.F.);
#825=ADVANCED_FACE('',(#86),#37,.T.);
#826=ADVANCED_FACE('',(#87),#38,.T.);
#827=ADVANCED_FACE('',(#88),#39,.T.);
#828=ADVANCED_FACE('',(#89),#40,.T.);
#829=ADVANCED_FACE('',(#90),#41,.T.);
#830=ADVANCED_FACE('',(#91),#42,.T.);
#831=ADVANCED_FACE('',(#92),#43,.T.);
#832=ADVANCED_FACE('',(#93),#44,.T.);
#833=ADVANCED_FACE('',(#94),#45,.T.);
#834=ADVANCED_FACE('',(#95),#46,.T.);
#835=ADVANCED_FACE('',(#96),#47,.F.);
#836=ADVANCED_FACE('',(#97,#16),#48,.T.);
#837=ADVANCED_FACE('',(#98),#49,.T.);
#838=ADVANCED_FACE('',(#99),#50,.T.);
#839=ADVANCED_FACE('',(#100),#51,.T.);
#840=ADVANCED_FACE('',(#101),#52,.T.);
#841=ADVANCED_FACE('',(#102,#17,#18,#19,#20,#21,#22),#53,.T.);
#842=ADVANCED_FACE('',(#103),#54,.T.);
#843=ADVANCED_FACE('',(#104),#55,.F.);
#844=ADVANCED_FACE('',(#105),#56,.F.);
#845=ADVANCED_FACE('',(#106),#57,.T.);
#846=ADVANCED_FACE('',(#107),#58,.T.);
#847=ADVANCED_FACE('',(#108),#59,.T.);
#848=ADVANCED_FACE('',(#109),#60,.T.);
#849=ADVANCED_FACE('',(#110),#61,.F.);
#850=ADVANCED_FACE('',(#111),#62,.T.);
#851=ADVANCED_FACE('',(#112),#63,.T.);
#852=ADVANCED_FACE('',(#113),#64,.T.);
#853=ADVANCED_FACE('',(#114),#65,.F.);
#854=CLOSED_SHELL('',(#805,#806,#807,#808,#809,#810,#811,#812,#813,#814,
#815,#816,#817,#818,#819,#820,#821,#822,#823,#824,#825,#826,#827,#828,#829,
#830,#831,#832,#833,#834,#835,#836,#837,#838,#839,#840,#841,#842,#843,#844,
#845,#846,#847,#848,#849,#850,#851,#852,#853));
#855=DERIVED_UNIT_ELEMENT(#857,1.);
#856=DERIVED_UNIT_ELEMENT(#1396,-3.);
#857=(
MASS_UNIT()
NAMED_UNIT(*)
SI_UNIT(.KILO.,.GRAM.)
);
#858=DERIVED_UNIT((#855,#856));
#859=MEASURE_REPRESENTATION_ITEM('density measure',
POSITIVE_RATIO_MEASURE(7850.),#858);
#860=PROPERTY_DEFINITION_REPRESENTATION(#865,#862);
#861=PROPERTY_DEFINITION_REPRESENTATION(#866,#863);
#862=REPRESENTATION('material name',(#864),#1393);
#863=REPRESENTATION('density',(#859),#1393);
#864=DESCRIPTIVE_REPRESENTATION_ITEM('Steel','Steel');
#865=PROPERTY_DEFINITION('material property','material name',#1403);
#866=PROPERTY_DEFINITION('material property','density of part',#1403);
#867=AXIS2_PLACEMENT_3D('',#1154,#929,#930);
#868=AXIS2_PLACEMENT_3D('',#1155,#931,#932);
#869=AXIS2_PLACEMENT_3D('',#1157,#933,#934);
#870=AXIS2_PLACEMENT_3D('',#1160,#936,#937);
#871=AXIS2_PLACEMENT_3D('',#1161,#938,#939);
#872=AXIS2_PLACEMENT_3D('',#1162,#940,#941);
#873=AXIS2_PLACEMENT_3D('',#1164,#942,#943);
#874=AXIS2_PLACEMENT_3D('',#1167,#945,#946);
#875=AXIS2_PLACEMENT_3D('',#1168,#947,#948);
#876=AXIS2_PLACEMENT_3D('',#1169,#949,#950);
#877=AXIS2_PLACEMENT_3D('',#1171,#951,#952);
#878=AXIS2_PLACEMENT_3D('',#1174,#954,#955);
#879=AXIS2_PLACEMENT_3D('',#1175,#956,#957);
#880=AXIS2_PLACEMENT_3D('',#1176,#958,#959);
#881=AXIS2_PLACEMENT_3D('',#1178,#960,#961);
#882=AXIS2_PLACEMENT_3D('',#1181,#963,#964);
#883=AXIS2_PLACEMENT_3D('',#1182,#965,#966);
#884=AXIS2_PLACEMENT_3D('',#1183,#967,#968);
#885=AXIS2_PLACEMENT_3D('',#1185,#969,#970);
#886=AXIS2_PLACEMENT_3D('',#1188,#972,#973);
#887=AXIS2_PLACEMENT_3D('',#1189,#974,#975);
#888=AXIS2_PLACEMENT_3D('',#1190,#976,#977);
#889=AXIS2_PLACEMENT_3D('',#1192,#978,#979);
#890=AXIS2_PLACEMENT_3D('',#1195,#981,#982);
#891=AXIS2_PLACEMENT_3D('',#1196,#983,#984);
#892=AXIS2_PLACEMENT_3D('',#1197,#985,#986);
#893=AXIS2_PLACEMENT_3D('',#1206,#991,#992);
#894=AXIS2_PLACEMENT_3D('',#1215,#997,#998);
#895=AXIS2_PLACEMENT_3D('',#1221,#1002,#1003);
#896=AXIS2_PLACEMENT_3D('',#1225,#1006,#1007);
#897=AXIS2_PLACEMENT_3D('',#1250,#1021,#1022);
#898=AXIS2_PLACEMENT_3D('',#1255,#1026,#1027);
#899=AXIS2_PLACEMENT_3D('',#1257,#1029,#1030);
#900=AXIS2_PLACEMENT_3D('',#1261,#1033,#1034);
#901=AXIS2_PLACEMENT_3D('',#1263,#1036,#1037);
#902=AXIS2_PLACEMENT_3D('',#1264,#1038,#1039);
#903=AXIS2_PLACEMENT_3D('',#1266,#1041,#1042);
#904=AXIS2_PLACEMENT_3D('',#1278,#1049,#1050);
#905=AXIS2_PLACEMENT_3D('',#1282,#1053,#1054);
#906=AXIS2_PLACEMENT_3D('',#1286,#1057,#1058);
#907=AXIS2_PLACEMENT_3D('',#1290,#1061,#1062);
#908=AXIS2_PLACEMENT_3D('',#1294,#1065,#1066);
#909=AXIS2_PLACEMENT_3D('',#1298,#1069,#1070);
#910=AXIS2_PLACEMENT_3D('',#1300,#1072,#1073);
#911=AXIS2_PLACEMENT_3D('',#1301,#1074,#1075);
#912=AXIS2_PLACEMENT_3D('',#1318,#1084,#1085);
#913=AXIS2_PLACEMENT_3D('',#1321,#1088,#1089);
#914=AXIS2_PLACEMENT_3D('',#1324,#1092,#1093);
#915=AXIS2_PLACEMENT_3D('',#1330,#1097,#1098);
#916=AXIS2_PLACEMENT_3D('',#1336,#1102,#1103);
#917=AXIS2_PLACEMENT_3D('',#1355,#1114,#1115);
#918=AXIS2_PLACEMENT_3D('',#1356,#1116,#1117);
#919=AXIS2_PLACEMENT_3D('',#1357,#1118,#1119);
#920=AXIS2_PLACEMENT_3D('',#1363,#1123,#1124);
#921=AXIS2_PLACEMENT_3D('',#1364,#1125,#1126);
#922=AXIS2_PLACEMENT_3D('',#1368,#1129,#1130);
#923=AXIS2_PLACEMENT_3D('',#1372,#1133,#1134);
#924=AXIS2_PLACEMENT_3D('',#1374,#1136,#1137);
#925=AXIS2_PLACEMENT_3D('',#1380,#1141,#1142);
#926=AXIS2_PLACEMENT_3D('',#1384,#1145,#1146);
#927=AXIS2_PLACEMENT_3D('',#1388,#1149,#1150);
#928=AXIS2_PLACEMENT_3D('',#1390,#1152,#1153);
#929=DIRECTION('axis',(0.,0.,1.));
#930=DIRECTION('refdir',(1.,0.,0.));
#931=DIRECTION('center_axis',(0.,0.,1.));
#932=DIRECTION('ref_axis',(1.,0.,0.));
#933=DIRECTION('center_axis',(0.,0.,1.));
#934=DIRECTION('ref_axis',(1.,0.,0.));
#935=DIRECTION('',(0.,0.,1.));
#936=DIRECTION('center_axis',(0.,0.,1.));
#937=DIRECTION('ref_axis',(1.,0.,0.));
#938=DIRECTION('center_axis',(0.,0.,1.));
#939=DIRECTION('ref_axis',(1.,0.,0.));
#940=DIRECTION('center_axis',(0.,0.,1.));
#941=DIRECTION('ref_axis',(1.,0.,0.));
#942=DIRECTION('center_axis',(0.,0.,1.));
#943=DIRECTION('ref_axis',(1.,0.,0.));
#944=DIRECTION('',(0.,0.,1.));
#945=DIRECTION('center_axis',(0.,0.,1.));
#946=DIRECTION('ref_axis',(1.,0.,0.));
#947=DIRECTION('center_axis',(0.,0.,1.));
#948=DIRECTION('ref_axis',(1.,0.,0.));
#949=DIRECTION('center_axis',(0.,0.,1.));
#950=DIRECTION('ref_axis',(1.,0.,0.));
#951=DIRECTION('center_axis',(0.,0.,1.));
#952=DIRECTION('ref_axis',(1.,0.,0.));
#953=DIRECTION('',(0.,0.,1.));
#954=DIRECTION('center_axis',(0.,0.,1.));
#955=DIRECTION('ref_axis',(1.,0.,0.));
#956=DIRECTION('center_axis',(0.,0.,1.));
#957=DIRECTION('ref_axis',(1.,0.,0.));
#958=DIRECTION('center_axis',(0.,0.,1.));
#959=DIRECTION('ref_axis',(1.,0.,0.));
#960=DIRECTION('center_axis',(0.,0.,1.));
#961=DIRECTION('ref_axis',(1.,0.,0.));
#962=DIRECTION('',(0.,0.,1.));
#963=DIRECTION('center_axis',(0.,0.,1.));
#964=DIRECTION('ref_axis',(1.,0.,0.));
#965=DIRECTION('center_axis',(0.,0.,1.));
#966=DIRECTION('ref_axis',(1.,0.,0.));
#967=DIRECTION('center_axis',(0.,0.,1.));
#968=DIRECTION('ref_axis',(1.,0.,0.));
#969=DIRECTION('center_axis',(0.,0.,1.));
#970=DIRECTION('ref_axis',(1.,0.,0.));
#971=DIRECTION('',(0.,0.,1.));
#972=DIRECTION('center_axis',(0.,0.,1.));
#973=DIRECTION('ref_axis',(1.,0.,0.));
#974=DIRECTION('center_axis',(0.,0.,1.));
#975=DIRECTION('ref_axis',(1.,0.,0.));
#976=DIRECTION('center_axis',(0.,0.,1.));
#977=DIRECTION('ref_axis',(1.,0.,0.));
#978=DIRECTION('center_axis',(0.,0.,1.));
#979=DIRECTION('ref_axis',(1.,0.,0.));
#980=DIRECTION('',(0.,0.,1.));
#981=DIRECTION('center_axis',(0.,0.,1.));
#982=DIRECTION('ref_axis',(1.,0.,0.));
#983=DIRECTION('center_axis',(0.,0.,1.));
#984=DIRECTION('ref_axis',(1.,0.,0.));
#985=DIRECTION('center_axis',(-0.929989945225478,0.,-0.367584958587145));
#986=DIRECTION('ref_axis',(-0.367584958587145,0.,0.929989945225478));
#987=DIRECTION('',(0.367584958587145,0.,-0.929989945225478));
#988=DIRECTION('',(0.,1.,0.));
#989=DIRECTION('',(-0.367584958587145,0.,0.929989945225478));
#990=DIRECTION('',(0.,-1.,0.));
#991=DIRECTION('center_axis',(-0.929989945225478,0.,-0.367584958587145));
#992=DIRECTION('ref_axis',(-0.367584958587145,0.,0.929989945225478));
#993=DIRECTION('',(-0.367584958587145,0.,0.929989945225478));
#994=DIRECTION('',(0.,-1.,0.));
#995=DIRECTION('',(0.367584958587145,0.,-0.929989945225478));
#996=DIRECTION('',(0.,1.,0.));
#997=DIRECTION('center_axis',(0.,0.,1.));
#998=DIRECTION('ref_axis',(0.,-1.,0.));
#999=DIRECTION('',(1.,0.,0.));
#1000=DIRECTION('',(0.,-1.,0.));
#1001=DIRECTION('',(1.,0.,0.));
#1002=DIRECTION('center_axis',(0.,1.,0.));
#1003=DIRECTION('ref_axis',(0.,0.,1.));
#1004=DIRECTION('',(1.,0.,0.));
#1005=DIRECTION('',(0.442956162039554,0.,0.896543271968057));
#1006=DIRECTION('center_axis',(0.,0.,1.));
#1007=DIRECTION('ref_axis',(0.,-1.,0.));
#1008=DIRECTION('',(-1.,0.,0.));
#1009=DIRECTION('',(0.,1.,0.));
#1010=DIRECTION('',(1.,0.,0.));
#1011=DIRECTION('',(0.,-1.,0.));
#1012=DIRECTION('',(1.,0.,0.));
#1013=DIRECTION('',(0.,1.,0.));
#1014=DIRECTION('',(1.,0.,0.));
#1015=DIRECTION('',(0.,-1.,0.));
#1016=DIRECTION('',(1.,0.,0.));
#1017=DIRECTION('',(0.,1.,0.));
#1018=DIRECTION('',(1.,0.,0.));
#1019=DIRECTION('',(0.,-1.,0.));
#1020=DIRECTION('',(-1.,0.,0.));
#1021=DIRECTION('center_axis',(0.,1.,0.));
#1022=DIRECTION('ref_axis',(0.,0.,1.));
#1023=DIRECTION('',(1.,0.,0.));
#1024=DIRECTION('',(0.442956162039554,0.,0.896543271968057));
#1025=DIRECTION('',(1.,0.,0.));
#1026=DIRECTION('center_axis',(0.896543271968057,0.,-0.442956162039554));
#1027=DIRECTION('ref_axis',(-0.442956162039554,0.,-0.896543271968057));
#1028=DIRECTION('',(-0.442956162039554,0.,-0.896543271968057));
#1029=DIRECTION('center_axis',(0.896543271968057,0.,-0.442956162039554));
#1030=DIRECTION('ref_axis',(-0.442956162039554,0.,-0.896543271968057));
#1031=DIRECTION('',(-0.442956162039554,0.,-0.896543271968057));
#1032=DIRECTION('',(0.,-1.,0.));
#1033=DIRECTION('center_axis',(0.,0.,1.));
#1034=DIRECTION('ref_axis',(0.,-1.,0.));
#1035=DIRECTION('',(1.,0.,0.));
#1036=DIRECTION('center_axis',(0.,-1.,0.));
#1037=DIRECTION('ref_axis',(0.,0.,-1.));
#1038=DIRECTION('center_axis',(0.,-1.,0.));
#1039=DIRECTION('ref_axis',(0.,0.,-1.));
#1040=DIRECTION('',(1.,0.,0.));
#1041=DIRECTION('center_axis',(1.,0.,0.));
#1042=DIRECTION('ref_axis',(0.,0.,-1.));
#1043=DIRECTION('',(0.,-0.514495755427527,0.857492925712544));
#1044=DIRECTION('',(0.,-1.,0.));
#1045=DIRECTION('',(0.,-0.631672951162236,-0.775234985517289));
#1046=DIRECTION('',(0.,-0.631672951162236,0.775234985517289));
#1047=DIRECTION('',(0.,-1.,0.));
#1048=DIRECTION('',(0.,-0.514495755427527,-0.857492925712544));
#1049=DIRECTION('center_axis',(0.,-0.857492925712544,0.514495755427527));
#1050=DIRECTION('ref_axis',(0.,-0.514495755427527,-0.857492925712544));
#1051=DIRECTION('',(0.,-0.514495755427527,-0.857492925712544));
#1052=DIRECTION('',(1.,0.,0.));
#1053=DIRECTION('center_axis',(0.,0.,1.));
#1054=DIRECTION('ref_axis',(0.,-1.,0.));
#1055=DIRECTION('',(0.,-1.,0.));
#1056=DIRECTION('',(1.,0.,0.));
#1057=DIRECTION('center_axis',(0.,0.775234985517289,0.631672951162236));
#1058=DIRECTION('ref_axis',(0.,-0.631672951162236,0.775234985517289));
#1059=DIRECTION('',(0.,-0.631672951162236,0.775234985517289));
#1060=DIRECTION('',(1.,0.,0.));
#1061=DIRECTION('center_axis',(0.,-0.775234985517289,0.631672951162236));
#1062=DIRECTION('ref_axis',(0.,-0.631672951162236,-0.775234985517289));
#1063=DIRECTION('',(0.,-0.631672951162236,-0.775234985517289));
#1064=DIRECTION('',(1.,0.,0.));
#1065=DIRECTION('center_axis',(0.,0.,1.));
#1066=DIRECTION('ref_axis',(0.,-1.,0.));
#1067=DIRECTION('',(0.,-1.,0.));
#1068=DIRECTION('',(1.,0.,0.));
#1069=DIRECTION('center_axis',(0.,0.857492925712544,0.514495755427527));
#1070=DIRECTION('ref_axis',(0.,-0.514495755427527,0.857492925712544));
#1071=DIRECTION('',(0.,-0.514495755427527,0.857492925712544));
#1072=DIRECTION('center_axis',(1.,0.,0.));
#1073=DIRECTION('ref_axis',(0.,0.,-1.));
#1074=DIRECTION('center_axis',(0.,0.,1.));
#1075=DIRECTION('ref_axis',(0.,-1.,0.));
#1076=DIRECTION('',(1.,0.,0.));
#1077=DIRECTION('',(0.,-1.,0.));
#1078=DIRECTION('',(1.,0.,0.));
#1079=DIRECTION('',(0.,-1.,0.));
#1080=DIRECTION('',(1.,0.,0.));
#1081=DIRECTION('',(0.,-1.,0.));
#1082=DIRECTION('',(1.,0.,0.));
#1083=DIRECTION('',(0.,1.,0.));
#1084=DIRECTION('center_axis',(0.,-0.731055268242869,0.682318250360012));
#1085=DIRECTION('ref_axis',(0.,-0.682318250360012,-0.731055268242869));
#1086=DIRECTION('',(0.,-0.682318250360012,-0.731055268242869));
#1087=DIRECTION('',(0.,-0.682318250360012,-0.731055268242869));
#1088=DIRECTION('center_axis',(0.,0.731055268242869,0.682318250360012));
#1089=DIRECTION('ref_axis',(0.,-0.682318250360012,0.731055268242869));
#1090=DIRECTION('',(0.,-0.682318250360012,0.731055268242869));
#1091=DIRECTION('',(0.,-0.682318250360012,0.731055268242869));
#1092=DIRECTION('center_axis',(0.,-1.,0.));
#1093=DIRECTION('ref_axis',(0.,0.,-1.));
#1094=DIRECTION('',(0.,0.,-1.));
#1095=DIRECTION('',(1.,0.,0.));
#1096=DIRECTION('',(0.,0.,-1.));
#1097=DIRECTION('center_axis',(0.,1.,0.));
#1098=DIRECTION('ref_axis',(0.,0.,1.));
#1099=DIRECTION('',(0.,0.,1.));
#1100=DIRECTION('',(1.,0.,0.));
#1101=DIRECTION('',(0.,0.,1.));
#1102=DIRECTION('center_axis',(0.,0.,-1.));
#1103=DIRECTION('ref_axis',(0.,1.,0.));
#1104=DIRECTION('',(0.,1.,0.));
#1105=DIRECTION('',(1.,0.,0.));
#1106=DIRECTION('',(0.,1.,0.));
#1107=DIRECTION('',(1.,0.,0.));
#1108=DIRECTION('',(0.,1.,0.));
#1109=DIRECTION('',(1.,0.,0.));
#1110=DIRECTION('',(0.,1.,0.));
#1111=DIRECTION('',(1.,0.,0.));
#1112=DIRECTION('',(0.,1.,0.));
#1113=DIRECTION('',(0.,1.,0.));
#1114=DIRECTION('center_axis',(1.,0.,0.));
#1115=DIRECTION('ref_axis',(0.,0.,-1.));
#1116=DIRECTION('center_axis',(1.,0.,0.));
#1117=DIRECTION('ref_axis',(0.,0.,-1.));
#1118=DIRECTION('center_axis',(1.,0.,0.));
#1119=DIRECTION('ref_axis',(0.,0.,-1.));
#1120=DIRECTION('',(0.,0.,1.));
#1121=DIRECTION('',(0.,1.,0.));
#1122=DIRECTION('',(0.,0.,-1.));
#1123=DIRECTION('center_axis',(1.,0.,0.));
#1124=DIRECTION('ref_axis',(0.,0.,-1.));
#1125=DIRECTION('center_axis',(0.,-1.,0.));
#1126=DIRECTION('ref_axis',(0.,0.,-1.));
#1127=DIRECTION('',(0.,0.,-1.));
#1128=DIRECTION('',(1.,0.,0.));
#1129=DIRECTION('center_axis',(0.,0.,-1.));
#1130=DIRECTION('ref_axis',(0.,1.,0.));
#1131=DIRECTION('',(0.,1.,0.));
#1132=DIRECTION('',(1.,0.,0.));
#1133=DIRECTION('center_axis',(0.,1.,0.));
#1134=DIRECTION('ref_axis',(0.,0.,1.));
#1135=DIRECTION('',(0.,0.,1.));
#1136=DIRECTION('center_axis',(1.,0.,0.));
#1137=DIRECTION('ref_axis',(0.,0.,-1.));
#1138=DIRECTION('',(0.,0.,-1.));
#1139=DIRECTION('',(0.,0.,1.));
#1140=DIRECTION('',(0.,1.,0.));
#1141=DIRECTION('center_axis',(0.,-1.,0.));
#1142=DIRECTION('ref_axis',(0.,0.,-1.));
#1143=DIRECTION('',(0.,0.,-1.));
#1144=DIRECTION('',(1.,0.,0.));
#1145=DIRECTION('center_axis',(0.,0.,-1.));
#1146=DIRECTION('ref_axis',(0.,1.,0.));
#1147=DIRECTION('',(0.,1.,0.));
#1148=DIRECTION('',(1.,0.,0.));
#1149=DIRECTION('center_axis',(0.,1.,0.));
#1150=DIRECTION('ref_axis',(0.,0.,1.));
#1151=DIRECTION('',(0.,0.,1.));
#1152=DIRECTION('center_axis',(1.,0.,0.));
#1153=DIRECTION('ref_axis',(0.,0.,-1.));
#1154=CARTESIAN_POINT('',(0.,0.,0.));
#1155=CARTESIAN_POINT('Origin',(-35.69,-1.8,4.05));
#1156=CARTESIAN_POINT('',(-35.86,-1.8,3.05));
#1157=CARTESIAN_POINT('Origin',(-35.69,-1.8,3.05));
#1158=CARTESIAN_POINT('',(-35.86,-1.8,5.1));
#1159=CARTESIAN_POINT('',(-35.86,-1.8,4.05));
#1160=CARTESIAN_POINT('Origin',(-35.69,-1.8,5.1));
#1161=CARTESIAN_POINT('Origin',(-35.69,-1.8,5.1));
#1162=CARTESIAN_POINT('Origin',(-35.69,1.8,4.05));
#1163=CARTESIAN_POINT('',(-35.86,1.8,3.05));
#1164=CARTESIAN_POINT('Origin',(-35.69,1.8,3.05));
#1165=CARTESIAN_POINT('',(-35.86,1.8,5.1));
#1166=CARTESIAN_POINT('',(-35.86,1.8,4.05));
#1167=CARTESIAN_POINT('Origin',(-35.69,1.8,5.1));
#1168=CARTESIAN_POINT('Origin',(-35.69,1.8,5.1));
#1169=CARTESIAN_POINT('Origin',(-41.35,-1.8,4.05));
#1170=CARTESIAN_POINT('',(-41.52,-1.8,3.05));
#1171=CARTESIAN_POINT('Origin',(-41.35,-1.8,3.05));
#1172=CARTESIAN_POINT('',(-41.52,-1.8,5.1));
#1173=CARTESIAN_POINT('',(-41.52,-1.8,4.05));
#1174=CARTESIAN_POINT('Origin',(-41.35,-1.8,5.1));
#1175=CARTESIAN_POINT('Origin',(-41.35,-1.8,5.1));
#1176=CARTESIAN_POINT('Origin',(-41.35,1.8,4.05));
#1177=CARTESIAN_POINT('',(-41.52,1.8,3.05));
#1178=CARTESIAN_POINT('Origin',(-41.35,1.8,3.05));
#1179=CARTESIAN_POINT('',(-41.52,1.8,5.1));
#1180=CARTESIAN_POINT('',(-41.52,1.8,4.05));
#1181=CARTESIAN_POINT('Origin',(-41.35,1.8,5.1));
#1182=CARTESIAN_POINT('Origin',(-41.35,1.8,5.1));
#1183=CARTESIAN_POINT('Origin',(-52.67,-1.8,4.05));
#1184=CARTESIAN_POINT('',(-52.84,-1.8,3.05));
#1185=CARTESIAN_POINT('Origin',(-52.67,-1.8,3.05));
#1186=CARTESIAN_POINT('',(-52.84,-1.8,5.1));
#1187=CARTESIAN_POINT('',(-52.84,-1.8,4.05));
#1188=CARTESIAN_POINT('Origin',(-52.67,-1.8,5.1));
#1189=CARTESIAN_POINT('Origin',(-52.67,-1.8,5.1));
#1190=CARTESIAN_POINT('Origin',(-52.67,1.8,4.05));
#1191=CARTESIAN_POINT('',(-52.84,1.8,3.05));
#1192=CARTESIAN_POINT('Origin',(-52.67,1.8,3.05));
#1193=CARTESIAN_POINT('',(-52.84,1.8,5.1));
#1194=CARTESIAN_POINT('',(-52.84,1.8,4.05));
#1195=CARTESIAN_POINT('Origin',(-52.67,1.8,5.1));
#1196=CARTESIAN_POINT('Origin',(-52.67,1.8,5.1));
#1197=CARTESIAN_POINT('Origin',(-43.25,-3.,7.12));
#1198=CARTESIAN_POINT('',(-44.2381422924901,2.,9.62));
#1199=CARTESIAN_POINT('',(-43.25,2.,7.12));
#1200=CARTESIAN_POINT('',(-43.672245943061,2.,8.18828223594428));
#1201=CARTESIAN_POINT('',(-44.2381422924901,1.4,9.62));
#1202=CARTESIAN_POINT('',(-44.2381422924901,-0.5,9.62));
#1203=CARTESIAN_POINT('',(-43.25,1.4,7.12));
#1204=CARTESIAN_POINT('',(-44.0995588374387,1.4,9.26938385871989));
#1205=CARTESIAN_POINT('',(-43.25,1.,7.12));
#1206=CARTESIAN_POINT('Origin',(-43.25,-3.,7.12));
#1207=CARTESIAN_POINT('',(-43.25,-2.,7.12));
#1208=CARTESIAN_POINT('',(-44.2381422924901,-2.,9.62));
#1209=CARTESIAN_POINT('',(-44.0995588374387,-2.,9.26938385871989));
#1210=CARTESIAN_POINT('',(-43.25,-1.4,7.12));
#1211=CARTESIAN_POINT('',(-43.25,1.,7.12));
#1212=CARTESIAN_POINT('',(-44.2381422924901,-1.4,9.62));
#1213=CARTESIAN_POINT('',(-43.672245943061,-1.4,8.18828223594428));
#1214=CARTESIAN_POINT('',(-44.2381422924901,-2.2,9.62));
#1215=CARTESIAN_POINT('Origin',(-49.5,-1.4,9.62));
#1216=CARTESIAN_POINT('',(-48.2648221343874,-1.4,9.62));
#1217=CARTESIAN_POINT('',(-49.5,-1.4,9.62));
#1218=CARTESIAN_POINT('',(-48.2648221343874,-2.,9.62));
#1219=CARTESIAN_POINT('',(-48.2648221343874,-2.2,9.62));
#1220=CARTESIAN_POINT('',(-49.5,-2.,9.62));
#1221=CARTESIAN_POINT('Origin',(-49.5,-1.4,7.12));
#1222=CARTESIAN_POINT('',(-49.5,-1.4,7.12));
#1223=CARTESIAN_POINT('',(-51.5,-1.4,7.12));
#1224=CARTESIAN_POINT('',(-48.875,-1.4,8.385));
#1225=CARTESIAN_POINT('Origin',(-53.5,2.,7.12));
#1226=CARTESIAN_POINT('',(-49.5,1.4,7.12));
#1227=CARTESIAN_POINT('',(-51.5,1.4,7.12));
#1228=CARTESIAN_POINT('',(-49.5,2.,7.12));
#1229=CARTESIAN_POINT('',(-49.5,1.,7.12));
#1230=CARTESIAN_POINT('',(-53.5,2.,7.12));
#1231=CARTESIAN_POINT('',(-53.5,2.,7.12));
#1232=CARTESIAN_POINT('',(-53.5,-2.,7.12));
#1233=CARTESIAN_POINT('',(-53.5,2.,7.12));
#1234=CARTESIAN_POINT('',(-49.5,-2.,7.12));
#1235=CARTESIAN_POINT('',(-53.5,-2.,7.12));
#1236=CARTESIAN_POINT('',(-49.5,1.,7.12));
#1237=CARTESIAN_POINT('',(-38.25,-2.,7.12));
#1238=CARTESIAN_POINT('',(-53.5,-2.,7.12));
#1239=CARTESIAN_POINT('',(-38.25,2.,7.12));
#1240=CARTESIAN_POINT('',(-38.25,2.,7.12));
#1241=CARTESIAN_POINT('',(-53.5,2.,7.12));
#1242=CARTESIAN_POINT('',(-48.25,-1.08,7.12));
#1243=CARTESIAN_POINT('',(-48.25,1.08,7.12));
#1244=CARTESIAN_POINT('',(-48.25,1.,7.12));
#1245=CARTESIAN_POINT('',(-44.25,1.08,7.12));
#1246=CARTESIAN_POINT('',(-50.875,1.08,7.12));
#1247=CARTESIAN_POINT('',(-44.25,-1.08,7.12));
#1248=CARTESIAN_POINT('',(-44.25,1.,7.12));
#1249=CARTESIAN_POINT('',(-50.875,-1.08,7.12));
#1250=CARTESIAN_POINT('Origin',(-49.5,2.,7.12));
#1251=CARTESIAN_POINT('',(-53.5,2.,7.12));
#1252=CARTESIAN_POINT('',(-48.2648221343874,2.,9.62));
#1253=CARTESIAN_POINT('',(-48.875,2.,8.385));
#1254=CARTESIAN_POINT('',(-49.5,2.,9.62));
#1255=CARTESIAN_POINT('Origin',(-48.25,-3.,9.65));
#1256=CARTESIAN_POINT('',(-48.3785882914333,-2.,9.38973729813899));
#1257=CARTESIAN_POINT('Origin',(-48.25,-3.,9.65));
#1258=CARTESIAN_POINT('',(-48.2648221343874,1.4,9.62));
#1259=CARTESIAN_POINT('',(-48.3785882914333,1.4,9.38973729813899));
#1260=CARTESIAN_POINT('',(-48.2648221343874,-0.5,9.62));
#1261=CARTESIAN_POINT('Origin',(-49.5,2.,9.62));
#1262=CARTESIAN_POINT('',(-49.5,1.4,9.62));
#1263=CARTESIAN_POINT('Origin',(-49.5,1.4,9.62));
#1264=CARTESIAN_POINT('Origin',(-49.5,-2.,9.62));
#1265=CARTESIAN_POINT('',(-53.5,-2.,7.12));
#1266=CARTESIAN_POINT('Origin',(-44.25,0.,6.335));
#1267=CARTESIAN_POINT('',(-44.25,0.6,7.92));
#1268=CARTESIAN_POINT('',(-44.25,1.08,7.12));
#1269=CARTESIAN_POINT('',(-44.25,0.22,7.92));
#1270=CARTESIAN_POINT('',(-44.25,0.6,7.92));
#1271=CARTESIAN_POINT('',(-44.25,0.,7.65));
#1272=CARTESIAN_POINT('',(-44.25,0.22,7.92));
#1273=CARTESIAN_POINT('',(-44.25,-0.22,7.92));
#1274=CARTESIAN_POINT('',(-44.25,0.,7.65));
#1275=CARTESIAN_POINT('',(-44.25,-0.6,7.92));
#1276=CARTESIAN_POINT('',(-44.25,-0.22,7.92));
#1277=CARTESIAN_POINT('',(-44.25,-0.6,7.92));
#1278=CARTESIAN_POINT('Origin',(-48.25,-0.6,7.92));
#1279=CARTESIAN_POINT('',(-48.25,-0.6,7.92));
#1280=CARTESIAN_POINT('',(-48.25,-0.6,7.92));
#1281=CARTESIAN_POINT('',(-48.25,-0.6,7.92));
#1282=CARTESIAN_POINT('Origin',(-48.25,-0.22,7.92));
#1283=CARTESIAN_POINT('',(-48.25,-0.22,7.92));
#1284=CARTESIAN_POINT('',(-48.25,-0.22,7.92));
#1285=CARTESIAN_POINT('',(-48.25,-0.22,7.92));
#1286=CARTESIAN_POINT('Origin',(-48.25,0.,7.65));
#1287=CARTESIAN_POINT('',(-48.25,0.,7.65));
#1288=CARTESIAN_POINT('',(-48.25,0.,7.65));
#1289=CARTESIAN_POINT('',(-48.25,0.,7.65));
#1290=CARTESIAN_POINT('Origin',(-48.25,0.22,7.92));
#1291=CARTESIAN_POINT('',(-48.25,0.22,7.92));
#1292=CARTESIAN_POINT('',(-48.25,0.22,7.92));
#1293=CARTESIAN_POINT('',(-48.25,0.22,7.92));
#1294=CARTESIAN_POINT('Origin',(-48.25,0.6,7.92));
#1295=CARTESIAN_POINT('',(-48.25,0.6,7.92));
#1296=CARTESIAN_POINT('',(-48.25,0.6,7.92));
#1297=CARTESIAN_POINT('',(-48.25,0.6,7.92));
#1298=CARTESIAN_POINT('Origin',(-48.25,1.08,7.12));
#1299=CARTESIAN_POINT('',(-48.25,1.08,7.12));
#1300=CARTESIAN_POINT('Origin',(-48.25,0.,6.335));
#1301=CARTESIAN_POINT('Origin',(-56.06,2.58,6.82));
#1302=CARTESIAN_POINT('',(-56.06,-2.58,6.82));
#1303=CARTESIAN_POINT('',(-33.43,-2.58,6.82));
#1304=CARTESIAN_POINT('',(-56.06,-2.58,6.82));
#1305=CARTESIAN_POINT('',(-33.43,2.58,6.82));
#1306=CARTESIAN_POINT('',(-33.43,2.58,6.82));
#1307=CARTESIAN_POINT('',(-56.06,2.58,6.82));
#1308=CARTESIAN_POINT('',(-56.06,2.58,6.82));
#1309=CARTESIAN_POINT('',(-56.06,2.58,6.82));
#1310=CARTESIAN_POINT('',(-53.5,-2.28,6.82));
#1311=CARTESIAN_POINT('',(-38.25,-2.28,6.82));
#1312=CARTESIAN_POINT('',(-53.5,-2.28,6.82));
#1313=CARTESIAN_POINT('',(-53.5,2.28,6.82));
#1314=CARTESIAN_POINT('',(-53.5,2.58,6.82));
#1315=CARTESIAN_POINT('',(-38.25,2.28,6.82));
#1316=CARTESIAN_POINT('',(-53.5,2.28,6.82));
#1317=CARTESIAN_POINT('',(-38.25,1.29,6.82));
#1318=CARTESIAN_POINT('Origin',(-53.5,-2.,7.12));
#1319=CARTESIAN_POINT('',(-53.5,-2.,7.12));
#1320=CARTESIAN_POINT('',(-38.25,-2.,7.12));
#1321=CARTESIAN_POINT('Origin',(-53.5,2.28,6.82));
#1322=CARTESIAN_POINT('',(-38.25,2.28,6.82));
#1323=CARTESIAN_POINT('',(-53.5,2.28,6.82));
#1324=CARTESIAN_POINT('Origin',(-56.06,-2.58,6.82));
#1325=CARTESIAN_POINT('',(-56.06,-2.58,3.05));
#1326=CARTESIAN_POINT('',(-56.06,-2.58,6.82));
#1327=CARTESIAN_POINT('',(-33.43,-2.58,3.05));
#1328=CARTESIAN_POINT('',(-56.06,-2.58,3.05));
#1329=CARTESIAN_POINT('',(-33.43,-2.58,6.82));
#1330=CARTESIAN_POINT('Origin',(-56.06,2.58,3.05));
#1331=CARTESIAN_POINT('',(-33.43,2.58,3.05));
#1332=CARTESIAN_POINT('',(-33.43,2.58,3.05));
#1333=CARTESIAN_POINT('',(-56.06,2.58,3.05));
#1334=CARTESIAN_POINT('',(-56.06,2.58,3.05));
#1335=CARTESIAN_POINT('',(-56.06,2.58,3.05));
#1336=CARTESIAN_POINT('Origin',(-56.06,-2.58,3.05));
#1337=CARTESIAN_POINT('',(-56.06,-2.05,3.05));
#1338=CARTESIAN_POINT('',(-56.06,-2.58,3.05));
#1339=CARTESIAN_POINT('',(-55.26,-2.05,3.05));
#1340=CARTESIAN_POINT('',(-56.06,-2.05,3.05));
#1341=CARTESIAN_POINT('',(-55.26,-1.3,3.05));
#1342=CARTESIAN_POINT('',(-55.26,-2.58,3.05));
#1343=CARTESIAN_POINT('',(-53.5,-1.3,3.05));
#1344=CARTESIAN_POINT('',(-55.26,-1.3,3.05));
#1345=CARTESIAN_POINT('',(-53.5,1.3,3.05));
#1346=CARTESIAN_POINT('',(-53.5,-2.58,3.05));
#1347=CARTESIAN_POINT('',(-55.26,1.3,3.05));
#1348=CARTESIAN_POINT('',(-55.26,1.3,3.05));
#1349=CARTESIAN_POINT('',(-55.26,2.05,3.05));
#1350=CARTESIAN_POINT('',(-55.26,1.3,3.05));
#1351=CARTESIAN_POINT('',(-56.06,2.05,3.05));
#1352=CARTESIAN_POINT('',(-56.06,2.05,3.05));
#1353=CARTESIAN_POINT('',(-56.06,2.05,3.05));
#1354=CARTESIAN_POINT('',(-33.43,-2.58,3.05));
#1355=CARTESIAN_POINT('Origin',(-33.43,0.,4.935));
#1356=CARTESIAN_POINT('Origin',(-53.5,0.,5.085));
#1357=CARTESIAN_POINT('Origin',(-53.5,0.,5.085));
#1358=CARTESIAN_POINT('',(-53.5,-1.3,3.57));
#1359=CARTESIAN_POINT('',(-53.5,-1.3,3.05));
#1360=CARTESIAN_POINT('',(-53.5,1.3,3.57));
#1361=CARTESIAN_POINT('',(-53.5,-1.3,3.57));
#1362=CARTESIAN_POINT('',(-53.5,1.3,3.57));
#1363=CARTESIAN_POINT('Origin',(-38.25,0.,5.085));
#1364=CARTESIAN_POINT('Origin',(-55.26,1.3,3.57));
#1365=CARTESIAN_POINT('',(-55.26,1.3,3.57));
#1366=CARTESIAN_POINT('',(-55.26,1.3,3.57));
#1367=CARTESIAN_POINT('',(-55.26,1.3,3.57));
#1368=CARTESIAN_POINT('Origin',(-55.26,-1.3,3.57));
#1369=CARTESIAN_POINT('',(-55.26,-1.3,3.57));
#1370=CARTESIAN_POINT('',(-55.26,-1.3,3.57));
#1371=CARTESIAN_POINT('',(-55.26,-1.3,3.57));
#1372=CARTESIAN_POINT('Origin',(-55.26,-1.3,3.05));
#1373=CARTESIAN_POINT('',(-55.26,-1.3,3.05));
#1374=CARTESIAN_POINT('Origin',(-55.26,0.,4.935));
#1375=CARTESIAN_POINT('',(-55.26,2.05,5.56));
#1376=CARTESIAN_POINT('',(-55.26,2.05,5.56));
#1377=CARTESIAN_POINT('',(-55.26,-2.05,5.56));
#1378=CARTESIAN_POINT('',(-55.26,-2.05,3.05));
#1379=CARTESIAN_POINT('',(-55.26,-2.05,5.56));
#1380=CARTESIAN_POINT('Origin',(-56.06,2.05,5.56));
#1381=CARTESIAN_POINT('',(-56.06,2.05,5.56));
#1382=CARTESIAN_POINT('',(-56.06,2.05,5.56));
#1383=CARTESIAN_POINT('',(-56.06,2.05,5.56));
#1384=CARTESIAN_POINT('Origin',(-56.06,-2.05,5.56));
#1385=CARTESIAN_POINT('',(-56.06,-2.05,5.56));
#1386=CARTESIAN_POINT('',(-56.06,-2.05,5.56));
#1387=CARTESIAN_POINT('',(-56.06,-2.05,5.56));
#1388=CARTESIAN_POINT('Origin',(-56.06,-2.05,3.05));
#1389=CARTESIAN_POINT('',(-56.06,-2.05,3.05));
#1390=CARTESIAN_POINT('Origin',(-56.06,0.,4.935));
#1391=UNCERTAINTY_MEASURE_WITH_UNIT(LENGTH_MEASURE(0.001),#1395,
'DISTANCE_ACCURACY_VALUE',
'Maximum model space distance between geometric entities at asserted c
onnectivities');
#1392=UNCERTAINTY_MEASURE_WITH_UNIT(LENGTH_MEASURE(0.001),#1395,
'DISTANCE_ACCURACY_VALUE',
'Maximum model space distance between geometric entities at asserted c
onnectivities');
#1393=(
GEOMETRIC_REPRESENTATION_CONTEXT(3)
GLOBAL_UNCERTAINTY_ASSIGNED_CONTEXT((#1391))
GLOBAL_UNIT_ASSIGNED_CONTEXT((#1395,#1397,#1398))
REPRESENTATION_CONTEXT('','3D')
);
#1394=(
GEOMETRIC_REPRESENTATION_CONTEXT(3)
GLOBAL_UNCERTAINTY_ASSIGNED_CONTEXT((#1392))
GLOBAL_UNIT_ASSIGNED_CONTEXT((#1395,#1397,#1398))
REPRESENTATION_CONTEXT('','3D')
);
#1395=(
LENGTH_UNIT()
NAMED_UNIT(*)
SI_UNIT(.CENTI.,.METRE.)
);
#1396=(
LENGTH_UNIT()
NAMED_UNIT(*)
SI_UNIT($,.METRE.)
);
#1397=(
NAMED_UNIT(*)
PLANE_ANGLE_UNIT()
SI_UNIT($,.RADIAN.)
);
#1398=(
NAMED_UNIT(*)
SI_UNIT($,.STERADIAN.)
SOLID_ANGLE_UNIT()
);
#1399=SHAPE_DEFINITION_REPRESENTATION(#1400,#1401);
#1400=PRODUCT_DEFINITION_SHAPE('',$,#1403);
#1401=SHAPE_REPRESENTATION('',(#867),#1393);
#1402=PRODUCT_DEFINITION_CONTEXT('part definition',#1407,'design');
#1403=PRODUCT_DEFINITION('Top1_Native','Top1_Native',#1404,#1402);
#1404=PRODUCT_DEFINITION_FORMATION('',$,#1409);
#1405=PRODUCT_RELATED_PRODUCT_CATEGORY('Top1_Native','Top1_Native',(#1409));
#1406=APPLICATION_PROTOCOL_DEFINITION('international standard',
'automotive_design',2009,#1407);
#1407=APPLICATION_CONTEXT(
'Core Data for Automotive Mechanical Design Process');
#1408=PRODUCT_CONTEXT('part definition',#1407,'mechanical');
#1409=PRODUCT('Top1_Native','Top1_Native',$,(#1408));
#1410=PRESENTATION_STYLE_ASSIGNMENT((#1411));
#1411=SURFACE_STYLE_USAGE(.BOTH.,#1412);
#1412=SURFACE_SIDE_STYLE('',(#1413));
#1413=SURFACE_STYLE_FILL_AREA(#1414);
#1414=FILL_AREA_STYLE('Steel - Satin',(#1415));
#1415=FILL_AREA_STYLE_COLOUR('Steel - Satin',#1416);
#1416=COLOUR_RGB('Steel - Satin',0.627450980392157,0.627450980392157,0.627450980392157);
ENDSEC;
END-ISO-10303-21;
